<svg width="332" height="23" viewBox="0 0 332 23" fill="none" xmlns="http://www.w3.org/2000/svg">
<path d="M1.71 18C1.578 18 1.47 17.958 1.386 17.874C1.302 17.79 1.26 17.682 1.26 17.55V5.85C1.26 5.718 1.302 5.61 1.386 5.526C1.47 5.442 1.578 5.4 1.71 5.4H10.116C10.248 5.4 10.356 5.442 10.44 5.526C10.524 5.61 10.566 5.718 10.566 5.85V7.542C10.566 7.674 10.524 7.782 10.44 7.866C10.356 7.95 10.248 7.992 10.116 7.992H4.374V10.422H9.72C9.852 10.422 9.96 10.47 10.044 10.566C10.128 10.65 10.17 10.758 10.17 10.89V12.456C10.17 12.576 10.128 12.684 10.044 12.78C9.96 12.864 9.852 12.906 9.72 12.906H4.374V15.408H10.26C10.392 15.408 10.5 15.45 10.584 15.534C10.668 15.618 10.71 15.726 10.71 15.858V17.55C10.71 17.682 10.668 17.79 10.584 17.874C10.5 17.958 10.392 18 10.26 18H1.71ZM16.4101 18.18C15.6301 18.18 14.9641 18.096 14.4121 17.928C13.8721 17.748 13.4281 17.532 13.0801 17.28C12.7441 17.028 12.4921 16.77 12.3241 16.506C12.1561 16.23 12.0661 15.996 12.0541 15.804C12.0421 15.672 12.0841 15.564 12.1801 15.48C12.2761 15.384 12.3781 15.336 12.4861 15.336H14.5381C14.5741 15.336 14.6041 15.342 14.6281 15.354C14.6521 15.366 14.6881 15.39 14.7361 15.426C14.8921 15.51 15.0481 15.618 15.2041 15.75C15.3601 15.87 15.5401 15.978 15.7441 16.074C15.9481 16.17 16.1941 16.218 16.4821 16.218C16.8181 16.218 17.1001 16.152 17.3281 16.02C17.5561 15.888 17.6701 15.69 17.6701 15.426C17.6701 15.234 17.6161 15.078 17.5081 14.958C17.4001 14.826 17.1781 14.7 16.8421 14.58C16.5181 14.46 16.0261 14.34 15.3661 14.22C14.7421 14.076 14.1961 13.89 13.7281 13.662C13.2601 13.422 12.9001 13.116 12.6481 12.744C12.3961 12.36 12.2701 11.898 12.2701 11.358C12.2701 10.878 12.4261 10.416 12.7381 9.972C13.0501 9.528 13.5061 9.168 14.1061 8.892C14.7061 8.604 15.4441 8.46 16.3201 8.46C17.0161 8.46 17.6161 8.544 18.1201 8.712C18.6361 8.868 19.0681 9.072 19.4161 9.324C19.7761 9.576 20.0461 9.834 20.2261 10.098C20.4061 10.362 20.5021 10.602 20.5141 10.818C20.5261 10.938 20.4901 11.046 20.4061 11.142C20.3221 11.226 20.2261 11.268 20.1181 11.268H18.2461C18.1981 11.268 18.1501 11.262 18.1021 11.25C18.0541 11.226 18.0121 11.202 17.9761 11.178C17.8321 11.106 17.6881 11.01 17.5441 10.89C17.4001 10.77 17.2321 10.662 17.0401 10.566C16.8481 10.47 16.6081 10.422 16.3201 10.422C15.9961 10.422 15.7441 10.494 15.5641 10.638C15.3841 10.782 15.2941 10.968 15.2941 11.196C15.2941 11.352 15.3421 11.496 15.4381 11.628C15.5461 11.76 15.7561 11.88 16.0681 11.988C16.3921 12.096 16.8901 12.216 17.5621 12.348C18.3901 12.48 19.0501 12.696 19.5421 12.996C20.0341 13.284 20.3821 13.626 20.5861 14.022C20.7901 14.406 20.8921 14.814 20.8921 15.246C20.8921 15.822 20.7181 16.332 20.3701 16.776C20.0341 17.22 19.5301 17.568 18.8581 17.82C18.1861 18.06 17.3701 18.18 16.4101 18.18ZM26.3593 18.18C25.5793 18.18 24.9133 18.096 24.3613 17.928C23.8213 17.748 23.3773 17.532 23.0293 17.28C22.6933 17.028 22.4413 16.77 22.2733 16.506C22.1053 16.23 22.0153 15.996 22.0033 15.804C21.9913 15.672 22.0333 15.564 22.1293 15.48C22.2253 15.384 22.3273 15.336 22.4353 15.336H24.4873C24.5233 15.336 24.5533 15.342 24.5773 15.354C24.6013 15.366 24.6373 15.39 24.6853 15.426C24.8413 15.51 24.9973 15.618 25.1533 15.75C25.3093 15.87 25.4893 15.978 25.6933 16.074C25.8973 16.17 26.1433 16.218 26.4313 16.218C26.7673 16.218 27.0493 16.152 27.2773 16.02C27.5053 15.888 27.6193 15.69 27.6193 15.426C27.6193 15.234 27.5653 15.078 27.4573 14.958C27.3493 14.826 27.1273 14.7 26.7913 14.58C26.4673 14.46 25.9753 14.34 25.3153 14.22C24.6913 14.076 24.1453 13.89 23.6773 13.662C23.2093 13.422 22.8493 13.116 22.5973 12.744C22.3453 12.36 22.2193 11.898 22.2193 11.358C22.2193 10.878 22.3753 10.416 22.6873 9.972C22.9993 9.528 23.4553 9.168 24.0553 8.892C24.6553 8.604 25.3933 8.46 26.2693 8.46C26.9653 8.46 27.5653 8.544 28.0693 8.712C28.5853 8.868 29.0173 9.072 29.3653 9.324C29.7253 9.576 29.9953 9.834 30.1753 10.098C30.3553 10.362 30.4513 10.602 30.4633 10.818C30.4753 10.938 30.4393 11.046 30.3553 11.142C30.2713 11.226 30.1753 11.268 30.0673 11.268H28.1953C28.1473 11.268 28.0993 11.262 28.0513 11.25C28.0033 11.226 27.9613 11.202 27.9253 11.178C27.7813 11.106 27.6373 11.01 27.4933 10.89C27.3493 10.77 27.1813 10.662 26.9893 10.566C26.7973 10.47 26.5573 10.422 26.2693 10.422C25.9453 10.422 25.6933 10.494 25.5133 10.638C25.3333 10.782 25.2433 10.968 25.2433 11.196C25.2433 11.352 25.2913 11.496 25.3873 11.628C25.4953 11.76 25.7053 11.88 26.0173 11.988C26.3413 12.096 26.8393 12.216 27.5113 12.348C28.3393 12.48 28.9993 12.696 29.4913 12.996C29.9833 13.284 30.3313 13.626 30.5353 14.022C30.7393 14.406 30.8413 14.814 30.8413 15.246C30.8413 15.822 30.6673 16.332 30.3193 16.776C29.9833 17.22 29.4793 17.568 28.8073 17.82C28.1353 18.06 27.3193 18.18 26.3593 18.18ZM36.7765 18.18C35.3605 18.18 34.2325 17.796 33.3925 17.028C32.5525 16.26 32.1145 15.12 32.0785 13.608C32.0785 13.524 32.0785 13.416 32.0785 13.284C32.0785 13.152 32.0785 13.05 32.0785 12.978C32.1145 12.03 32.3245 11.22 32.7085 10.548C33.1045 9.864 33.6445 9.348 34.3285 9C35.0245 8.64 35.8345 8.46 36.7585 8.46C37.8145 8.46 38.6845 8.67 39.3685 9.09C40.0645 9.51 40.5865 10.08 40.9345 10.8C41.2825 11.52 41.4565 12.342 41.4565 13.266V13.698C41.4565 13.83 41.4085 13.938 41.3125 14.022C41.2285 14.106 41.1265 14.148 41.0065 14.148H35.2465C35.2465 14.16 35.2465 14.178 35.2465 14.202C35.2465 14.226 35.2465 14.25 35.2465 14.274C35.2585 14.622 35.3185 14.94 35.4265 15.228C35.5345 15.516 35.7025 15.744 35.9305 15.912C36.1585 16.08 36.4345 16.164 36.7585 16.164C36.9985 16.164 37.1965 16.128 37.3525 16.056C37.5205 15.972 37.6585 15.882 37.7665 15.786C37.8745 15.678 37.9585 15.588 38.0185 15.516C38.1265 15.396 38.2105 15.324 38.2705 15.3C38.3425 15.264 38.4505 15.246 38.5945 15.246H40.8265C40.9465 15.246 41.0425 15.282 41.1145 15.354C41.1985 15.414 41.2345 15.504 41.2225 15.624C41.2105 15.828 41.1085 16.074 40.9165 16.362C40.7245 16.65 40.4425 16.938 40.0705 17.226C39.7105 17.502 39.2545 17.73 38.7025 17.91C38.1505 18.09 37.5085 18.18 36.7765 18.18ZM35.2465 12.366H38.2885V12.33C38.2885 11.946 38.2285 11.61 38.1085 11.322C38.0005 11.034 37.8265 10.812 37.5865 10.656C37.3585 10.5 37.0825 10.422 36.7585 10.422C36.4345 10.422 36.1585 10.5 35.9305 10.656C35.7145 10.812 35.5465 11.034 35.4265 11.322C35.3065 11.61 35.2465 11.946 35.2465 12.33V12.366ZM43.594 18C43.462 18 43.354 17.958 43.27 17.874C43.186 17.79 43.144 17.682 43.144 17.55V9.09C43.144 8.958 43.186 8.85 43.27 8.766C43.354 8.682 43.462 8.64 43.594 8.64H45.664C45.796 8.64 45.904 8.682 45.988 8.766C46.072 8.85 46.114 8.958 46.114 9.09V9.774C46.426 9.402 46.834 9.09 47.338 8.838C47.842 8.586 48.436 8.46 49.12 8.46C49.816 8.46 50.428 8.616 50.956 8.928C51.496 9.24 51.916 9.702 52.216 10.314C52.528 10.914 52.684 11.652 52.684 12.528V17.55C52.684 17.682 52.636 17.79 52.54 17.874C52.456 17.958 52.354 18 52.234 18H49.966C49.846 18 49.738 17.958 49.642 17.874C49.558 17.79 49.516 17.682 49.516 17.55V12.636C49.516 12.072 49.378 11.64 49.102 11.34C48.838 11.028 48.442 10.872 47.914 10.872C47.422 10.872 47.026 11.028 46.726 11.34C46.438 11.64 46.294 12.072 46.294 12.636V17.55C46.294 17.682 46.246 17.79 46.15 17.874C46.066 17.958 45.964 18 45.844 18H43.594ZM59.393 18C58.625 18 57.959 17.88 57.395 17.64C56.843 17.388 56.417 17.004 56.117 16.488C55.817 15.96 55.667 15.282 55.667 14.454V10.998H54.263C54.131 10.998 54.017 10.956 53.921 10.872C53.837 10.788 53.795 10.68 53.795 10.548V9.09C53.795 8.958 53.837 8.85 53.921 8.766C54.017 8.682 54.131 8.64 54.263 8.64H55.667V5.67C55.667 5.538 55.709 5.43 55.793 5.346C55.889 5.262 55.997 5.22 56.117 5.22H58.205C58.337 5.22 58.445 5.262 58.529 5.346C58.613 5.43 58.655 5.538 58.655 5.67V8.64H60.905C61.037 8.64 61.145 8.682 61.229 8.766C61.313 8.85 61.355 8.958 61.355 9.09V10.548C61.355 10.68 61.313 10.788 61.229 10.872C61.145 10.956 61.037 10.998 60.905 10.998H58.655V14.202C58.655 14.61 58.733 14.934 58.889 15.174C59.045 15.414 59.309 15.534 59.681 15.534H61.067C61.199 15.534 61.307 15.576 61.391 15.66C61.475 15.744 61.517 15.852 61.517 15.984V17.55C61.517 17.682 61.475 17.79 61.391 17.874C61.307 17.958 61.199 18 61.067 18H59.393ZM63.4573 18C63.3253 18 63.2173 17.958 63.1333 17.874C63.0493 17.79 63.0073 17.682 63.0073 17.55V9.09C63.0073 8.958 63.0493 8.85 63.1333 8.766C63.2173 8.682 63.3253 8.64 63.4573 8.64H65.5813C65.7013 8.64 65.8033 8.682 65.8873 8.766C65.9833 8.85 66.0313 8.958 66.0313 9.09V17.55C66.0313 17.682 65.9833 17.79 65.8873 17.874C65.8033 17.958 65.7013 18 65.5813 18H63.4573ZM63.4393 7.29C63.3073 7.29 63.1993 7.248 63.1153 7.164C63.0313 7.08 62.9893 6.972 62.9893 6.84V5.238C62.9893 5.106 63.0313 4.998 63.1153 4.914C63.1993 4.818 63.3073 4.77 63.4393 4.77H65.5813C65.7133 4.77 65.8213 4.818 65.9053 4.914C66.0013 4.998 66.0493 5.106 66.0493 5.238V6.84C66.0493 6.972 66.0013 7.08 65.9053 7.164C65.8213 7.248 65.7133 7.29 65.5813 7.29H63.4393ZM70.9481 18.18C70.3001 18.18 69.7181 18.06 69.2021 17.82C68.6981 17.568 68.2961 17.232 67.9961 16.812C67.6961 16.392 67.5461 15.918 67.5461 15.39C67.5461 14.538 67.8941 13.866 68.5901 13.374C69.2861 12.87 70.2101 12.528 71.3621 12.348L73.6121 12.006V11.754C73.6121 11.322 73.5221 10.992 73.3421 10.764C73.1621 10.536 72.8321 10.422 72.3521 10.422C72.0161 10.422 71.7401 10.488 71.5241 10.62C71.3201 10.752 71.1581 10.932 71.0381 11.16C70.9301 11.316 70.7801 11.394 70.5881 11.394H68.5721C68.4401 11.394 68.3381 11.358 68.2661 11.286C68.1941 11.202 68.1641 11.106 68.1761 10.998C68.1761 10.782 68.2541 10.536 68.4101 10.26C68.5781 9.972 68.8301 9.69 69.1661 9.414C69.5021 9.138 69.9341 8.91 70.4621 8.73C70.9901 8.55 71.6261 8.46 72.3701 8.46C73.1501 8.46 73.8161 8.55 74.3681 8.73C74.9201 8.91 75.3641 9.162 75.7001 9.486C76.0481 9.81 76.3061 10.194 76.4741 10.638C76.6421 11.07 76.7261 11.55 76.7261 12.078V17.55C76.7261 17.682 76.6781 17.79 76.5821 17.874C76.4981 17.958 76.3961 18 76.2761 18H74.1881C74.0561 18 73.9481 17.958 73.8641 17.874C73.7801 17.79 73.7381 17.682 73.7381 17.55V16.92C73.5821 17.148 73.3721 17.358 73.1081 17.55C72.8441 17.742 72.5321 17.892 72.1721 18C71.8241 18.12 71.4161 18.18 70.9481 18.18ZM71.7941 16.128C72.1421 16.128 72.4541 16.056 72.7301 15.912C73.0181 15.756 73.2401 15.522 73.3961 15.21C73.5641 14.886 73.6481 14.484 73.6481 14.004V13.752L72.1181 14.022C71.5541 14.118 71.1401 14.268 70.8761 14.472C70.6241 14.664 70.4981 14.892 70.4981 15.156C70.4981 15.36 70.5581 15.534 70.6781 15.678C70.7981 15.822 70.9541 15.936 71.1461 16.02C71.3381 16.092 71.5541 16.128 71.7941 16.128ZM79.2073 18C79.0753 18 78.9673 17.958 78.8833 17.874C78.7993 17.79 78.7573 17.682 78.7573 17.55V5.67C78.7573 5.538 78.7993 5.43 78.8833 5.346C78.9673 5.262 79.0753 5.22 79.2073 5.22H81.3313C81.4633 5.22 81.5713 5.262 81.6553 5.346C81.7393 5.43 81.7813 5.538 81.7813 5.67V17.55C81.7813 17.682 81.7393 17.79 81.6553 17.874C81.5713 17.958 81.4633 18 81.3313 18H79.2073Z" fill="url(#paint0_linear_4719_4051)"/>
<path d="M92.6357 18.18C91.4357 18.18 90.4397 18.012 89.6477 17.676C88.8557 17.328 88.2557 16.878 87.8477 16.326C87.4397 15.774 87.2237 15.186 87.1997 14.562C87.1997 14.466 87.2357 14.382 87.3077 14.31C87.3917 14.226 87.4877 14.184 87.5957 14.184H89.8637C90.0317 14.184 90.1577 14.214 90.2417 14.274C90.3377 14.334 90.4217 14.412 90.4937 14.508C90.5897 14.688 90.7217 14.862 90.8897 15.03C91.0697 15.198 91.2977 15.336 91.5737 15.444C91.8617 15.54 92.2157 15.588 92.6357 15.588C93.3317 15.588 93.8537 15.48 94.2017 15.264C94.5617 15.048 94.7417 14.754 94.7417 14.382C94.7417 14.118 94.6457 13.902 94.4537 13.734C94.2617 13.554 93.9497 13.398 93.5177 13.266C93.0977 13.122 92.5337 12.978 91.8257 12.834C90.9137 12.642 90.1337 12.396 89.4857 12.096C88.8497 11.784 88.3637 11.382 88.0277 10.89C87.6917 10.386 87.5237 9.762 87.5237 9.018C87.5237 8.286 87.7277 7.632 88.1357 7.056C88.5557 6.48 89.1377 6.03 89.8817 5.706C90.6257 5.382 91.5077 5.22 92.5277 5.22C93.3557 5.22 94.0817 5.328 94.7057 5.544C95.3417 5.76 95.8757 6.048 96.3077 6.408C96.7397 6.768 97.0637 7.152 97.2797 7.56C97.5077 7.956 97.6277 8.346 97.6397 8.73C97.6397 8.826 97.6037 8.916 97.5317 9C97.4597 9.072 97.3697 9.108 97.2617 9.108H94.8857C94.7537 9.108 94.6397 9.084 94.5437 9.036C94.4477 8.988 94.3637 8.91 94.2917 8.802C94.2197 8.538 94.0277 8.31 93.7157 8.118C93.4157 7.914 93.0197 7.812 92.5277 7.812C91.9997 7.812 91.5857 7.908 91.2857 8.1C90.9977 8.28 90.8537 8.562 90.8537 8.946C90.8537 9.186 90.9317 9.396 91.0877 9.576C91.2557 9.756 91.5257 9.912 91.8977 10.044C92.2817 10.176 92.8037 10.314 93.4637 10.458C94.5557 10.662 95.4377 10.92 96.1097 11.232C96.7817 11.532 97.2737 11.928 97.5857 12.42C97.8977 12.9 98.0537 13.506 98.0537 14.238C98.0537 15.054 97.8197 15.762 97.3517 16.362C96.8957 16.95 96.2597 17.4 95.4437 17.712C94.6277 18.024 93.6917 18.18 92.6357 18.18ZM104.446 18C103.678 18 103.012 17.88 102.448 17.64C101.896 17.388 101.47 17.004 101.17 16.488C100.87 15.96 100.72 15.282 100.72 14.454V10.998H99.3157C99.1837 10.998 99.0697 10.956 98.9737 10.872C98.8897 10.788 98.8477 10.68 98.8477 10.548V9.09C98.8477 8.958 98.8897 8.85 98.9737 8.766C99.0697 8.682 99.1837 8.64 99.3157 8.64H100.72V5.67C100.72 5.538 100.762 5.43 100.846 5.346C100.942 5.262 101.05 5.22 101.17 5.22H103.258C103.39 5.22 103.498 5.262 103.582 5.346C103.666 5.43 103.708 5.538 103.708 5.67V8.64H105.958C106.09 8.64 106.198 8.682 106.282 8.766C106.366 8.85 106.408 8.958 106.408 9.09V10.548C106.408 10.68 106.366 10.788 106.282 10.872C106.198 10.956 106.09 10.998 105.958 10.998H103.708V14.202C103.708 14.61 103.786 14.934 103.942 15.174C104.098 15.414 104.362 15.534 104.734 15.534H106.12C106.252 15.534 106.36 15.576 106.444 15.66C106.528 15.744 106.57 15.852 106.57 15.984V17.55C106.57 17.682 106.528 17.79 106.444 17.874C106.36 17.958 106.252 18 106.12 18H104.446ZM111.498 18.18C110.814 18.18 110.202 18.024 109.662 17.712C109.134 17.4 108.72 16.944 108.42 16.344C108.12 15.732 107.97 14.988 107.97 14.112V9.09C107.97 8.958 108.012 8.85 108.096 8.766C108.18 8.682 108.288 8.64 108.42 8.64H110.67C110.802 8.64 110.91 8.682 110.994 8.766C111.078 8.85 111.12 8.958 111.12 9.09V14.004C111.12 15.18 111.648 15.768 112.704 15.768C113.196 15.768 113.586 15.618 113.874 15.318C114.174 15.006 114.324 14.568 114.324 14.004V9.09C114.324 8.958 114.366 8.85 114.45 8.766C114.534 8.682 114.642 8.64 114.774 8.64H117.024C117.156 8.64 117.264 8.682 117.348 8.766C117.432 8.85 117.474 8.958 117.474 9.09V17.55C117.474 17.682 117.432 17.79 117.348 17.874C117.264 17.958 117.156 18 117.024 18H114.936C114.816 18 114.708 17.958 114.612 17.874C114.528 17.79 114.486 17.682 114.486 17.55V16.866C114.174 17.298 113.766 17.628 113.262 17.856C112.77 18.072 112.182 18.18 111.498 18.18ZM121.103 18C120.983 18 120.875 17.958 120.779 17.874C120.695 17.79 120.653 17.682 120.653 17.55V10.998H119.285C119.153 10.998 119.045 10.956 118.961 10.872C118.877 10.788 118.835 10.68 118.835 10.548V9.09C118.835 8.958 118.877 8.85 118.961 8.766C119.045 8.682 119.153 8.64 119.285 8.64H120.653V8.064C120.653 7.248 120.809 6.594 121.121 6.102C121.445 5.598 121.901 5.238 122.489 5.022C123.077 4.794 123.779 4.68 124.595 4.68H125.999C126.119 4.68 126.221 4.722 126.305 4.806C126.401 4.89 126.449 4.998 126.449 5.13V6.588C126.449 6.72 126.401 6.828 126.305 6.912C126.221 6.996 126.119 7.038 125.999 7.038H124.739C124.331 7.038 124.043 7.134 123.875 7.326C123.719 7.518 123.641 7.794 123.641 8.154V8.64H127.187V8.064C127.187 7.248 127.343 6.594 127.655 6.102C127.979 5.598 128.435 5.238 129.023 5.022C129.623 4.794 130.325 4.68 131.129 4.68H132.533C132.665 4.68 132.773 4.722 132.857 4.806C132.941 4.89 132.983 4.998 132.983 5.13V6.588C132.983 6.72 132.941 6.828 132.857 6.912C132.773 6.996 132.665 7.038 132.533 7.038H131.273C130.865 7.038 130.577 7.134 130.409 7.326C130.253 7.518 130.175 7.794 130.175 8.154V8.64H132.353C132.485 8.64 132.593 8.682 132.677 8.766C132.761 8.85 132.803 8.958 132.803 9.09V10.548C132.803 10.68 132.761 10.788 132.677 10.872C132.593 10.956 132.485 10.998 132.353 10.998H130.175V17.55C130.175 17.682 130.133 17.79 130.049 17.874C129.965 17.958 129.857 18 129.725 18H127.637C127.517 18 127.409 17.958 127.313 17.874C127.229 17.79 127.187 17.682 127.187 17.55V10.998H123.641V17.55C123.641 17.682 123.599 17.79 123.515 17.874C123.431 17.958 123.323 18 123.191 18H121.103Z" fill="black"/>
<defs>
<linearGradient id="paint0_linear_4719_4051" x1="-1.38115e-06" y1="1.61715e-05" x2="27.8613" y2="67.0825" gradientUnits="userSpaceOnUse">
<stop stop-color="#44009B"/>
<stop offset="1" stop-color="#2370CA"/>
</linearGradient>
</defs>
</svg>
