<svg width="88" height="28" viewBox="0 0 88 28" fill="none" xmlns="http://www.w3.org/2000/svg">
<path d="M5.80032 7.65636L3.42861 14.6021C3.41471 14.6428 3.37647 14.6702 3.33347 14.6702H1.72496C1.42086 14.6702 1.12924 14.791 0.914308 15.0062L0.859381 15.0611C0.402528 15.5184 0.448516 16.2723 0.957565 16.6706C1.14705 16.8189 1.38073 16.8995 1.62133 16.8995H4.46092C4.55988 16.8995 4.65774 16.8787 4.74817 16.8385C4.92229 16.7611 5.05783 16.6167 5.12407 16.4381L6.29537 13.2791C6.35733 13.112 6.60058 13.1349 6.63024 13.3107L7.94473 21.0995C8.00828 21.476 8.2492 21.799 8.59203 21.9672L8.69863 22.0195C9.03742 22.1857 9.44109 22.1458 9.74084 21.9166C9.92454 21.7761 10.0535 21.576 10.1057 21.3507L12.0069 13.1343C12.1305 12.6001 12.9048 12.643 12.9686 13.1875L14.5032 26.2768C14.548 26.6586 14.7759 26.9945 15.1141 27.1771L15.1472 27.195C15.4968 27.3838 15.9205 27.3721 16.2592 27.1642C16.5461 26.9882 16.7381 26.6917 16.7813 26.3578L17.9634 17.2327C17.9898 17.0292 18.1633 16.8771 18.3685 16.8776L26.75 16.8995H86.2371C86.5629 16.8995 86.8728 16.7583 87.0866 16.5125L87.267 16.3052C87.5418 15.9893 87.5344 15.5172 87.25 15.2101C86.9312 14.8658 86.4833 14.6702 86.0141 14.6702H26.75H17.0562C16.8339 14.6702 16.6181 14.7452 16.4437 14.8833C16.2648 15.0249 16.1405 15.2243 16.092 15.4473L15.8255 16.673C15.804 16.7721 15.6605 16.7653 15.6485 16.6646L14.0962 3.70108C14.0537 3.34619 13.8457 3.03238 13.5353 2.85505L13.5143 2.84303C13.1478 2.63361 12.6934 2.65443 12.3476 2.89649C12.1265 3.05127 11.9706 3.28253 11.9101 3.54557L9.53317 13.8783C9.47129 14.1473 9.08462 14.1367 9.03759 13.8647L7.98806 7.79493C7.92473 7.42869 7.68282 7.11821 7.34318 6.96725C7.03917 6.83214 6.69068 6.84006 6.39312 6.98884L6.37612 6.99733C6.10508 7.13286 5.89825 7.36959 5.80032 7.65636Z" fill="#FCEBF8" stroke="#EC5863"/>
<path d="M18.092 12.5C17.9967 12.5 17.9187 12.4697 17.858 12.409C17.7973 12.3483 17.767 12.2703 17.767 12.175V6.065C17.767 5.96967 17.7973 5.89167 17.858 5.831C17.9187 5.77033 17.9967 5.74 18.092 5.74H19.587C19.6823 5.74 19.7603 5.77033 19.821 5.831C19.8817 5.89167 19.912 5.96967 19.912 6.065V6.559C20.1373 6.29033 20.432 6.065 20.796 5.883C21.16 5.701 21.589 5.61 22.083 5.61C22.5857 5.61 23.0277 5.72267 23.409 5.948C23.799 6.17333 24.1023 6.507 24.319 6.949C24.5443 7.38233 24.657 7.91533 24.657 8.548V12.175C24.657 12.2703 24.6223 12.3483 24.553 12.409C24.4923 12.4697 24.4187 12.5 24.332 12.5H22.694C22.6073 12.5 22.5293 12.4697 22.46 12.409C22.3993 12.3483 22.369 12.2703 22.369 12.175V8.626C22.369 8.21867 22.2693 7.90667 22.07 7.69C21.8793 7.46467 21.5933 7.352 21.212 7.352C20.8567 7.352 20.5707 7.46467 20.354 7.69C20.146 7.90667 20.042 8.21867 20.042 8.626V12.175C20.042 12.2703 20.0073 12.3483 19.938 12.409C19.8773 12.4697 19.8037 12.5 19.717 12.5H18.092ZM29.2278 12.63C28.2052 12.63 27.3905 12.3527 26.7838 11.798C26.1772 11.2433 25.8608 10.42 25.8348 9.328C25.8348 9.26733 25.8348 9.18933 25.8348 9.094C25.8348 8.99867 25.8348 8.925 25.8348 8.873C25.8608 8.18833 26.0125 7.60333 26.2898 7.118C26.5758 6.624 26.9658 6.25133 27.4598 6C27.9625 5.74 28.5475 5.61 29.2148 5.61C29.9775 5.61 30.6058 5.76167 31.0998 6.065C31.6025 6.36833 31.9795 6.78 32.2308 7.3C32.4822 7.82 32.6078 8.41367 32.6078 9.081V9.393C32.6078 9.48833 32.5732 9.56633 32.5038 9.627C32.4432 9.68767 32.3695 9.718 32.2828 9.718H28.1228C28.1228 9.72667 28.1228 9.73967 28.1228 9.757C28.1228 9.77433 28.1228 9.79167 28.1228 9.809C28.1315 10.0603 28.1748 10.29 28.2528 10.498C28.3308 10.706 28.4522 10.8707 28.6168 10.992C28.7815 11.1133 28.9808 11.174 29.2148 11.174C29.3882 11.174 29.5312 11.148 29.6438 11.096C29.7652 11.0353 29.8648 10.9703 29.9428 10.901C30.0208 10.823 30.0815 10.758 30.1248 10.706C30.2028 10.6193 30.2635 10.5673 30.3068 10.55C30.3588 10.524 30.4368 10.511 30.5408 10.511H32.1528C32.2395 10.511 32.3088 10.537 32.3608 10.589C32.4215 10.6323 32.4475 10.6973 32.4388 10.784C32.4302 10.9313 32.3565 11.109 32.2178 11.317C32.0792 11.525 31.8755 11.733 31.6068 11.941C31.3468 12.1403 31.0175 12.305 30.6188 12.435C30.2202 12.565 29.7565 12.63 29.2278 12.63ZM28.1228 8.431H30.3198V8.405C30.3198 8.12767 30.2765 7.885 30.1898 7.677C30.1118 7.469 29.9862 7.30867 29.8128 7.196C29.6482 7.08333 29.4488 7.027 29.2148 7.027C28.9808 7.027 28.7815 7.08333 28.6168 7.196C28.4608 7.30867 28.3395 7.469 28.2528 7.677C28.1662 7.885 28.1228 8.12767 28.1228 8.405V8.431ZM34.1516 12.5C34.0562 12.5 33.9782 12.4697 33.9176 12.409C33.8569 12.3483 33.8266 12.2703 33.8266 12.175V6.065C33.8266 5.96967 33.8569 5.89167 33.9176 5.831C33.9782 5.77033 34.0562 5.74 34.1516 5.74H35.5686C35.6639 5.74 35.7419 5.77033 35.8026 5.831C35.8632 5.89167 35.8936 5.96967 35.8936 6.065V6.507C36.0669 6.273 36.3096 6.06933 36.6216 5.896C36.9336 5.714 37.3019 5.61867 37.7266 5.61C38.7232 5.59267 39.4079 5.96967 39.7806 6.741C39.9799 6.41167 40.2659 6.143 40.6386 5.935C41.0112 5.71833 41.4186 5.61 41.8606 5.61C42.3112 5.61 42.7142 5.714 43.0696 5.922C43.4336 6.12133 43.7239 6.43333 43.9406 6.858C44.1572 7.274 44.2656 7.81567 44.2656 8.483V12.175C44.2656 12.2703 44.2309 12.3483 44.1616 12.409C44.1009 12.4697 44.0272 12.5 43.9406 12.5H42.4326C42.3372 12.5 42.2549 12.4697 42.1856 12.409C42.1249 12.3483 42.0946 12.2703 42.0946 12.175V8.574C42.0946 8.27067 42.0512 8.03233 41.9646 7.859C41.8779 7.677 41.7609 7.547 41.6136 7.469C41.4662 7.391 41.2972 7.352 41.1066 7.352C40.9506 7.352 40.7946 7.391 40.6386 7.469C40.4912 7.547 40.3699 7.677 40.2746 7.859C40.1879 8.03233 40.1446 8.27067 40.1446 8.574V12.175C40.1446 12.2703 40.1142 12.3483 40.0536 12.409C39.9929 12.4697 39.9149 12.5 39.8196 12.5H38.3116C38.2162 12.5 38.1382 12.4697 38.0776 12.409C38.0169 12.3483 37.9866 12.2703 37.9866 12.175V8.574C37.9866 8.27067 37.9389 8.03233 37.8436 7.859C37.7482 7.677 37.6269 7.547 37.4796 7.469C37.3322 7.391 37.1676 7.352 36.9856 7.352C36.8296 7.352 36.6736 7.391 36.5176 7.469C36.3702 7.547 36.2489 7.677 36.1536 7.859C36.0669 8.03233 36.0236 8.26633 36.0236 8.561V12.175C36.0236 12.2703 35.9889 12.3483 35.9196 12.409C35.8589 12.4697 35.7809 12.5 35.6856 12.5H34.1516ZM48.9201 12.63C48.1921 12.63 47.5767 12.513 47.0741 12.279C46.5801 12.045 46.1987 11.7113 45.9301 11.278C45.6701 10.836 45.5227 10.3117 45.4881 9.705C45.4794 9.53167 45.4751 9.33667 45.4751 9.12C45.4751 8.89467 45.4794 8.69967 45.4881 8.535C45.5227 7.91967 45.6787 7.39533 45.9561 6.962C46.2334 6.52867 46.6191 6.195 47.1131 5.961C47.6157 5.727 48.2181 5.61 48.9201 5.61C49.6307 5.61 50.2331 5.727 50.7271 5.961C51.2297 6.195 51.6197 6.52867 51.8971 6.962C52.1744 7.39533 52.3304 7.91967 52.3651 8.535C52.3737 8.69967 52.3781 8.89467 52.3781 9.12C52.3781 9.33667 52.3737 9.53167 52.3651 9.705C52.3304 10.3117 52.1787 10.836 51.9101 11.278C51.6501 11.7113 51.2687 12.045 50.7661 12.279C50.2721 12.513 49.6567 12.63 48.9201 12.63ZM48.9201 11.044C49.3101 11.044 49.5917 10.927 49.7651 10.693C49.9471 10.459 50.0511 10.108 50.0771 9.64C50.0857 9.51 50.0901 9.33667 50.0901 9.12C50.0901 8.90333 50.0857 8.73 50.0771 8.6C50.0511 8.14067 49.9471 7.794 49.7651 7.56C49.5917 7.31733 49.3101 7.196 48.9201 7.196C48.5387 7.196 48.2571 7.31733 48.0751 7.56C47.8931 7.794 47.7934 8.14067 47.7761 8.6C47.7674 8.73 47.7631 8.90333 47.7631 9.12C47.7631 9.33667 47.7674 9.51 47.7761 9.64C47.7934 10.108 47.8931 10.459 48.0751 10.693C48.2571 10.927 48.5387 11.044 48.9201 11.044ZM53.9816 12.5C53.8863 12.5 53.8083 12.4697 53.7476 12.409C53.687 12.3483 53.6566 12.2703 53.6566 12.175V6.065C53.6566 5.96967 53.687 5.89167 53.7476 5.831C53.8083 5.77033 53.8863 5.74 53.9816 5.74H55.4766C55.572 5.74 55.65 5.77033 55.7106 5.831C55.7713 5.89167 55.8016 5.96967 55.8016 6.065V6.559C56.027 6.29033 56.3216 6.065 56.6856 5.883C57.0496 5.701 57.4786 5.61 57.9726 5.61C58.4753 5.61 58.9173 5.72267 59.2986 5.948C59.6886 6.17333 59.992 6.507 60.2086 6.949C60.434 7.38233 60.5466 7.91533 60.5466 8.548V12.175C60.5466 12.2703 60.512 12.3483 60.4426 12.409C60.382 12.4697 60.3083 12.5 60.2216 12.5H58.5836C58.497 12.5 58.419 12.4697 58.3496 12.409C58.289 12.3483 58.2586 12.2703 58.2586 12.175V8.626C58.2586 8.21867 58.159 7.90667 57.9596 7.69C57.769 7.46467 57.483 7.352 57.1016 7.352C56.7463 7.352 56.4603 7.46467 56.2436 7.69C56.0356 7.90667 55.9316 8.21867 55.9316 8.626V12.175C55.9316 12.2703 55.897 12.3483 55.8276 12.409C55.767 12.4697 55.6933 12.5 55.6066 12.5H53.9816ZM62.3225 12.5C62.2271 12.5 62.1491 12.4697 62.0885 12.409C62.0278 12.3483 61.9975 12.2703 61.9975 12.175V6.065C61.9975 5.96967 62.0278 5.89167 62.0885 5.831C62.1491 5.77033 62.2271 5.74 62.3225 5.74H63.8565C63.9431 5.74 64.0168 5.77033 64.0775 5.831C64.1468 5.89167 64.1815 5.96967 64.1815 6.065V12.175C64.1815 12.2703 64.1468 12.3483 64.0775 12.409C64.0168 12.4697 63.9431 12.5 63.8565 12.5H62.3225ZM62.3095 4.765C62.2141 4.765 62.1361 4.73467 62.0755 4.674C62.0148 4.61333 61.9845 4.53533 61.9845 4.44V3.283C61.9845 3.18767 62.0148 3.10967 62.0755 3.049C62.1361 2.97967 62.2141 2.945 62.3095 2.945H63.8565C63.9518 2.945 64.0298 2.97967 64.0905 3.049C64.1598 3.10967 64.1945 3.18767 64.1945 3.283V4.44C64.1945 4.53533 64.1598 4.61333 64.0905 4.674C64.0298 4.73467 63.9518 4.765 63.8565 4.765H62.3095ZM68.8115 12.63C68.1702 12.63 67.6025 12.513 67.1085 12.279C66.6145 12.045 66.2202 11.707 65.9255 11.265C65.6395 10.8143 65.4835 10.277 65.4575 9.653C65.4488 9.51433 65.4445 9.341 65.4445 9.133C65.4445 8.91633 65.4488 8.73867 65.4575 8.6C65.4835 7.96733 65.6395 7.43 65.9255 6.988C66.2115 6.53733 66.6015 6.195 67.0955 5.961C67.5982 5.727 68.1702 5.61 68.8115 5.61C69.4095 5.61 69.9208 5.69667 70.3455 5.87C70.7702 6.03467 71.1168 6.24267 71.3855 6.494C71.6542 6.74533 71.8535 7.00533 71.9835 7.274C72.1222 7.534 72.1958 7.76367 72.2045 7.963C72.2132 8.04967 72.1828 8.12767 72.1135 8.197C72.0442 8.25767 71.9662 8.288 71.8795 8.288H70.2285C70.1332 8.288 70.0595 8.26633 70.0075 8.223C69.9555 8.17967 69.9078 8.11467 69.8645 8.028C69.7605 7.75933 69.6262 7.56867 69.4615 7.456C69.3055 7.34333 69.1018 7.287 68.8505 7.287C68.5038 7.287 68.2352 7.39967 68.0445 7.625C67.8625 7.85033 67.7628 8.197 67.7455 8.665C67.7368 9.01167 67.7368 9.31933 67.7455 9.588C67.7628 10.0647 67.8625 10.4113 68.0445 10.628C68.2352 10.8447 68.5038 10.953 68.8505 10.953C69.1192 10.953 69.3315 10.8967 69.4875 10.784C69.6435 10.6713 69.7692 10.4807 69.8645 10.212C69.9078 10.1253 69.9555 10.0603 70.0075 10.017C70.0595 9.97367 70.1332 9.952 70.2285 9.952H71.8795C71.9662 9.952 72.0442 9.98667 72.1135 10.056C72.1828 10.1167 72.2132 10.1903 72.2045 10.277C72.1958 10.4243 72.1525 10.5977 72.0745 10.797C71.9965 10.9877 71.8752 11.1913 71.7105 11.408C71.5458 11.6247 71.3292 11.8283 71.0605 12.019C70.8005 12.201 70.4842 12.3483 70.1115 12.461C69.7388 12.5737 69.3055 12.63 68.8115 12.63ZM76.1545 12.63C75.5911 12.63 75.1101 12.5693 74.7115 12.448C74.3215 12.318 74.0008 12.162 73.7495 11.98C73.5068 11.798 73.3248 11.6117 73.2035 11.421C73.0821 11.2217 73.0171 11.0527 73.0085 10.914C72.9998 10.8187 73.0301 10.7407 73.0995 10.68C73.1688 10.6107 73.2425 10.576 73.3205 10.576H74.8025C74.8285 10.576 74.8501 10.5803 74.8675 10.589C74.8848 10.5977 74.9108 10.615 74.9455 10.641C75.0581 10.7017 75.1708 10.7797 75.2835 10.875C75.3961 10.9617 75.5261 11.0397 75.6735 11.109C75.8208 11.1783 75.9985 11.213 76.2065 11.213C76.4491 11.213 76.6528 11.1653 76.8175 11.07C76.9821 10.9747 77.0645 10.8317 77.0645 10.641C77.0645 10.5023 77.0255 10.3897 76.9475 10.303C76.8695 10.2077 76.7091 10.1167 76.4665 10.03C76.2325 9.94333 75.8771 9.85667 75.4005 9.77C74.9498 9.666 74.5555 9.53167 74.2175 9.367C73.8795 9.19367 73.6195 8.97267 73.4375 8.704C73.2555 8.42667 73.1645 8.093 73.1645 7.703C73.1645 7.35633 73.2771 7.02267 73.5025 6.702C73.7278 6.38133 74.0571 6.12133 74.4905 5.922C74.9238 5.714 75.4568 5.61 76.0895 5.61C76.5921 5.61 77.0255 5.67067 77.3895 5.792C77.7621 5.90467 78.0741 6.052 78.3255 6.234C78.5855 6.416 78.7805 6.60233 78.9105 6.793C79.0405 6.98367 79.1098 7.157 79.1185 7.313C79.1271 7.39967 79.1011 7.47767 79.0405 7.547C78.9798 7.60767 78.9105 7.638 78.8325 7.638H77.4805C77.4458 7.638 77.4111 7.63367 77.3765 7.625C77.3418 7.60767 77.3115 7.59033 77.2855 7.573C77.1815 7.521 77.0775 7.45167 76.9735 7.365C76.8695 7.27833 76.7481 7.20033 76.6095 7.131C76.4708 7.06167 76.2975 7.027 76.0895 7.027C75.8555 7.027 75.6735 7.079 75.5435 7.183C75.4135 7.287 75.3485 7.42133 75.3485 7.586C75.3485 7.69867 75.3831 7.80267 75.4525 7.898C75.5305 7.99333 75.6821 8.08 75.9075 8.158C76.1415 8.236 76.5011 8.32267 76.9865 8.418C77.5845 8.51333 78.0611 8.66933 78.4165 8.886C78.7718 9.094 79.0231 9.341 79.1705 9.627C79.3178 9.90433 79.3915 10.199 79.3915 10.511C79.3915 10.927 79.2658 11.2953 79.0145 11.616C78.7718 11.9367 78.4078 12.188 77.9225 12.37C77.4371 12.5433 76.8478 12.63 76.1545 12.63Z" fill="#EC5863"/>
</svg>
