<svg width="131" height="46" viewBox="0 0 131 46" fill="none" xmlns="http://www.w3.org/2000/svg">
<path opacity="0.45" d="M121.688 15.9375L118.496 11.5623C114.352 5.88097 105.856 5.94086 101.793 11.68L99.3411 15.1427C95.9613 19.9161 88.7125 19.3625 86.0968 14.1312V14.1312C83.3826 8.70271 75.7619 8.36574 72.5791 13.5335L70.1341 17.5034C66.8239 22.878 58.8707 22.4342 56.1791 16.7246V16.7246C53.5169 11.0775 45.6818 10.5644 42.3058 15.8159L40.9473 17.9292C37.5462 23.2198 29.6659 22.7496 26.918 17.0921V17.0921C24.1257 11.3434 16.0733 10.976 12.7692 16.4467L9 22.6875" stroke="url(#paint0_angular_5528_2640)" stroke-width="5" stroke-linecap="round" stroke-linejoin="round"/>
<g filter="url(#filter0_bddd_5528_2640)">
<path d="M16.333 22.2015C15.133 22.2015 14.137 22.0335 13.345 21.6975C12.553 21.3495 11.953 20.8995 11.545 20.3475C11.137 19.7955 10.921 19.2075 10.897 18.5835C10.897 18.4875 10.933 18.4035 11.005 18.3315C11.089 18.2475 11.185 18.2055 11.293 18.2055H13.561C13.729 18.2055 13.855 18.2355 13.939 18.2955C14.035 18.3555 14.119 18.4335 14.191 18.5295C14.287 18.7095 14.419 18.8835 14.587 19.0515C14.767 19.2195 14.995 19.3575 15.271 19.4655C15.559 19.5615 15.913 19.6095 16.333 19.6095C17.029 19.6095 17.551 19.5015 17.899 19.2855C18.259 19.0695 18.439 18.7755 18.439 18.4035C18.439 18.1395 18.343 17.9235 18.151 17.7555C17.959 17.5755 17.647 17.4195 17.215 17.2875C16.795 17.1435 16.231 16.9995 15.523 16.8555C14.611 16.6635 13.831 16.4175 13.183 16.1175C12.547 15.8055 12.061 15.4035 11.725 14.9115C11.389 14.4075 11.221 13.7835 11.221 13.0395C11.221 12.3075 11.425 11.6535 11.833 11.0775C12.253 10.5015 12.835 10.0515 13.579 9.72748C14.323 9.40348 15.205 9.24148 16.225 9.24148C17.053 9.24148 17.779 9.34948 18.403 9.56548C19.039 9.78148 19.573 10.0695 20.005 10.4295C20.437 10.7895 20.761 11.1735 20.977 11.5815C21.205 11.9775 21.325 12.3675 21.337 12.7515C21.337 12.8475 21.301 12.9375 21.229 13.0215C21.157 13.0935 21.067 13.1295 20.959 13.1295H18.583C18.451 13.1295 18.337 13.1055 18.241 13.0575C18.145 13.0095 18.061 12.9315 17.989 12.8235C17.917 12.5595 17.725 12.3315 17.413 12.1395C17.113 11.9355 16.717 11.8335 16.225 11.8335C15.697 11.8335 15.283 11.9295 14.983 12.1215C14.695 12.3015 14.551 12.5835 14.551 12.9675C14.551 13.2075 14.629 13.4175 14.785 13.5975C14.953 13.7775 15.223 13.9335 15.595 14.0655C15.979 14.1975 16.501 14.3355 17.161 14.4795C18.253 14.6835 19.135 14.9415 19.807 15.2535C20.479 15.5535 20.971 15.9495 21.283 16.4415C21.595 16.9215 21.751 17.5275 21.751 18.2595C21.751 19.0755 21.517 19.7835 21.049 20.3835C20.593 20.9715 19.957 21.4215 19.141 21.7335C18.325 22.0455 17.389 22.2015 16.333 22.2015ZM28.143 22.0215C27.375 22.0215 26.709 21.9015 26.145 21.6615C25.593 21.4095 25.167 21.0255 24.867 20.5095C24.567 19.9815 24.417 19.3035 24.417 18.4755V15.0195H23.013C22.881 15.0195 22.767 14.9775 22.671 14.8935C22.587 14.8095 22.545 14.7015 22.545 14.5695V13.1115C22.545 12.9795 22.587 12.8715 22.671 12.7875C22.767 12.7035 22.881 12.6615 23.013 12.6615H24.417V9.69148C24.417 9.55948 24.459 9.45148 24.543 9.36748C24.639 9.28348 24.747 9.24148 24.867 9.24148H26.955C27.087 9.24148 27.195 9.28348 27.279 9.36748C27.363 9.45148 27.405 9.55948 27.405 9.69148V12.6615H29.655C29.787 12.6615 29.895 12.7035 29.979 12.7875C30.063 12.8715 30.105 12.9795 30.105 13.1115V14.5695C30.105 14.7015 30.063 14.8095 29.979 14.8935C29.895 14.9775 29.787 15.0195 29.655 15.0195H27.405V18.2235C27.405 18.6315 27.483 18.9555 27.639 19.1955C27.795 19.4355 28.059 19.5555 28.431 19.5555H29.817C29.949 19.5555 30.057 19.5975 30.141 19.6815C30.225 19.7655 30.267 19.8735 30.267 20.0055V21.5715C30.267 21.7035 30.225 21.8115 30.141 21.8955C30.057 21.9795 29.949 22.0215 29.817 22.0215H28.143ZM35.1953 22.2015C34.5113 22.2015 33.8993 22.0455 33.3593 21.7335C32.8313 21.4215 32.4173 20.9655 32.1173 20.3655C31.8173 19.7535 31.6673 19.0095 31.6673 18.1335V13.1115C31.6673 12.9795 31.7093 12.8715 31.7933 12.7875C31.8773 12.7035 31.9853 12.6615 32.1173 12.6615H34.3673C34.4993 12.6615 34.6073 12.7035 34.6913 12.7875C34.7753 12.8715 34.8173 12.9795 34.8173 13.1115V18.0255C34.8173 19.2015 35.3453 19.7895 36.4013 19.7895C36.8933 19.7895 37.2833 19.6395 37.5713 19.3395C37.8713 19.0275 38.0213 18.5895 38.0213 18.0255V13.1115C38.0213 12.9795 38.0633 12.8715 38.1473 12.7875C38.2313 12.7035 38.3393 12.6615 38.4713 12.6615H40.7213C40.8533 12.6615 40.9613 12.7035 41.0453 12.7875C41.1293 12.8715 41.1713 12.9795 41.1713 13.1115V21.5715C41.1713 21.7035 41.1293 21.8115 41.0453 21.8955C40.9613 21.9795 40.8533 22.0215 40.7213 22.0215H38.6333C38.5133 22.0215 38.4053 21.9795 38.3093 21.8955C38.2253 21.8115 38.1833 21.7035 38.1833 21.5715V20.8875C37.8713 21.3195 37.4633 21.6495 36.9593 21.8775C36.4673 22.0935 35.8793 22.2015 35.1953 22.2015ZM46.7806 22.2015C46.2046 22.2015 45.6826 22.1115 45.2146 21.9315C44.7586 21.7395 44.3626 21.4635 44.0266 21.1035C43.7026 20.7315 43.4506 20.2875 43.2706 19.7715C43.0906 19.2435 42.9886 18.6435 42.9646 17.9715C42.9526 17.7315 42.9466 17.5215 42.9466 17.3415C42.9466 17.1495 42.9526 16.9395 42.9646 16.7115C42.9886 16.0635 43.0906 15.4815 43.2706 14.9655C43.4506 14.4495 43.7026 14.0055 44.0266 13.6335C44.3506 13.2615 44.7466 12.9795 45.2146 12.7875C45.6826 12.5835 46.2046 12.4815 46.7806 12.4815C47.3806 12.4815 47.8966 12.5835 48.3286 12.7875C48.7606 12.9795 49.1266 13.2315 49.4266 13.5435V9.69148C49.4266 9.55948 49.4686 9.45148 49.5526 9.36748C49.6366 9.28348 49.7446 9.24148 49.8766 9.24148H52.0726C52.1926 9.24148 52.2946 9.28348 52.3786 9.36748C52.4746 9.45148 52.5226 9.55948 52.5226 9.69148V21.5715C52.5226 21.7035 52.4746 21.8115 52.3786 21.8955C52.2946 21.9795 52.1926 22.0215 52.0726 22.0215H50.0386C49.9066 22.0215 49.7986 21.9795 49.7146 21.8955C49.6306 21.8115 49.5886 21.7035 49.5886 21.5715V20.9955C49.3006 21.3435 48.9286 21.6315 48.4726 21.8595C48.0166 22.0875 47.4526 22.2015 46.7806 22.2015ZM47.7526 19.7895C48.1606 19.7895 48.4786 19.7055 48.7066 19.5375C48.9466 19.3575 49.1206 19.1295 49.2286 18.8535C49.3486 18.5775 49.4146 18.2775 49.4266 17.9535C49.4386 17.7135 49.4446 17.4855 49.4446 17.2695C49.4446 17.0535 49.4386 16.8315 49.4266 16.6035C49.4146 16.3035 49.3486 16.0275 49.2286 15.7755C49.1086 15.5115 48.9286 15.3015 48.6886 15.1455C48.4486 14.9775 48.1366 14.8935 47.7526 14.8935C47.3566 14.8935 47.0386 14.9775 46.7986 15.1455C46.5706 15.3135 46.4086 15.5415 46.3126 15.8295C46.2166 16.1175 46.1566 16.4355 46.1326 16.7835C46.0966 17.1555 46.0966 17.5275 46.1326 17.8995C46.1566 18.2475 46.2166 18.5655 46.3126 18.8535C46.4086 19.1415 46.5706 19.3695 46.7986 19.5375C47.0386 19.7055 47.3566 19.7895 47.7526 19.7895ZM56.39 25.4415C56.282 25.4415 56.192 25.4055 56.12 25.3335C56.048 25.2615 56.012 25.1715 56.012 25.0635C56.012 25.0395 56.012 25.0035 56.012 24.9555C56.024 24.9195 56.042 24.8775 56.066 24.8295L57.47 21.4455L54.014 13.2735C53.978 13.1895 53.96 13.1175 53.96 13.0575C53.984 12.9495 54.032 12.8595 54.104 12.7875C54.176 12.7035 54.266 12.6615 54.374 12.6615H56.426C56.582 12.6615 56.696 12.7035 56.768 12.7875C56.852 12.8595 56.906 12.9435 56.93 13.0395L59 18.2775L61.106 13.0395C61.154 12.9435 61.214 12.8595 61.286 12.7875C61.37 12.7035 61.49 12.6615 61.646 12.6615H63.662C63.77 12.6615 63.86 12.7035 63.932 12.7875C64.016 12.8595 64.058 12.9435 64.058 13.0395C64.058 13.0995 64.04 13.1775 64.004 13.2735L58.91 25.0635C58.874 25.1595 58.814 25.2435 58.73 25.3155C58.646 25.3995 58.526 25.4415 58.37 25.4415H56.39ZM69.4073 22.0215C69.2753 22.0215 69.1673 21.9795 69.0833 21.8955C68.9993 21.8115 68.9573 21.7035 68.9573 21.5715V9.87148C68.9573 9.73948 68.9993 9.63148 69.0833 9.54748C69.1673 9.46348 69.2753 9.42148 69.4073 9.42148H71.3153C71.5193 9.42148 71.6633 9.46948 71.7473 9.56548C71.8433 9.64948 71.9033 9.71548 71.9273 9.76348L76.3193 16.6935V9.87148C76.3193 9.73948 76.3613 9.63148 76.4453 9.54748C76.5293 9.46348 76.6373 9.42148 76.7693 9.42148H78.9293C79.0613 9.42148 79.1693 9.46348 79.2533 9.54748C79.3373 9.63148 79.3793 9.73948 79.3793 9.87148V21.5715C79.3793 21.6915 79.3373 21.7995 79.2533 21.8955C79.1693 21.9795 79.0613 22.0215 78.9293 22.0215H77.0033C76.8113 22.0215 76.6673 21.9735 76.5713 21.8775C76.4873 21.7815 76.4333 21.7155 76.4093 21.6795L72.0173 15.0195V21.5715C72.0173 21.7035 71.9753 21.8115 71.8913 21.8955C71.8073 21.9795 71.6993 22.0215 71.5673 22.0215H69.4073ZM86.1248 22.2015C85.1168 22.2015 84.2648 22.0395 83.5688 21.7155C82.8848 21.3915 82.3568 20.9295 81.9848 20.3295C81.6248 19.7175 81.4208 18.9915 81.3728 18.1515C81.3608 17.9115 81.3548 17.6415 81.3548 17.3415C81.3548 17.0295 81.3608 16.7595 81.3728 16.5315C81.4208 15.6795 81.6368 14.9535 82.0208 14.3535C82.4048 13.7535 82.9388 13.2915 83.6228 12.9675C84.3188 12.6435 85.1528 12.4815 86.1248 12.4815C87.1088 12.4815 87.9428 12.6435 88.6268 12.9675C89.3228 13.2915 89.8628 13.7535 90.2468 14.3535C90.6308 14.9535 90.8468 15.6795 90.8948 16.5315C90.9068 16.7595 90.9128 17.0295 90.9128 17.3415C90.9128 17.6415 90.9068 17.9115 90.8948 18.1515C90.8468 18.9915 90.6368 19.7175 90.2648 20.3295C89.9048 20.9295 89.3768 21.3915 88.6808 21.7155C87.9968 22.0395 87.1448 22.2015 86.1248 22.2015ZM86.1248 20.0055C86.6648 20.0055 87.0548 19.8435 87.2948 19.5195C87.5468 19.1955 87.6908 18.7095 87.7268 18.0615C87.7388 17.8815 87.7448 17.6415 87.7448 17.3415C87.7448 17.0415 87.7388 16.8015 87.7268 16.6215C87.6908 15.9855 87.5468 15.5055 87.2948 15.1815C87.0548 14.8455 86.6648 14.6775 86.1248 14.6775C85.5968 14.6775 85.2068 14.8455 84.9548 15.1815C84.7028 15.5055 84.5648 15.9855 84.5408 16.6215C84.5288 16.8015 84.5228 17.0415 84.5228 17.3415C84.5228 17.6415 84.5288 17.8815 84.5408 18.0615C84.5648 18.7095 84.7028 19.1955 84.9548 19.5195C85.2068 19.8435 85.5968 20.0055 86.1248 20.0055ZM97.4359 22.0215C96.6679 22.0215 96.0019 21.9015 95.4379 21.6615C94.8859 21.4095 94.4599 21.0255 94.1599 20.5095C93.8599 19.9815 93.7099 19.3035 93.7099 18.4755V15.0195H92.3059C92.1739 15.0195 92.0599 14.9775 91.9639 14.8935C91.8799 14.8095 91.8379 14.7015 91.8379 14.5695V13.1115C91.8379 12.9795 91.8799 12.8715 91.9639 12.7875C92.0599 12.7035 92.1739 12.6615 92.3059 12.6615H93.7099V9.69148C93.7099 9.55948 93.7519 9.45148 93.8359 9.36748C93.9319 9.28348 94.0399 9.24148 94.1599 9.24148H96.2479C96.3799 9.24148 96.4879 9.28348 96.5719 9.36748C96.6559 9.45148 96.6979 9.55948 96.6979 9.69148V12.6615H98.9479C99.0799 12.6615 99.1879 12.7035 99.2719 12.7875C99.3559 12.8715 99.3979 12.9795 99.3979 13.1115V14.5695C99.3979 14.7015 99.3559 14.8095 99.2719 14.8935C99.1879 14.9775 99.0799 15.0195 98.9479 15.0195H96.6979V18.2235C96.6979 18.6315 96.7759 18.9555 96.9319 19.1955C97.0879 19.4355 97.3519 19.5555 97.7239 19.5555H99.1099C99.2419 19.5555 99.3499 19.5975 99.4339 19.6815C99.5179 19.7655 99.5599 19.8735 99.5599 20.0055V21.5715C99.5599 21.7035 99.5179 21.8115 99.4339 21.8955C99.3499 21.9795 99.2419 22.0215 99.1099 22.0215H97.4359ZM105.37 22.2015C103.954 22.2015 102.826 21.8175 101.986 21.0495C101.146 20.2815 100.708 19.1415 100.672 17.6295C100.672 17.5455 100.672 17.4375 100.672 17.3055C100.672 17.1735 100.672 17.0715 100.672 16.9995C100.708 16.0515 100.918 15.2415 101.302 14.5695C101.698 13.8855 102.238 13.3695 102.922 13.0215C103.618 12.6615 104.428 12.4815 105.352 12.4815C106.408 12.4815 107.278 12.6915 107.962 13.1115C108.658 13.5315 109.18 14.1015 109.528 14.8215C109.876 15.5415 110.05 16.3635 110.05 17.2875V17.7195C110.05 17.8515 110.002 17.9595 109.906 18.0435C109.822 18.1275 109.72 18.1695 109.6 18.1695H103.84C103.84 18.1815 103.84 18.1995 103.84 18.2235C103.84 18.2475 103.84 18.2715 103.84 18.2955C103.852 18.6435 103.912 18.9615 104.02 19.2495C104.128 19.5375 104.296 19.7655 104.524 19.9335C104.752 20.1015 105.028 20.1855 105.352 20.1855C105.592 20.1855 105.79 20.1495 105.946 20.0775C106.114 19.9935 106.252 19.9035 106.36 19.8075C106.468 19.6995 106.552 19.6095 106.612 19.5375C106.72 19.4175 106.804 19.3455 106.864 19.3215C106.936 19.2855 107.044 19.2675 107.188 19.2675H109.42C109.54 19.2675 109.636 19.3035 109.708 19.3755C109.792 19.4355 109.828 19.5255 109.816 19.6455C109.804 19.8495 109.702 20.0955 109.51 20.3835C109.318 20.6715 109.036 20.9595 108.664 21.2475C108.304 21.5235 107.848 21.7515 107.296 21.9315C106.744 22.1115 106.102 22.2015 105.37 22.2015ZM103.84 16.3875H106.882V16.3515C106.882 15.9675 106.822 15.6315 106.702 15.3435C106.594 15.0555 106.42 14.8335 106.18 14.6775C105.952 14.5215 105.676 14.4435 105.352 14.4435C105.028 14.4435 104.752 14.5215 104.524 14.6775C104.308 14.8335 104.14 15.0555 104.02 15.3435C103.9 15.6315 103.84 15.9675 103.84 16.3515V16.3875ZM115.59 22.2015C114.81 22.2015 114.144 22.1175 113.592 21.9495C113.052 21.7695 112.608 21.5535 112.26 21.3015C111.924 21.0495 111.672 20.7915 111.504 20.5275C111.336 20.2515 111.246 20.0175 111.234 19.8255C111.222 19.6935 111.264 19.5855 111.36 19.5015C111.456 19.4055 111.558 19.3575 111.666 19.3575H113.718C113.754 19.3575 113.784 19.3635 113.808 19.3755C113.832 19.3875 113.868 19.4115 113.916 19.4475C114.072 19.5315 114.228 19.6395 114.384 19.7715C114.54 19.8915 114.72 19.9995 114.924 20.0955C115.128 20.1915 115.374 20.2395 115.662 20.2395C115.998 20.2395 116.28 20.1735 116.508 20.0415C116.736 19.9095 116.85 19.7115 116.85 19.4475C116.85 19.2555 116.796 19.0995 116.688 18.9795C116.58 18.8475 116.358 18.7215 116.022 18.6015C115.698 18.4815 115.206 18.3615 114.546 18.2415C113.922 18.0975 113.376 17.9115 112.908 17.6835C112.44 17.4435 112.08 17.1375 111.828 16.7655C111.576 16.3815 111.45 15.9195 111.45 15.3795C111.45 14.8995 111.606 14.4375 111.918 13.9935C112.23 13.5495 112.686 13.1895 113.286 12.9135C113.886 12.6255 114.624 12.4815 115.5 12.4815C116.196 12.4815 116.796 12.5655 117.3 12.7335C117.816 12.8895 118.248 13.0935 118.596 13.3455C118.956 13.5975 119.226 13.8555 119.406 14.1195C119.586 14.3835 119.682 14.6235 119.694 14.8395C119.706 14.9595 119.67 15.0675 119.586 15.1635C119.502 15.2475 119.406 15.2895 119.298 15.2895H117.426C117.378 15.2895 117.33 15.2835 117.282 15.2715C117.234 15.2475 117.192 15.2235 117.156 15.1995C117.012 15.1275 116.868 15.0315 116.724 14.9115C116.58 14.7915 116.412 14.6835 116.22 14.5875C116.028 14.4915 115.788 14.4435 115.5 14.4435C115.176 14.4435 114.924 14.5155 114.744 14.6595C114.564 14.8035 114.474 14.9895 114.474 15.2175C114.474 15.3735 114.522 15.5175 114.618 15.6495C114.726 15.7815 114.936 15.9015 115.248 16.0095C115.572 16.1175 116.07 16.2375 116.742 16.3695C117.57 16.5015 118.23 16.7175 118.722 17.0175C119.214 17.3055 119.562 17.6475 119.766 18.0435C119.97 18.4275 120.072 18.8355 120.072 19.2675C120.072 19.8435 119.898 20.3535 119.55 20.7975C119.214 21.2415 118.71 21.5895 118.038 21.8415C117.366 22.0815 116.55 22.2015 115.59 22.2015Z" fill="black"/>
</g>
<defs>
<filter id="filter0_bddd_5528_2640" x="-9.10303" y="-10.7585" width="149.175" height="56.2" filterUnits="userSpaceOnUse" color-interpolation-filters="sRGB">
<feFlood flood-opacity="0" result="BackgroundImageFix"/>
<feGaussianBlur in="BackgroundImageFix" stdDeviation="10"/>
<feComposite in2="SourceAlpha" operator="in" result="effect1_backgroundBlur_5528_2640"/>
<feColorMatrix in="SourceAlpha" type="matrix" values="0 0 0 0 0 0 0 0 0 0 0 0 0 0 0 0 0 0 127 0" result="hardAlpha"/>
<feOffset dy="10"/>
<feGaussianBlur stdDeviation="5"/>
<feComposite in2="hardAlpha" operator="out"/>
<feColorMatrix type="matrix" values="0 0 0 0 0 0 0 0 0 0 0 0 0 0 0 0 0 0 0.1 0"/>
<feBlend mode="normal" in2="effect1_backgroundBlur_5528_2640" result="effect2_dropShadow_5528_2640"/>
<feColorMatrix in="SourceAlpha" type="matrix" values="0 0 0 0 0 0 0 0 0 0 0 0 0 0 0 0 0 0 127 0" result="hardAlpha"/>
<feOffset dy="4"/>
<feGaussianBlur stdDeviation="2"/>
<feComposite in2="hardAlpha" operator="out"/>
<feColorMatrix type="matrix" values="0 0 0 0 0 0 0 0 0 0 0 0 0 0 0 0 0 0 0.05 0"/>
<feBlend mode="normal" in2="effect2_dropShadow_5528_2640" result="effect3_dropShadow_5528_2640"/>
<feColorMatrix in="SourceAlpha" type="matrix" values="0 0 0 0 0 0 0 0 0 0 0 0 0 0 0 0 0 0 127 0" result="hardAlpha"/>
<feOffset dy="1"/>
<feComposite in2="hardAlpha" operator="out"/>
<feColorMatrix type="matrix" values="0 0 0 0 0 0 0 0 0 0 0 0 0 0 0 0 0 0 0.05 0"/>
<feBlend mode="normal" in2="effect3_dropShadow_5528_2640" result="effect4_dropShadow_5528_2640"/>
<feBlend mode="normal" in="SourceGraphic" in2="effect4_dropShadow_5528_2640" result="shape"/>
</filter>
<radialGradient id="paint0_angular_5528_2640" cx="0" cy="0" r="1" gradientUnits="userSpaceOnUse" gradientTransform="translate(65.3437 15) rotate(174.583) scale(40.6295 14.4173)">
<stop stop-color="#5096FF"/>
<stop offset="0.270833" stop-color="#9548F6"/>
<stop offset="0.645833" stop-color="#64DFF0"/>
<stop offset="0.859375" stop-color="#4340EB"/>
</radialGradient>
</defs>
</svg>
