<svg width="83" height="12" viewBox="0 0 83 12" fill="none" xmlns="http://www.w3.org/2000/svg">
<g style="mix-blend-mode:hard-light">
<path d="M3.072 9C2.992 9 2.924 8.972 2.868 8.916C2.812 8.86 2.784 8.792 2.784 8.712V2.076H0.564C0.484 2.076 0.416 2.048 0.36 1.992C0.304 1.936 0.276 1.868 0.276 1.788V0.9C0.276 0.812 0.304 0.74 0.36 0.684C0.416 0.628 0.484 0.599999 0.564 0.599999H6.684C6.772 0.599999 6.844 0.628 6.9 0.684C6.956 0.74 6.984 0.812 6.984 0.9V1.788C6.984 1.868 6.956 1.936 6.9 1.992C6.844 2.048 6.772 2.076 6.684 2.076H4.476V8.712C4.476 8.792 4.448 8.86 4.392 8.916C4.336 8.972 4.264 9 4.176 9H3.072ZM9.71606 9.12C9.07606 9.12 8.53606 9.008 8.09606 8.784C7.66406 8.56 7.33206 8.244 7.10006 7.836C6.87606 7.428 6.74806 6.952 6.71606 6.408C6.70806 6.264 6.70406 6.088 6.70406 5.88C6.70406 5.672 6.70806 5.496 6.71606 5.352C6.74806 4.8 6.88006 4.324 7.11206 3.924C7.35206 3.516 7.68806 3.2 8.12006 2.976C8.56006 2.752 9.09206 2.64 9.71606 2.64C10.3401 2.64 10.8681 2.752 11.3001 2.976C11.7401 3.2 12.0761 3.516 12.3081 3.924C12.5481 4.324 12.6841 4.8 12.7161 5.352C12.7241 5.496 12.7281 5.672 12.7281 5.88C12.7281 6.088 12.7241 6.264 12.7161 6.408C12.6841 6.952 12.5521 7.428 12.3201 7.836C12.0961 8.244 11.7641 8.56 11.3241 8.784C10.8921 9.008 10.3561 9.12 9.71606 9.12ZM9.71606 7.932C10.1401 7.932 10.4681 7.8 10.7001 7.536C10.9321 7.264 11.0601 6.868 11.0841 6.348C11.0921 6.228 11.0961 6.072 11.0961 5.88C11.0961 5.688 11.0921 5.532 11.0841 5.412C11.0601 4.9 10.9321 4.508 10.7001 4.236C10.4681 3.964 10.1401 3.828 9.71606 3.828C9.29206 3.828 8.96406 3.964 8.73206 4.236C8.50006 4.508 8.37206 4.9 8.34806 5.412C8.34006 5.532 8.33606 5.688 8.33606 5.88C8.33606 6.072 8.34006 6.228 8.34806 6.348C8.37206 6.868 8.50006 7.264 8.73206 7.536C8.96406 7.8 9.29206 7.932 9.71606 7.932ZM14.3576 11.28C14.2776 11.28 14.2096 11.252 14.1536 11.196C14.0976 11.14 14.0696 11.072 14.0696 10.992V3.048C14.0696 2.968 14.0976 2.9 14.1536 2.844C14.2096 2.788 14.2776 2.76 14.3576 2.76H15.3056C15.3936 2.76 15.4616 2.788 15.5096 2.844C15.5656 2.9 15.5936 2.968 15.5936 3.048V3.528C15.7856 3.272 16.0376 3.06 16.3496 2.892C16.6616 2.724 17.0496 2.64 17.5136 2.64C17.9376 2.64 18.3056 2.708 18.6176 2.844C18.9296 2.98 19.1896 3.176 19.3976 3.432C19.6056 3.68 19.7656 3.976 19.8776 4.32C19.9896 4.664 20.0536 5.044 20.0696 5.46C20.0776 5.596 20.0816 5.736 20.0816 5.88C20.0816 6.024 20.0776 6.168 20.0696 6.312C20.0616 6.712 20.0016 7.084 19.8896 7.428C19.7776 7.764 19.6136 8.06 19.3976 8.316C19.1896 8.564 18.9296 8.76 18.6176 8.904C18.3056 9.048 17.9376 9.12 17.5136 9.12C17.0816 9.12 16.7136 9.044 16.4096 8.892C16.1056 8.732 15.8576 8.524 15.6656 8.268V10.992C15.6656 11.072 15.6376 11.14 15.5816 11.196C15.5336 11.252 15.4656 11.28 15.3776 11.28H14.3576ZM17.0696 7.836C17.4136 7.836 17.6816 7.764 17.8736 7.62C18.0656 7.468 18.2016 7.272 18.2816 7.032C18.3696 6.792 18.4216 6.528 18.4376 6.24C18.4536 6 18.4536 5.76 18.4376 5.52C18.4216 5.232 18.3696 4.968 18.2816 4.728C18.2016 4.488 18.0656 4.296 17.8736 4.152C17.6816 4 17.4136 3.924 17.0696 3.924C16.7416 3.924 16.4736 4 16.2656 4.152C16.0656 4.304 15.9176 4.5 15.8216 4.74C15.7336 4.972 15.6816 5.212 15.6656 5.46C15.6576 5.604 15.6536 5.756 15.6536 5.916C15.6536 6.076 15.6576 6.232 15.6656 6.384C15.6736 6.624 15.7296 6.856 15.8336 7.08C15.9376 7.296 16.0896 7.476 16.2896 7.62C16.4896 7.764 16.7496 7.836 17.0696 7.836ZM21.7167 9C21.6367 9 21.5687 8.972 21.5127 8.916C21.4567 8.86 21.4287 8.792 21.4287 8.712V3.048C21.4287 2.968 21.4567 2.9 21.5127 2.844C21.5687 2.788 21.6367 2.76 21.7167 2.76H22.7127C22.8007 2.76 22.8687 2.788 22.9167 2.844C22.9727 2.9 23.0007 2.968 23.0007 3.048V8.712C23.0007 8.792 22.9727 8.86 22.9167 8.916C22.8687 8.972 22.8007 9 22.7127 9H21.7167ZM21.6687 1.728C21.5807 1.728 21.5087 1.704 21.4527 1.656C21.4047 1.6 21.3807 1.528 21.3807 1.44V0.576C21.3807 0.496 21.4047 0.428 21.4527 0.372C21.5087 0.316 21.5807 0.288 21.6687 0.288H22.7607C22.8487 0.288 22.9207 0.316 22.9767 0.372C23.0327 0.428 23.0607 0.496 23.0607 0.576V1.44C23.0607 1.528 23.0327 1.6 22.9767 1.656C22.9207 1.704 22.8487 1.728 22.7607 1.728H21.6687ZM27.2928 9.12C26.7168 9.12 26.2088 9.012 25.7688 8.796C25.3368 8.58 24.9968 8.268 24.7488 7.86C24.5088 7.444 24.3768 6.944 24.3528 6.36C24.3448 6.24 24.3408 6.084 24.3408 5.892C24.3408 5.692 24.3448 5.528 24.3528 5.4C24.3768 4.816 24.5088 4.32 24.7488 3.912C24.9968 3.496 25.3368 3.18 25.7688 2.964C26.2088 2.748 26.7168 2.64 27.2928 2.64C27.8048 2.64 28.2408 2.712 28.6008 2.856C28.9608 3 29.2568 3.18 29.4888 3.396C29.7208 3.612 29.8928 3.84 30.0048 4.08C30.1248 4.312 30.1888 4.524 30.1968 4.716C30.2048 4.804 30.1768 4.876 30.1128 4.932C30.0568 4.98 29.9888 5.004 29.9088 5.004H28.8528C28.7728 5.004 28.7088 4.984 28.6608 4.944C28.6208 4.904 28.5808 4.844 28.5408 4.764C28.4208 4.444 28.2608 4.22 28.0608 4.092C27.8688 3.956 27.6208 3.888 27.3168 3.888C26.9168 3.888 26.5968 4.016 26.3568 4.272C26.1248 4.52 26.0008 4.916 25.9848 5.46C25.9688 5.764 25.9688 6.044 25.9848 6.3C26.0008 6.852 26.1248 7.252 26.3568 7.5C26.5968 7.748 26.9168 7.872 27.3168 7.872C27.6288 7.872 27.8808 7.808 28.0728 7.68C28.2648 7.544 28.4208 7.316 28.5408 6.996C28.5808 6.916 28.6208 6.856 28.6608 6.816C28.7088 6.776 28.7728 6.756 28.8528 6.756H29.9088C29.9888 6.756 30.0568 6.784 30.1128 6.84C30.1768 6.888 30.2048 6.956 30.1968 7.044C30.1888 7.188 30.1488 7.352 30.0768 7.536C30.0128 7.712 29.9048 7.896 29.7528 8.088C29.6088 8.272 29.4248 8.444 29.2008 8.604C28.9768 8.756 28.7048 8.88 28.3848 8.976C28.0728 9.072 27.7088 9.12 27.2928 9.12ZM33.2603 9.12C32.8443 9.12 32.4683 9.04 32.1323 8.88C31.7963 8.712 31.5283 8.492 31.3283 8.22C31.1363 7.94 31.0403 7.628 31.0403 7.284C31.0403 6.724 31.2643 6.28 31.7123 5.952C32.1683 5.616 32.7683 5.392 33.5123 5.28L35.1563 5.04V4.788C35.1563 4.452 35.0723 4.192 34.9043 4.008C34.7363 3.824 34.4483 3.732 34.0403 3.732C33.7523 3.732 33.5163 3.792 33.3323 3.912C33.1563 4.024 33.0243 4.176 32.9363 4.368C32.8723 4.472 32.7803 4.524 32.6603 4.524H31.7123C31.6243 4.524 31.5563 4.5 31.5083 4.452C31.4683 4.404 31.4482 4.34 31.4482 4.26C31.4563 4.132 31.5083 3.976 31.6043 3.792C31.7003 3.608 31.8523 3.432 32.0603 3.264C32.2683 3.088 32.5363 2.94 32.8643 2.82C33.1923 2.7 33.5883 2.64 34.0523 2.64C34.5563 2.64 34.9803 2.704 35.3243 2.832C35.6763 2.952 35.9563 3.116 36.1643 3.324C36.3723 3.532 36.5243 3.776 36.6203 4.056C36.7163 4.336 36.7643 4.632 36.7643 4.944V8.712C36.7643 8.792 36.7363 8.86 36.6803 8.916C36.6243 8.972 36.5563 9 36.4763 9H35.5043C35.4163 9 35.3443 8.972 35.2883 8.916C35.2403 8.86 35.2163 8.792 35.2163 8.712V8.244C35.1123 8.396 34.9723 8.54 34.7963 8.676C34.6203 8.804 34.4043 8.912 34.1483 9C33.9003 9.08 33.6043 9.12 33.2603 9.12ZM33.6683 7.98C33.9483 7.98 34.2003 7.92 34.4243 7.8C34.6563 7.68 34.8363 7.496 34.9643 7.248C35.1003 6.992 35.1683 6.672 35.1683 6.288V6.036L33.9683 6.228C33.4963 6.3 33.1443 6.416 32.9123 6.576C32.6803 6.736 32.5643 6.932 32.5643 7.164C32.5643 7.34 32.6163 7.492 32.7203 7.62C32.8323 7.74 32.9723 7.832 33.1403 7.896C33.3083 7.952 33.4843 7.98 33.6683 7.98ZM38.6037 9C38.5237 9 38.4557 8.972 38.3997 8.916C38.3437 8.86 38.3157 8.792 38.3157 8.712V0.767999C38.3157 0.687999 38.3437 0.62 38.3997 0.564C38.4557 0.508 38.5237 0.48 38.6037 0.48H39.5997C39.6797 0.48 39.7477 0.508 39.8037 0.564C39.8597 0.62 39.8877 0.687999 39.8877 0.767999V8.712C39.8877 8.792 39.8597 8.86 39.8037 8.916C39.7477 8.972 39.6797 9 39.5997 9H38.6037ZM47.6297 9.12C46.8937 9.12 46.2657 8.992 45.7457 8.736C45.2337 8.48 44.8337 8.112 44.5457 7.632C44.2657 7.144 44.1137 6.564 44.0897 5.892C44.0817 5.548 44.0777 5.18 44.0777 4.788C44.0777 4.388 44.0817 4.012 44.0897 3.66C44.1137 2.996 44.2657 2.428 44.5457 1.956C44.8337 1.484 45.2377 1.12 45.7577 0.864C46.2857 0.608 46.9097 0.48 47.6297 0.48C48.2137 0.48 48.7257 0.559999 49.1657 0.719999C49.6057 0.872 49.9697 1.072 50.2577 1.32C50.5537 1.56 50.7737 1.82 50.9177 2.1C51.0697 2.38 51.1497 2.64 51.1577 2.88C51.1657 2.952 51.1457 3.012 51.0977 3.06C51.0497 3.108 50.9857 3.132 50.9057 3.132H49.6697C49.5897 3.132 49.5297 3.116 49.4897 3.084C49.4497 3.052 49.4137 3.004 49.3817 2.94C49.3177 2.772 49.2177 2.608 49.0817 2.448C48.9457 2.28 48.7617 2.14 48.5297 2.028C48.2977 1.916 47.9977 1.86 47.6297 1.86C47.0857 1.86 46.6497 2.004 46.3217 2.292C46.0017 2.58 45.8297 3.056 45.8057 3.72C45.7817 4.416 45.7817 5.12 45.8057 5.832C45.8297 6.512 46.0057 7 46.3337 7.296C46.6697 7.592 47.1097 7.74 47.6537 7.74C48.0137 7.74 48.3337 7.676 48.6137 7.548C48.9017 7.42 49.1257 7.22 49.2857 6.948C49.4537 6.676 49.5377 6.328 49.5377 5.904V5.532H48.0737C47.9937 5.532 47.9257 5.504 47.8697 5.448C47.8137 5.392 47.7857 5.32 47.7857 5.232V4.596C47.7857 4.508 47.8137 4.436 47.8697 4.38C47.9257 4.324 47.9937 4.296 48.0737 4.296H50.9417C51.0297 4.296 51.0977 4.324 51.1457 4.38C51.2017 4.436 51.2297 4.508 51.2297 4.596V5.856C51.2297 6.528 51.0817 7.108 50.7857 7.596C50.4977 8.084 50.0817 8.46 49.5377 8.724C49.0017 8.988 48.3657 9.12 47.6297 9.12ZM54.94 9.12C54.452 9.12 54.028 9.012 53.668 8.796C53.316 8.572 53.044 8.26 52.852 7.86C52.66 7.452 52.564 6.972 52.564 6.42V3.048C52.564 2.968 52.592 2.9 52.648 2.844C52.704 2.788 52.772 2.76 52.852 2.76H53.908C53.996 2.76 54.064 2.788 54.112 2.844C54.168 2.9 54.196 2.968 54.196 3.048V6.348C54.196 7.34 54.632 7.836 55.504 7.836C55.92 7.836 56.248 7.704 56.488 7.44C56.736 7.176 56.86 6.812 56.86 6.348V3.048C56.86 2.968 56.888 2.9 56.944 2.844C57 2.788 57.068 2.76 57.148 2.76H58.204C58.284 2.76 58.352 2.788 58.408 2.844C58.464 2.9 58.492 2.968 58.492 3.048V8.712C58.492 8.792 58.464 8.86 58.408 8.916C58.352 8.972 58.284 9 58.204 9H57.232C57.144 9 57.072 8.972 57.016 8.916C56.968 8.86 56.944 8.792 56.944 8.712V8.22C56.728 8.5 56.46 8.72 56.14 8.88C55.82 9.04 55.42 9.12 54.94 9.12ZM60.3652 9C60.2852 9 60.2172 8.972 60.1612 8.916C60.1052 8.86 60.0772 8.792 60.0772 8.712V3.048C60.0772 2.968 60.1052 2.9 60.1612 2.844C60.2172 2.788 60.2852 2.76 60.3652 2.76H61.3612C61.4492 2.76 61.5172 2.788 61.5652 2.844C61.6212 2.9 61.6492 2.968 61.6492 3.048V8.712C61.6492 8.792 61.6212 8.86 61.5652 8.916C61.5172 8.972 61.4492 9 61.3612 9H60.3652ZM60.3172 1.728C60.2292 1.728 60.1572 1.704 60.1012 1.656C60.0532 1.6 60.0292 1.528 60.0292 1.44V0.576C60.0292 0.496 60.0532 0.428 60.1012 0.372C60.1572 0.316 60.2292 0.288 60.3172 0.288H61.4092C61.4972 0.288 61.5692 0.316 61.6252 0.372C61.6812 0.428 61.7092 0.496 61.7092 0.576V1.44C61.7092 1.528 61.6812 1.6 61.6252 1.656C61.5692 1.704 61.4972 1.728 61.4092 1.728H60.3172ZM65.5572 9.12C65.1412 9.12 64.7732 9.052 64.4532 8.916C64.1412 8.772 63.8812 8.572 63.6732 8.316C63.4652 8.06 63.3052 7.76 63.1932 7.416C63.0812 7.064 63.0172 6.68 63.0012 6.264C62.9932 6.12 62.9892 5.992 62.9892 5.88C62.9892 5.76 62.9932 5.628 63.0012 5.484C63.0172 5.084 63.0772 4.712 63.1812 4.368C63.2932 4.024 63.4532 3.724 63.6612 3.468C63.8772 3.204 64.1412 3 64.4532 2.856C64.7732 2.712 65.1412 2.64 65.5572 2.64C65.9892 2.64 66.3532 2.716 66.6492 2.868C66.9532 3.012 67.2052 3.2 67.4052 3.432V0.767999C67.4052 0.687999 67.4292 0.62 67.4772 0.564C67.5332 0.508 67.6052 0.48 67.6932 0.48H68.7132C68.7932 0.48 68.8612 0.508 68.9172 0.564C68.9732 0.62 69.0012 0.687999 69.0012 0.767999V8.712C69.0012 8.792 68.9732 8.86 68.9172 8.916C68.8612 8.972 68.7932 9 68.7132 9H67.7652C67.6772 9 67.6052 8.972 67.5492 8.916C67.5012 8.86 67.4772 8.792 67.4772 8.712V8.268C67.2772 8.516 67.0212 8.72 66.7092 8.88C66.4052 9.04 66.0212 9.12 65.5572 9.12ZM66.0012 7.836C66.3372 7.836 66.6052 7.76 66.8052 7.608C67.0052 7.456 67.1532 7.264 67.2492 7.032C67.3452 6.792 67.3972 6.548 67.4052 6.3C67.4132 6.156 67.4172 6.004 67.4172 5.844C67.4172 5.676 67.4132 5.52 67.4052 5.376C67.3972 5.136 67.3412 4.908 67.2372 4.692C67.1332 4.468 66.9812 4.284 66.7812 4.14C66.5812 3.996 66.3212 3.924 66.0012 3.924C65.6652 3.924 65.3972 4 65.1972 4.152C65.0052 4.296 64.8652 4.488 64.7772 4.728C64.6892 4.968 64.6372 5.232 64.6212 5.52C64.6132 5.76 64.6132 6 64.6212 6.24C64.6372 6.528 64.6892 6.792 64.7772 7.032C64.8652 7.272 65.0052 7.468 65.1972 7.62C65.3972 7.764 65.6652 7.836 66.0012 7.836ZM73.2886 9.12C72.4006 9.12 71.6966 8.864 71.1766 8.352C70.6566 7.84 70.3766 7.112 70.3366 6.168C70.3286 6.088 70.3246 5.988 70.3246 5.868C70.3246 5.74 70.3286 5.64 70.3366 5.568C70.3686 4.968 70.5046 4.448 70.7446 4.008C70.9926 3.568 71.3326 3.232 71.7646 3C72.1966 2.76 72.7046 2.64 73.2886 2.64C73.9366 2.64 74.4806 2.776 74.9206 3.048C75.3606 3.312 75.6926 3.684 75.9166 4.164C76.1406 4.636 76.2526 5.184 76.2526 5.808V6.06C76.2526 6.14 76.2246 6.208 76.1686 6.264C76.1126 6.32 76.0406 6.348 75.9526 6.348H71.9686C71.9686 6.348 71.9686 6.36 71.9686 6.384C71.9686 6.408 71.9686 6.428 71.9686 6.444C71.9766 6.724 72.0286 6.984 72.1246 7.224C72.2286 7.456 72.3766 7.644 72.5686 7.788C72.7686 7.932 73.0046 8.004 73.2766 8.004C73.5006 8.004 73.6886 7.972 73.8406 7.908C73.9926 7.836 74.1166 7.756 74.2126 7.668C74.3086 7.58 74.3766 7.508 74.4166 7.452C74.4886 7.356 74.5446 7.3 74.5846 7.284C74.6326 7.26 74.7006 7.248 74.7886 7.248H75.8206C75.9006 7.248 75.9646 7.272 76.0126 7.32C76.0686 7.368 76.0926 7.428 76.0846 7.5C76.0766 7.628 76.0086 7.784 75.8806 7.968C75.7606 8.152 75.5846 8.332 75.3526 8.508C75.1206 8.684 74.8286 8.832 74.4766 8.952C74.1326 9.064 73.7366 9.12 73.2886 9.12ZM71.9686 5.34H74.6206V5.304C74.6206 4.992 74.5686 4.72 74.4646 4.488C74.3606 4.256 74.2086 4.072 74.0086 3.936C73.8086 3.8 73.5686 3.732 73.2886 3.732C73.0086 3.732 72.7686 3.8 72.5686 3.936C72.3686 4.072 72.2166 4.256 72.1126 4.488C72.0166 4.72 71.9686 4.992 71.9686 5.304V5.34ZM79.8904 9.12C79.4104 9.12 78.9984 9.064 78.6544 8.952C78.3184 8.84 78.0424 8.7 77.8264 8.532C77.6104 8.364 77.4504 8.196 77.3464 8.028C77.2424 7.86 77.1864 7.72 77.1784 7.608C77.1704 7.52 77.1944 7.452 77.2504 7.404C77.3144 7.348 77.3824 7.32 77.4544 7.32H78.4024C78.4344 7.32 78.4624 7.324 78.4864 7.332C78.5104 7.34 78.5424 7.364 78.5824 7.404C78.6864 7.492 78.7944 7.584 78.9064 7.68C79.0264 7.776 79.1664 7.86 79.3264 7.932C79.4864 7.996 79.6864 8.028 79.9264 8.028C80.2384 8.028 80.4984 7.968 80.7064 7.848C80.9224 7.72 81.0304 7.54 81.0304 7.308C81.0304 7.14 80.9824 7.004 80.8864 6.9C80.7984 6.796 80.6304 6.704 80.3824 6.624C80.1344 6.536 79.7824 6.444 79.3264 6.348C78.8784 6.244 78.5064 6.112 78.2104 5.952C77.9144 5.792 77.6944 5.592 77.5504 5.352C77.4064 5.112 77.3344 4.832 77.3344 4.512C77.3344 4.2 77.4264 3.904 77.6104 3.624C77.8024 3.336 78.0824 3.1 78.4504 2.916C78.8264 2.732 79.2904 2.64 79.8424 2.64C80.2744 2.64 80.6504 2.696 80.9704 2.808C81.2904 2.912 81.5544 3.044 81.7624 3.204C81.9784 3.364 82.1424 3.528 82.2544 3.696C82.3664 3.856 82.4264 3.996 82.4344 4.116C82.4424 4.204 82.4184 4.276 82.3624 4.332C82.3064 4.38 82.2424 4.404 82.1704 4.404H81.2824C81.2424 4.404 81.2064 4.396 81.1744 4.38C81.1424 4.364 81.1104 4.344 81.0784 4.32C80.9904 4.24 80.8944 4.156 80.7904 4.068C80.6864 3.98 80.5584 3.904 80.4064 3.84C80.2624 3.768 80.0704 3.732 79.8304 3.732C79.5264 3.732 79.2944 3.8 79.1344 3.936C78.9744 4.064 78.8944 4.228 78.8944 4.428C78.8944 4.564 78.9304 4.684 79.0024 4.788C79.0824 4.884 79.2384 4.976 79.4704 5.064C79.7024 5.152 80.0544 5.244 80.5264 5.34C81.0624 5.436 81.4864 5.58 81.7984 5.772C82.1184 5.956 82.3424 6.172 82.4704 6.42C82.6064 6.66 82.6744 6.928 82.6744 7.224C82.6744 7.584 82.5664 7.908 82.3504 8.196C82.1424 8.484 81.8304 8.712 81.4144 8.88C81.0064 9.04 80.4984 9.12 79.8904 9.12Z" fill="url(#paint0_linear_4719_3996)"/>
</g>
<defs>
<linearGradient id="paint0_linear_4719_3996" x1="-8.65793e-07" y1="-1.99999" x2="16.6071" y2="39.179" gradientUnits="userSpaceOnUse">
<stop stop-color="#44009B"/>
<stop offset="1" stop-color="#2370CA"/>
</linearGradient>
</defs>
</svg>
