<svg width="75" height="12" viewBox="0 0 75 12" fill="none" xmlns="http://www.w3.org/2000/svg">
<g style="mix-blend-mode:hard-light">
<path d="M3.852 9.12C3.108 9.12 2.484 9.012 1.98 8.796C1.484 8.572 1.104 8.284 0.84 7.932C0.584 7.572 0.448 7.196 0.432 6.804C0.432 6.732 0.456 6.672 0.504 6.624C0.552 6.576 0.612 6.552 0.684 6.552H1.752C1.856 6.552 1.932 6.576 1.98 6.624C2.036 6.664 2.084 6.716 2.124 6.78C2.172 6.932 2.264 7.084 2.4 7.236C2.536 7.38 2.72 7.5 2.952 7.596C3.192 7.692 3.492 7.74 3.852 7.74C4.428 7.74 4.856 7.644 5.136 7.452C5.424 7.26 5.568 7 5.568 6.672C5.568 6.44 5.492 6.256 5.34 6.12C5.188 5.976 4.952 5.848 4.632 5.736C4.32 5.616 3.904 5.492 3.384 5.364C2.784 5.22 2.28 5.048 1.872 4.848C1.472 4.64 1.168 4.38 0.96 4.068C0.76 3.756 0.66 3.36 0.66 2.88C0.66 2.416 0.784 2.004 1.032 1.644C1.288 1.284 1.648 1 2.112 0.792C2.584 0.584 3.144 0.48 3.792 0.48C4.312 0.48 4.772 0.552 5.172 0.696C5.572 0.832 5.904 1.016 6.168 1.248C6.432 1.472 6.632 1.716 6.768 1.98C6.912 2.236 6.988 2.488 6.996 2.736C6.996 2.8 6.972 2.86 6.924 2.916C6.884 2.964 6.824 2.988 6.744 2.988H5.628C5.564 2.988 5.5 2.972 5.436 2.94C5.372 2.908 5.32 2.848 5.28 2.76C5.232 2.512 5.076 2.3 4.812 2.124C4.548 1.948 4.208 1.86 3.792 1.86C3.36 1.86 3.012 1.94 2.748 2.1C2.484 2.26 2.352 2.508 2.352 2.844C2.352 3.068 2.416 3.256 2.544 3.408C2.68 3.552 2.892 3.68 3.18 3.792C3.476 3.904 3.864 4.024 4.344 4.152C5.024 4.304 5.58 4.48 6.012 4.68C6.444 4.88 6.76 5.136 6.96 5.448C7.16 5.752 7.26 6.14 7.26 6.612C7.26 7.14 7.116 7.592 6.828 7.968C6.548 8.336 6.152 8.62 5.64 8.82C5.128 9.02 4.532 9.12 3.852 9.12ZM8.79122 9C8.71122 9 8.64322 8.972 8.58722 8.916C8.53122 8.86 8.50322 8.792 8.50322 8.712V0.767999C8.50322 0.687999 8.53122 0.62 8.58722 0.564C8.64322 0.508 8.71122 0.48 8.79122 0.48H9.85922C9.94722 0.48 10.0152 0.508 10.0632 0.564C10.1192 0.62 10.1472 0.687999 10.1472 0.767999V3.504C10.3632 3.248 10.6272 3.04 10.9392 2.88C11.2512 2.72 11.6352 2.64 12.0912 2.64C12.5792 2.64 13.0032 2.752 13.3632 2.976C13.7312 3.192 14.0152 3.5 14.2152 3.9C14.4152 4.3 14.5152 4.78 14.5152 5.34V8.712C14.5152 8.792 14.4872 8.86 14.4312 8.916C14.3752 8.972 14.3072 9 14.2272 9H13.1472C13.0672 9 12.9992 8.972 12.9432 8.916C12.8872 8.86 12.8592 8.792 12.8592 8.712V5.412C12.8592 4.948 12.7432 4.584 12.5112 4.32C12.2872 4.056 11.9592 3.924 11.5272 3.924C11.1112 3.924 10.7752 4.056 10.5192 4.32C10.2712 4.584 10.1472 4.948 10.1472 5.412V8.712C10.1472 8.792 10.1192 8.86 10.0632 8.916C10.0152 8.972 9.94722 9 9.85922 9H8.79122ZM18.7981 9.12C18.1581 9.12 17.6181 9.008 17.1781 8.784C16.7461 8.56 16.4141 8.244 16.1821 7.836C15.9581 7.428 15.8301 6.952 15.7981 6.408C15.7901 6.264 15.7861 6.088 15.7861 5.88C15.7861 5.672 15.7901 5.496 15.7981 5.352C15.8301 4.8 15.9621 4.324 16.1941 3.924C16.4341 3.516 16.7701 3.2 17.2021 2.976C17.6421 2.752 18.1741 2.64 18.7981 2.64C19.4221 2.64 19.9501 2.752 20.3821 2.976C20.8221 3.2 21.1581 3.516 21.3901 3.924C21.6301 4.324 21.7661 4.8 21.7981 5.352C21.8061 5.496 21.8101 5.672 21.8101 5.88C21.8101 6.088 21.8061 6.264 21.7981 6.408C21.7661 6.952 21.6341 7.428 21.4021 7.836C21.1781 8.244 20.8461 8.56 20.4061 8.784C19.9741 9.008 19.4381 9.12 18.7981 9.12ZM18.7981 7.932C19.2221 7.932 19.5501 7.8 19.7821 7.536C20.0141 7.264 20.1421 6.868 20.1661 6.348C20.1741 6.228 20.1781 6.072 20.1781 5.88C20.1781 5.688 20.1741 5.532 20.1661 5.412C20.1421 4.9 20.0141 4.508 19.7821 4.236C19.5501 3.964 19.2221 3.828 18.7981 3.828C18.3741 3.828 18.0461 3.964 17.8141 4.236C17.5821 4.508 17.4541 4.9 17.4301 5.412C17.4221 5.532 17.4181 5.688 17.4181 5.88C17.4181 6.072 17.4221 6.228 17.4301 6.348C17.4541 6.868 17.5821 7.264 17.8141 7.536C18.0461 7.8 18.3741 7.932 18.7981 7.932ZM23.4277 9C23.3477 9 23.2797 8.972 23.2237 8.916C23.1677 8.86 23.1397 8.792 23.1397 8.712V3.06C23.1397 2.972 23.1677 2.9 23.2237 2.844C23.2797 2.788 23.3477 2.76 23.4277 2.76H24.3997C24.4797 2.76 24.5477 2.788 24.6037 2.844C24.6677 2.9 24.6997 2.972 24.6997 3.06V3.552C24.8837 3.296 25.1197 3.1 25.4077 2.964C25.7037 2.828 26.0437 2.76 26.4277 2.76H26.9197C27.0077 2.76 27.0757 2.788 27.1237 2.844C27.1797 2.9 27.2077 2.968 27.2077 3.048V3.912C27.2077 3.992 27.1797 4.06 27.1237 4.116C27.0757 4.172 27.0077 4.2 26.9197 4.2H25.9837C25.5997 4.2 25.2997 4.308 25.0837 4.524C24.8757 4.74 24.7717 5.036 24.7717 5.412V8.712C24.7717 8.792 24.7437 8.86 24.6877 8.916C24.6317 8.972 24.5597 9 24.4717 9H23.4277ZM30.9636 9C30.4836 9 30.0796 8.916 29.7516 8.748C29.4236 8.58 29.1796 8.332 29.0196 8.004C28.8596 7.668 28.7796 7.252 28.7796 6.756V4.032H27.8316C27.7516 4.032 27.6836 4.004 27.6276 3.948C27.5716 3.892 27.5436 3.824 27.5436 3.744V3.048C27.5436 2.968 27.5716 2.9 27.6276 2.844C27.6836 2.788 27.7516 2.76 27.8316 2.76H28.7796V0.767999C28.7796 0.687999 28.8036 0.62 28.8516 0.564C28.9076 0.508 28.9796 0.48 29.0676 0.48H30.0396C30.1196 0.48 30.1876 0.508 30.2436 0.564C30.2996 0.62 30.3276 0.687999 30.3276 0.767999V2.76H31.8276C31.9076 2.76 31.9756 2.788 32.0316 2.844C32.0876 2.9 32.1156 2.968 32.1156 3.048V3.744C32.1156 3.824 32.0876 3.892 32.0316 3.948C31.9756 4.004 31.9076 4.032 31.8276 4.032H30.3276V6.636C30.3276 6.964 30.3836 7.22 30.4956 7.404C30.6156 7.588 30.8196 7.68 31.1076 7.68H31.9356C32.0156 7.68 32.0836 7.708 32.1396 7.764C32.1956 7.82 32.2236 7.888 32.2236 7.968V8.712C32.2236 8.792 32.1956 8.86 32.1396 8.916C32.0836 8.972 32.0156 9 31.9356 9H30.9636ZM33.5881 9C33.5081 9 33.4401 8.972 33.3841 8.916C33.3281 8.86 33.3001 8.792 33.3001 8.712V0.767999C33.3001 0.687999 33.3281 0.62 33.3841 0.564C33.4401 0.508 33.5081 0.48 33.5881 0.48H34.5841C34.6641 0.48 34.7321 0.508 34.7881 0.564C34.8441 0.62 34.8721 0.687999 34.8721 0.767999V8.712C34.8721 8.792 34.8441 8.86 34.7881 8.916C34.7321 8.972 34.6641 9 34.5841 9H33.5881ZM36.7519 9C36.6719 9 36.6039 8.972 36.5479 8.916C36.4919 8.86 36.4639 8.792 36.4639 8.712V3.048C36.4639 2.968 36.4919 2.9 36.5479 2.844C36.6039 2.788 36.6719 2.76 36.7519 2.76H37.7479C37.8359 2.76 37.9039 2.788 37.9519 2.844C38.0079 2.9 38.0359 2.968 38.0359 3.048V8.712C38.0359 8.792 38.0079 8.86 37.9519 8.916C37.9039 8.972 37.8359 9 37.7479 9H36.7519ZM36.7039 1.728C36.6159 1.728 36.5439 1.704 36.4879 1.656C36.4399 1.6 36.4159 1.528 36.4159 1.44V0.576C36.4159 0.496 36.4399 0.428 36.4879 0.372C36.5439 0.316 36.6159 0.288 36.7039 0.288H37.7959C37.8839 0.288 37.9559 0.316 38.0119 0.372C38.0679 0.428 38.0959 0.496 38.0959 0.576V1.44C38.0959 1.528 38.0679 1.6 38.0119 1.656C37.9559 1.704 37.8839 1.728 37.7959 1.728H36.7039ZM41.9919 9.12C41.5119 9.12 41.0999 9.064 40.7559 8.952C40.4199 8.84 40.1439 8.7 39.9279 8.532C39.7119 8.364 39.5519 8.196 39.4479 8.028C39.3439 7.86 39.2879 7.72 39.2799 7.608C39.2719 7.52 39.2959 7.452 39.3519 7.404C39.4159 7.348 39.4839 7.32 39.5559 7.32H40.5039C40.5359 7.32 40.5639 7.324 40.5879 7.332C40.6119 7.34 40.6439 7.364 40.6839 7.404C40.7879 7.492 40.8959 7.584 41.0079 7.68C41.1279 7.776 41.2679 7.86 41.4279 7.932C41.5879 7.996 41.7879 8.028 42.0279 8.028C42.3399 8.028 42.5999 7.968 42.8079 7.848C43.0239 7.72 43.1319 7.54 43.1319 7.308C43.1319 7.14 43.0839 7.004 42.9879 6.9C42.8999 6.796 42.7319 6.704 42.4839 6.624C42.2359 6.536 41.8839 6.444 41.4279 6.348C40.9799 6.244 40.6079 6.112 40.3119 5.952C40.0159 5.792 39.7959 5.592 39.6519 5.352C39.5079 5.112 39.4359 4.832 39.4359 4.512C39.4359 4.2 39.5279 3.904 39.7119 3.624C39.9039 3.336 40.1839 3.1 40.5519 2.916C40.9279 2.732 41.3919 2.64 41.9439 2.64C42.3759 2.64 42.7519 2.696 43.0719 2.808C43.3919 2.912 43.6559 3.044 43.8639 3.204C44.0799 3.364 44.2439 3.528 44.3559 3.696C44.4679 3.856 44.5279 3.996 44.5359 4.116C44.5439 4.204 44.5199 4.276 44.4639 4.332C44.4079 4.38 44.3439 4.404 44.2719 4.404H43.3839C43.3439 4.404 43.3079 4.396 43.2759 4.38C43.2439 4.364 43.2119 4.344 43.1799 4.32C43.0919 4.24 42.9959 4.156 42.8919 4.068C42.7879 3.98 42.6599 3.904 42.5079 3.84C42.3639 3.768 42.1719 3.732 41.9319 3.732C41.6279 3.732 41.3959 3.8 41.2359 3.936C41.0759 4.064 40.9959 4.228 40.9959 4.428C40.9959 4.564 41.0319 4.684 41.1039 4.788C41.1839 4.884 41.3399 4.976 41.5719 5.064C41.8039 5.152 42.1559 5.244 42.6279 5.34C43.1639 5.436 43.5879 5.58 43.8999 5.772C44.2199 5.956 44.4439 6.172 44.5719 6.42C44.7079 6.66 44.7759 6.928 44.7759 7.224C44.7759 7.584 44.6679 7.908 44.4519 8.196C44.2439 8.484 43.9319 8.712 43.5159 8.88C43.1079 9.04 42.5999 9.12 41.9919 9.12ZM48.8112 9C48.3312 9 47.9272 8.916 47.5992 8.748C47.2712 8.58 47.0272 8.332 46.8672 8.004C46.7072 7.668 46.6272 7.252 46.6272 6.756V4.032H45.6792C45.5992 4.032 45.5312 4.004 45.4752 3.948C45.4192 3.892 45.3912 3.824 45.3912 3.744V3.048C45.3912 2.968 45.4192 2.9 45.4752 2.844C45.5312 2.788 45.5992 2.76 45.6792 2.76H46.6272V0.767999C46.6272 0.687999 46.6512 0.62 46.6992 0.564C46.7552 0.508 46.8272 0.48 46.9152 0.48H47.8872C47.9672 0.48 48.0352 0.508 48.0912 0.564C48.1472 0.62 48.1752 0.687999 48.1752 0.767999V2.76H49.6752C49.7552 2.76 49.8232 2.788 49.8792 2.844C49.9352 2.9 49.9632 2.968 49.9632 3.048V3.744C49.9632 3.824 49.9352 3.892 49.8792 3.948C49.8232 4.004 49.7552 4.032 49.6752 4.032H48.1752V6.636C48.1752 6.964 48.2312 7.22 48.3432 7.404C48.4632 7.588 48.6672 7.68 48.9552 7.68H49.7832C49.8632 7.68 49.9312 7.708 49.9872 7.764C50.0432 7.82 50.0712 7.888 50.0712 7.968V8.712C50.0712 8.792 50.0432 8.86 49.9872 8.916C49.9312 8.972 49.8632 9 49.7832 9H48.8112ZM51.4238 9C51.3438 9 51.2758 8.972 51.2198 8.916C51.1638 8.86 51.1357 8.792 51.1357 8.712V3.048C51.1357 2.968 51.1638 2.9 51.2198 2.844C51.2758 2.788 51.3438 2.76 51.4238 2.76H52.4198C52.5078 2.76 52.5758 2.788 52.6238 2.844C52.6798 2.9 52.7078 2.968 52.7078 3.048V8.712C52.7078 8.792 52.6798 8.86 52.6238 8.916C52.5758 8.972 52.5078 9 52.4198 9H51.4238ZM51.3758 1.728C51.2878 1.728 51.2158 1.704 51.1598 1.656C51.1118 1.6 51.0878 1.528 51.0878 1.44V0.576C51.0878 0.496 51.1118 0.428 51.1598 0.372C51.2158 0.316 51.2878 0.288 51.3758 0.288H52.4678C52.5558 0.288 52.6278 0.316 52.6838 0.372C52.7398 0.428 52.7678 0.496 52.7678 0.576V1.44C52.7678 1.528 52.7398 1.6 52.6838 1.656C52.6278 1.704 52.5558 1.728 52.4678 1.728H51.3758ZM54.5878 9C54.5078 9 54.4398 8.972 54.3838 8.916C54.3278 8.86 54.2998 8.792 54.2998 8.712V3.048C54.2998 2.968 54.3278 2.9 54.3838 2.844C54.4398 2.788 54.5078 2.76 54.5878 2.76H55.5718C55.6518 2.76 55.7198 2.788 55.7758 2.844C55.8318 2.9 55.8598 2.968 55.8598 3.048V3.54C56.0678 3.284 56.3318 3.072 56.6518 2.904C56.9798 2.728 57.3838 2.64 57.8638 2.64C58.3518 2.64 58.7758 2.752 59.1358 2.976C59.4958 3.192 59.7718 3.5 59.9638 3.9C60.1638 4.3 60.2638 4.78 60.2638 5.34V8.712C60.2638 8.792 60.2358 8.86 60.1798 8.916C60.1238 8.972 60.0558 9 59.9758 9H58.9198C58.8398 9 58.7718 8.972 58.7158 8.916C58.6598 8.86 58.6318 8.792 58.6318 8.712V5.412C58.6318 4.948 58.5158 4.584 58.2838 4.32C58.0598 4.056 57.7318 3.924 57.2998 3.924C56.8838 3.924 56.5518 4.056 56.3038 4.32C56.0558 4.584 55.9318 4.948 55.9318 5.412V8.712C55.9318 8.792 55.9038 8.86 55.8478 8.916C55.7918 8.972 55.7238 9 55.6438 9H54.5878ZM64.6081 11.64C64.0241 11.64 63.5441 11.564 63.1681 11.412C62.7921 11.26 62.4961 11.076 62.2801 10.86C62.0641 10.644 61.9081 10.428 61.8121 10.212C61.7241 10.004 61.6761 9.84 61.6681 9.72C61.6601 9.64 61.6841 9.568 61.7401 9.504C61.8041 9.448 61.8761 9.42 61.9561 9.42H63.0001C63.0801 9.42 63.1441 9.436 63.1921 9.468C63.2401 9.508 63.2801 9.576 63.3121 9.672C63.3601 9.776 63.4241 9.888 63.5041 10.008C63.5841 10.128 63.7041 10.228 63.8641 10.308C64.0321 10.396 64.2601 10.44 64.5481 10.44C64.8521 10.44 65.1081 10.396 65.3161 10.308C65.5241 10.22 65.6801 10.072 65.7841 9.864C65.8961 9.656 65.9521 9.368 65.9521 9V8.184C65.7601 8.416 65.5121 8.604 65.2081 8.748C64.9121 8.892 64.5441 8.964 64.1041 8.964C63.6721 8.964 63.3001 8.896 62.9881 8.76C62.6761 8.616 62.4161 8.42 62.2081 8.172C62.0001 7.916 61.8401 7.616 61.7281 7.272C61.6241 6.928 61.5641 6.548 61.5481 6.132C61.5401 5.916 61.5401 5.7 61.5481 5.484C61.5641 5.084 61.6241 4.712 61.7281 4.368C61.8321 4.024 61.9881 3.724 62.1961 3.468C62.4121 3.204 62.6761 3 62.9881 2.856C63.3001 2.712 63.6721 2.64 64.1041 2.64C64.5601 2.64 64.9441 2.728 65.2561 2.904C65.5681 3.072 65.8241 3.284 66.0241 3.54V3.06C66.0241 2.972 66.0521 2.9 66.1081 2.844C66.1641 2.788 66.2321 2.76 66.3121 2.76H67.2841C67.3641 2.76 67.4321 2.788 67.4881 2.844C67.5441 2.9 67.5721 2.972 67.5721 3.06L67.5841 8.844C67.5841 9.42 67.4761 9.916 67.2601 10.332C67.0441 10.748 66.7161 11.068 66.2761 11.292C65.8441 11.524 65.2881 11.64 64.6081 11.64ZM64.5481 7.692C64.8761 7.692 65.1401 7.62 65.3401 7.476C65.5401 7.332 65.6881 7.144 65.7841 6.912C65.8801 6.68 65.9361 6.444 65.9521 6.204C65.9601 6.1 65.9641 5.968 65.9641 5.808C65.9641 5.648 65.9601 5.52 65.9521 5.424C65.9361 5.176 65.8801 4.94 65.7841 4.716C65.6881 4.484 65.5401 4.296 65.3401 4.152C65.1401 4 64.8761 3.924 64.5481 3.924C64.2201 3.924 63.9561 4 63.7561 4.152C63.5561 4.296 63.4121 4.488 63.3241 4.728C63.2441 4.968 63.1961 5.232 63.1801 5.52C63.1641 5.712 63.1641 5.908 63.1801 6.108C63.1961 6.388 63.2441 6.652 63.3241 6.9C63.4121 7.14 63.5561 7.332 63.7561 7.476C63.9561 7.62 64.2201 7.692 64.5481 7.692ZM71.5466 9.12C71.0666 9.12 70.6546 9.064 70.3106 8.952C69.9746 8.84 69.6986 8.7 69.4826 8.532C69.2666 8.364 69.1066 8.196 69.0026 8.028C68.8986 7.86 68.8426 7.72 68.8346 7.608C68.8266 7.52 68.8506 7.452 68.9066 7.404C68.9706 7.348 69.0386 7.32 69.1106 7.32H70.0586C70.0906 7.32 70.1186 7.324 70.1426 7.332C70.1666 7.34 70.1986 7.364 70.2386 7.404C70.3426 7.492 70.4506 7.584 70.5626 7.68C70.6826 7.776 70.8226 7.86 70.9826 7.932C71.1426 7.996 71.3426 8.028 71.5826 8.028C71.8946 8.028 72.1546 7.968 72.3626 7.848C72.5786 7.72 72.6866 7.54 72.6866 7.308C72.6866 7.14 72.6386 7.004 72.5426 6.9C72.4546 6.796 72.2866 6.704 72.0386 6.624C71.7906 6.536 71.4386 6.444 70.9826 6.348C70.5346 6.244 70.1626 6.112 69.8666 5.952C69.5706 5.792 69.3506 5.592 69.2066 5.352C69.0626 5.112 68.9906 4.832 68.9906 4.512C68.9906 4.2 69.0826 3.904 69.2666 3.624C69.4586 3.336 69.7386 3.1 70.1066 2.916C70.4826 2.732 70.9466 2.64 71.4986 2.64C71.9306 2.64 72.3066 2.696 72.6266 2.808C72.9466 2.912 73.2106 3.044 73.4186 3.204C73.6346 3.364 73.7986 3.528 73.9106 3.696C74.0226 3.856 74.0826 3.996 74.0906 4.116C74.0986 4.204 74.0746 4.276 74.0186 4.332C73.9626 4.38 73.8986 4.404 73.8266 4.404H72.9386C72.8986 4.404 72.8626 4.396 72.8306 4.38C72.7986 4.364 72.7666 4.344 72.7346 4.32C72.6466 4.24 72.5506 4.156 72.4466 4.068C72.3426 3.98 72.2146 3.904 72.0626 3.84C71.9186 3.768 71.7266 3.732 71.4866 3.732C71.1826 3.732 70.9506 3.8 70.7906 3.936C70.6306 4.064 70.5506 4.228 70.5506 4.428C70.5506 4.564 70.5866 4.684 70.6586 4.788C70.7386 4.884 70.8946 4.976 71.1266 5.064C71.3586 5.152 71.7106 5.244 72.1826 5.34C72.7186 5.436 73.1426 5.58 73.4546 5.772C73.7746 5.956 73.9986 6.172 74.1266 6.42C74.2626 6.66 74.3306 6.928 74.3306 7.224C74.3306 7.584 74.2226 7.908 74.0066 8.196C73.7986 8.484 73.4866 8.712 73.0706 8.88C72.6626 9.04 72.1546 9.12 71.5466 9.12Z" fill="url(#paint0_linear_4719_4016)"/>
</g>
<defs>
<linearGradient id="paint0_linear_4719_4016" x1="-7.73029e-07" y1="-1.99999" x2="17.9607" y2="37.7638" gradientUnits="userSpaceOnUse">
<stop stop-color="#00199B"/>
<stop offset="1" stop-color="#2366CA"/>
</linearGradient>
</defs>
</svg>
