<svg width="149" height="46" viewBox="0 0 149 46" fill="none" xmlns="http://www.w3.org/2000/svg">
<path opacity="0.45" d="M19 14.0625L22.1913 18.4377C26.3354 24.119 34.8313 24.0591 38.8948 18.32L41.3464 14.8573C44.7262 10.0839 51.975 10.6375 54.5907 15.8688V15.8688C57.3049 21.2973 64.9256 21.6343 68.1084 16.4665L70.5534 12.4966C73.8636 7.12201 81.8168 7.56584 84.5084 13.2754V13.2754C87.1706 18.9225 95.0057 19.4356 98.3817 14.1841L99.7402 12.0708C103.141 6.7802 111.022 7.25037 113.77 12.9079V12.9079C116.562 18.6566 124.614 19.024 127.918 13.5533L131.688 7.3125" stroke="url(#paint0_angular_5528_2611)" stroke-width="5" stroke-linecap="round" stroke-linejoin="round"/>
<g filter="url(#filter0_bddd_5528_2611)">
<path d="M14.9527 22.0215C14.8207 22.0215 14.7127 21.9795 14.6287 21.8955C14.5447 21.8115 14.5027 21.7035 14.5027 21.5715V12.2475H11.2987C11.1667 12.2475 11.0587 12.2055 10.9747 12.1215C10.8907 12.0255 10.8487 11.9175 10.8487 11.7975V9.87148C10.8487 9.73948 10.8907 9.63148 10.9747 9.54748C11.0587 9.46348 11.1667 9.42148 11.2987 9.42148H20.9827C21.1147 9.42148 21.2227 9.46348 21.3067 9.54748C21.3907 9.63148 21.4327 9.73948 21.4327 9.87148V11.7975C21.4327 11.9175 21.3907 12.0255 21.3067 12.1215C21.2227 12.2055 21.1147 12.2475 20.9827 12.2475H17.7787V21.5715C17.7787 21.7035 17.7367 21.8115 17.6527 21.8955C17.5687 21.9795 17.4607 22.0215 17.3287 22.0215H14.9527ZM25.7166 22.2015C24.7086 22.2015 23.8566 22.0395 23.1606 21.7155C22.4766 21.3915 21.9486 20.9295 21.5766 20.3295C21.2166 19.7175 21.0126 18.9915 20.9646 18.1515C20.9526 17.9115 20.9466 17.6415 20.9466 17.3415C20.9466 17.0295 20.9526 16.7595 20.9646 16.5315C21.0126 15.6795 21.2286 14.9535 21.6126 14.3535C21.9966 13.7535 22.5306 13.2915 23.2146 12.9675C23.9106 12.6435 24.7446 12.4815 25.7166 12.4815C26.7006 12.4815 27.5346 12.6435 28.2186 12.9675C28.9146 13.2915 29.4546 13.7535 29.8386 14.3535C30.2226 14.9535 30.4386 15.6795 30.4866 16.5315C30.4986 16.7595 30.5046 17.0295 30.5046 17.3415C30.5046 17.6415 30.4986 17.9115 30.4866 18.1515C30.4386 18.9915 30.2286 19.7175 29.8566 20.3295C29.4966 20.9295 28.9686 21.3915 28.2726 21.7155C27.5886 22.0395 26.7366 22.2015 25.7166 22.2015ZM25.7166 20.0055C26.2566 20.0055 26.6466 19.8435 26.8866 19.5195C27.1386 19.1955 27.2826 18.7095 27.3186 18.0615C27.3306 17.8815 27.3366 17.6415 27.3366 17.3415C27.3366 17.0415 27.3306 16.8015 27.3186 16.6215C27.2826 15.9855 27.1386 15.5055 26.8866 15.1815C26.6466 14.8455 26.2566 14.6775 25.7166 14.6775C25.1886 14.6775 24.7986 14.8455 24.5466 15.1815C24.2946 15.5055 24.1566 15.9855 24.1326 16.6215C24.1206 16.8015 24.1146 17.0415 24.1146 17.3415C24.1146 17.6415 24.1206 17.8815 24.1326 18.0615C24.1566 18.7095 24.2946 19.1955 24.5466 19.5195C24.7986 19.8435 25.1886 20.0055 25.7166 20.0055ZM32.7249 25.4415C32.5929 25.4415 32.4849 25.3995 32.4009 25.3155C32.3169 25.2315 32.2749 25.1235 32.2749 24.9915V13.1115C32.2749 12.9795 32.3169 12.8715 32.4009 12.7875C32.4849 12.7035 32.5929 12.6615 32.7249 12.6615H34.7589C34.8789 12.6615 34.9809 12.7035 35.0649 12.7875C35.1609 12.8715 35.2089 12.9795 35.2089 13.1115V13.7775C35.4849 13.4055 35.8509 13.0995 36.3069 12.8595C36.7629 12.6075 37.3269 12.4815 37.9989 12.4815C38.5989 12.4815 39.1269 12.5775 39.5829 12.7695C40.0389 12.9495 40.4289 13.2195 40.7529 13.5795C41.0769 13.9395 41.3289 14.3775 41.5089 14.8935C41.7009 15.4095 41.8089 16.0035 41.8329 16.6755C41.8449 16.9155 41.8509 17.1375 41.8509 17.3415C41.8509 17.5455 41.8449 17.7675 41.8329 18.0075C41.8089 18.6555 41.7069 19.2375 41.5269 19.7535C41.3469 20.2695 41.0949 20.7075 40.7709 21.0675C40.4469 21.4275 40.0509 21.7095 39.5829 21.9135C39.1269 22.1055 38.5989 22.2015 37.9989 22.2015C37.4109 22.2015 36.8949 22.0995 36.4509 21.8955C36.0189 21.6795 35.6589 21.3795 35.3709 20.9955V24.9915C35.3709 25.1235 35.3289 25.2315 35.2449 25.3155C35.1609 25.3995 35.0529 25.4415 34.9209 25.4415H32.7249ZM37.0269 19.7895C37.4349 19.7895 37.7529 19.7055 37.9809 19.5375C38.2089 19.3695 38.3709 19.1415 38.4669 18.8535C38.5749 18.5655 38.6409 18.2475 38.6649 17.8995C38.6889 17.5275 38.6889 17.1555 38.6649 16.7835C38.6409 16.4355 38.5749 16.1175 38.4669 15.8295C38.3709 15.5415 38.2089 15.3135 37.9809 15.1455C37.7529 14.9775 37.4349 14.8935 37.0269 14.8935C36.6309 14.8935 36.3129 14.9835 36.0729 15.1635C35.8329 15.3315 35.6589 15.5535 35.5509 15.8295C35.4429 16.1055 35.3829 16.4055 35.3709 16.7295C35.3589 16.9575 35.3529 17.1795 35.3529 17.3955C35.3529 17.6115 35.3589 17.8395 35.3709 18.0795C35.3829 18.3795 35.4489 18.6615 35.5689 18.9255C35.6889 19.1775 35.8689 19.3875 36.1089 19.5555C36.3489 19.7115 36.6549 19.7895 37.0269 19.7895ZM44.0804 22.0215C43.9484 22.0215 43.8404 21.9795 43.7564 21.8955C43.6724 21.8115 43.6304 21.7035 43.6304 21.5715V13.1115C43.6304 12.9795 43.6724 12.8715 43.7564 12.7875C43.8404 12.7035 43.9484 12.6615 44.0804 12.6615H46.2044C46.3244 12.6615 46.4264 12.7035 46.5104 12.7875C46.6064 12.8715 46.6544 12.9795 46.6544 13.1115V21.5715C46.6544 21.7035 46.6064 21.8115 46.5104 21.8955C46.4264 21.9795 46.3244 22.0215 46.2044 22.0215H44.0804ZM44.0624 11.3115C43.9304 11.3115 43.8224 11.2695 43.7384 11.1855C43.6544 11.1015 43.6124 10.9935 43.6124 10.8615V9.25948C43.6124 9.12748 43.6544 9.01948 43.7384 8.93548C43.8224 8.83948 43.9304 8.79148 44.0624 8.79148H46.2044C46.3364 8.79148 46.4444 8.83948 46.5284 8.93548C46.6244 9.01948 46.6724 9.12748 46.6724 9.25948V10.8615C46.6724 10.9935 46.6244 11.1015 46.5284 11.1855C46.4444 11.2695 46.3364 11.3115 46.2044 11.3115H44.0624ZM53.0652 22.2015C52.1772 22.2015 51.3912 22.0395 50.7072 21.7155C50.0232 21.3915 49.4772 20.9235 49.0692 20.3115C48.6732 19.6875 48.4572 18.9435 48.4212 18.0795C48.4092 17.8875 48.4032 17.6475 48.4032 17.3595C48.4032 17.0595 48.4092 16.8135 48.4212 16.6215C48.4572 15.7455 48.6732 15.0015 49.0692 14.3895C49.4652 13.7655 50.0052 13.2915 50.6892 12.9675C51.3852 12.6435 52.1772 12.4815 53.0652 12.4815C53.8932 12.4815 54.6012 12.6015 55.1892 12.8415C55.7772 13.0695 56.2572 13.3575 56.6292 13.7055C57.0012 14.0535 57.2772 14.4135 57.4572 14.7855C57.6492 15.1455 57.7512 15.4635 57.7632 15.7395C57.7752 15.8595 57.7332 15.9675 57.6372 16.0635C57.5412 16.1475 57.4332 16.1895 57.3132 16.1895H55.0272C54.8952 16.1895 54.7932 16.1595 54.7212 16.0995C54.6492 16.0395 54.5832 15.9495 54.5232 15.8295C54.3792 15.4575 54.1932 15.1935 53.9652 15.0375C53.7492 14.8815 53.4672 14.8035 53.1192 14.8035C52.6392 14.8035 52.2672 14.9595 52.0032 15.2715C51.7512 15.5835 51.6132 16.0635 51.5892 16.7115C51.5772 17.1915 51.5772 17.6175 51.5892 17.9895C51.6132 18.6495 51.7512 19.1295 52.0032 19.4295C52.2672 19.7295 52.6392 19.8795 53.1192 19.8795C53.4912 19.8795 53.7852 19.8015 54.0012 19.6455C54.2172 19.4895 54.3912 19.2255 54.5232 18.8535C54.5832 18.7335 54.6492 18.6435 54.7212 18.5835C54.7932 18.5235 54.8952 18.4935 55.0272 18.4935H57.3132C57.4332 18.4935 57.5412 18.5415 57.6372 18.6375C57.7332 18.7215 57.7752 18.8235 57.7632 18.9435C57.7512 19.1475 57.6912 19.3875 57.5832 19.6635C57.4752 19.9275 57.3072 20.2095 57.0792 20.5095C56.8512 20.8095 56.5512 21.0915 56.1792 21.3555C55.8192 21.6075 55.3812 21.8115 54.8652 21.9675C54.3492 22.1235 53.7492 22.2015 53.0652 22.2015ZM62.1884 22.2015C61.5404 22.2015 60.9584 22.0815 60.4424 21.8415C59.9384 21.5895 59.5364 21.2535 59.2364 20.8335C58.9364 20.4135 58.7864 19.9395 58.7864 19.4115C58.7864 18.5595 59.1344 17.8875 59.8304 17.3955C60.5264 16.8915 61.4504 16.5495 62.6024 16.3695L64.8524 16.0275V15.7755C64.8524 15.3435 64.7624 15.0135 64.5824 14.7855C64.4024 14.5575 64.0724 14.4435 63.5924 14.4435C63.2564 14.4435 62.9804 14.5095 62.7644 14.6415C62.5604 14.7735 62.3984 14.9535 62.2784 15.1815C62.1704 15.3375 62.0204 15.4155 61.8284 15.4155H59.8124C59.6804 15.4155 59.5784 15.3795 59.5064 15.3075C59.4344 15.2235 59.4044 15.1275 59.4164 15.0195C59.4164 14.8035 59.4944 14.5575 59.6504 14.2815C59.8184 13.9935 60.0704 13.7115 60.4064 13.4355C60.7424 13.1595 61.1744 12.9315 61.7024 12.7515C62.2304 12.5715 62.8664 12.4815 63.6104 12.4815C64.3904 12.4815 65.0564 12.5715 65.6084 12.7515C66.1604 12.9315 66.6044 13.1835 66.9404 13.5075C67.2884 13.8315 67.5464 14.2155 67.7144 14.6595C67.8824 15.0915 67.9664 15.5715 67.9664 16.0995V21.5715C67.9664 21.7035 67.9184 21.8115 67.8224 21.8955C67.7384 21.9795 67.6364 22.0215 67.5164 22.0215H65.4284C65.2964 22.0215 65.1884 21.9795 65.1044 21.8955C65.0204 21.8115 64.9784 21.7035 64.9784 21.5715V20.9415C64.8224 21.1695 64.6124 21.3795 64.3484 21.5715C64.0844 21.7635 63.7724 21.9135 63.4124 22.0215C63.0644 22.1415 62.6564 22.2015 62.1884 22.2015ZM63.0344 20.1495C63.3824 20.1495 63.6944 20.0775 63.9704 19.9335C64.2584 19.7775 64.4804 19.5435 64.6364 19.2315C64.8044 18.9075 64.8884 18.5055 64.8884 18.0255V17.7735L63.3584 18.0435C62.7944 18.1395 62.3804 18.2895 62.1164 18.4935C61.8644 18.6855 61.7384 18.9135 61.7384 19.1775C61.7384 19.3815 61.7984 19.5555 61.9184 19.6995C62.0384 19.8435 62.1944 19.9575 62.3864 20.0415C62.5784 20.1135 62.7944 20.1495 63.0344 20.1495ZM70.4475 22.0215C70.3155 22.0215 70.2075 21.9795 70.1235 21.8955C70.0395 21.8115 69.9975 21.7035 69.9975 21.5715V9.69148C69.9975 9.55948 70.0395 9.45148 70.1235 9.36748C70.2075 9.28348 70.3155 9.24148 70.4475 9.24148H72.5715C72.7035 9.24148 72.8115 9.28348 72.8955 9.36748C72.9795 9.45148 73.0215 9.55948 73.0215 9.69148V21.5715C73.0215 21.7035 72.9795 21.8115 72.8955 21.8955C72.8115 21.9795 72.7035 22.0215 72.5715 22.0215H70.4475ZM84.38 22.2015C83.24 22.2015 82.256 22.0155 81.428 21.6435C80.612 21.2595 79.976 20.7075 79.52 19.9875C79.076 19.2555 78.83 18.3675 78.782 17.3235C78.77 16.8075 78.764 16.2615 78.764 15.6855C78.764 15.0975 78.77 14.5395 78.782 14.0115C78.83 12.9915 79.082 12.1275 79.538 11.4195C79.994 10.7115 80.636 10.1715 81.464 9.79948C82.292 9.42748 83.264 9.24148 84.38 9.24148C85.28 9.24148 86.078 9.35548 86.774 9.58348C87.47 9.79948 88.052 10.0935 88.52 10.4655C89 10.8375 89.36 11.2455 89.6 11.6895C89.852 12.1335 89.984 12.5715 89.996 13.0035C90.008 13.1115 89.972 13.2015 89.888 13.2735C89.816 13.3455 89.726 13.3815 89.618 13.3815H86.99C86.858 13.3815 86.756 13.3635 86.684 13.3275C86.624 13.2795 86.57 13.2135 86.522 13.1295C86.438 12.9495 86.312 12.7635 86.144 12.5715C85.988 12.3675 85.766 12.1935 85.478 12.0495C85.202 11.9055 84.836 11.8335 84.38 11.8335C83.696 11.8335 83.156 12.0135 82.76 12.3735C82.376 12.7335 82.166 13.3095 82.13 14.1015C82.094 15.1335 82.094 16.1775 82.13 17.2335C82.166 18.0735 82.388 18.6795 82.796 19.0515C83.204 19.4235 83.744 19.6095 84.416 19.6095C84.872 19.6095 85.274 19.5315 85.622 19.3755C85.982 19.2195 86.264 18.9795 86.468 18.6555C86.672 18.3195 86.774 17.8935 86.774 17.3775V17.0355H85.082C84.95 17.0355 84.836 16.9935 84.74 16.9095C84.656 16.8135 84.614 16.6995 84.614 16.5675V15.2355C84.614 15.1035 84.656 14.9955 84.74 14.9115C84.836 14.8155 84.95 14.7675 85.082 14.7675H89.618C89.75 14.7675 89.858 14.8155 89.942 14.9115C90.026 14.9955 90.068 15.1035 90.068 15.2355V17.2875C90.068 18.3195 89.834 19.2015 89.366 19.9335C88.898 20.6655 88.232 21.2295 87.368 21.6255C86.516 22.0095 85.52 22.2015 84.38 22.2015ZM95.373 22.2015C94.689 22.2015 94.077 22.0455 93.537 21.7335C93.009 21.4215 92.595 20.9655 92.295 20.3655C91.995 19.7535 91.845 19.0095 91.845 18.1335V13.1115C91.845 12.9795 91.887 12.8715 91.971 12.7875C92.055 12.7035 92.163 12.6615 92.295 12.6615H94.545C94.677 12.6615 94.785 12.7035 94.869 12.7875C94.953 12.8715 94.995 12.9795 94.995 13.1115V18.0255C94.995 19.2015 95.523 19.7895 96.579 19.7895C97.071 19.7895 97.461 19.6395 97.749 19.3395C98.049 19.0275 98.199 18.5895 98.199 18.0255V13.1115C98.199 12.9795 98.241 12.8715 98.325 12.7875C98.409 12.7035 98.517 12.6615 98.649 12.6615H100.899C101.031 12.6615 101.139 12.7035 101.223 12.7875C101.307 12.8715 101.349 12.9795 101.349 13.1115V21.5715C101.349 21.7035 101.307 21.8115 101.223 21.8955C101.139 21.9795 101.031 22.0215 100.899 22.0215H98.811C98.691 22.0215 98.583 21.9795 98.487 21.8955C98.403 21.8115 98.361 21.7035 98.361 21.5715V20.8875C98.049 21.3195 97.641 21.6495 97.137 21.8775C96.645 22.0935 96.057 22.2015 95.373 22.2015ZM103.916 22.0215C103.784 22.0215 103.676 21.9795 103.592 21.8955C103.508 21.8115 103.466 21.7035 103.466 21.5715V13.1115C103.466 12.9795 103.508 12.8715 103.592 12.7875C103.676 12.7035 103.784 12.6615 103.916 12.6615H106.04C106.16 12.6615 106.262 12.7035 106.346 12.7875C106.442 12.8715 106.49 12.9795 106.49 13.1115V21.5715C106.49 21.7035 106.442 21.8115 106.346 21.8955C106.262 21.9795 106.16 22.0215 106.04 22.0215H103.916ZM103.898 11.3115C103.766 11.3115 103.658 11.2695 103.574 11.1855C103.49 11.1015 103.448 10.9935 103.448 10.8615V9.25948C103.448 9.12748 103.49 9.01948 103.574 8.93548C103.658 8.83948 103.766 8.79148 103.898 8.79148H106.04C106.172 8.79148 106.28 8.83948 106.364 8.93548C106.46 9.01948 106.508 9.12748 106.508 9.25948V10.8615C106.508 10.9935 106.46 11.1015 106.364 11.1855C106.28 11.2695 106.172 11.3115 106.04 11.3115H103.898ZM112.091 22.2015C111.515 22.2015 110.993 22.1115 110.525 21.9315C110.069 21.7395 109.673 21.4635 109.337 21.1035C109.013 20.7315 108.761 20.2875 108.581 19.7715C108.401 19.2435 108.299 18.6435 108.275 17.9715C108.263 17.7315 108.257 17.5215 108.257 17.3415C108.257 17.1495 108.263 16.9395 108.275 16.7115C108.299 16.0635 108.401 15.4815 108.581 14.9655C108.761 14.4495 109.013 14.0055 109.337 13.6335C109.661 13.2615 110.057 12.9795 110.525 12.7875C110.993 12.5835 111.515 12.4815 112.091 12.4815C112.691 12.4815 113.207 12.5835 113.639 12.7875C114.071 12.9795 114.437 13.2315 114.737 13.5435V9.69148C114.737 9.55948 114.779 9.45148 114.863 9.36748C114.947 9.28348 115.055 9.24148 115.187 9.24148H117.383C117.503 9.24148 117.605 9.28348 117.689 9.36748C117.785 9.45148 117.833 9.55948 117.833 9.69148V21.5715C117.833 21.7035 117.785 21.8115 117.689 21.8955C117.605 21.9795 117.503 22.0215 117.383 22.0215H115.349C115.217 22.0215 115.109 21.9795 115.025 21.8955C114.941 21.8115 114.899 21.7035 114.899 21.5715V20.9955C114.611 21.3435 114.239 21.6315 113.783 21.8595C113.327 22.0875 112.763 22.2015 112.091 22.2015ZM113.063 19.7895C113.471 19.7895 113.789 19.7055 114.017 19.5375C114.257 19.3575 114.431 19.1295 114.539 18.8535C114.659 18.5775 114.725 18.2775 114.737 17.9535C114.749 17.7135 114.755 17.4855 114.755 17.2695C114.755 17.0535 114.749 16.8315 114.737 16.6035C114.725 16.3035 114.659 16.0275 114.539 15.7755C114.419 15.5115 114.239 15.3015 113.999 15.1455C113.759 14.9775 113.447 14.8935 113.063 14.8935C112.667 14.8935 112.349 14.9775 112.109 15.1455C111.881 15.3135 111.719 15.5415 111.623 15.8295C111.527 16.1175 111.467 16.4355 111.443 16.7835C111.407 17.1555 111.407 17.5275 111.443 17.8995C111.467 18.2475 111.527 18.5655 111.623 18.8535C111.719 19.1415 111.881 19.3695 112.109 19.5375C112.349 19.7055 112.667 19.7895 113.063 19.7895ZM124.275 22.2015C122.859 22.2015 121.731 21.8175 120.891 21.0495C120.051 20.2815 119.613 19.1415 119.577 17.6295C119.577 17.5455 119.577 17.4375 119.577 17.3055C119.577 17.1735 119.577 17.0715 119.577 16.9995C119.613 16.0515 119.823 15.2415 120.207 14.5695C120.603 13.8855 121.143 13.3695 121.827 13.0215C122.523 12.6615 123.333 12.4815 124.257 12.4815C125.313 12.4815 126.183 12.6915 126.867 13.1115C127.563 13.5315 128.085 14.1015 128.433 14.8215C128.781 15.5415 128.955 16.3635 128.955 17.2875V17.7195C128.955 17.8515 128.907 17.9595 128.811 18.0435C128.727 18.1275 128.625 18.1695 128.505 18.1695H122.745C122.745 18.1815 122.745 18.1995 122.745 18.2235C122.745 18.2475 122.745 18.2715 122.745 18.2955C122.757 18.6435 122.817 18.9615 122.925 19.2495C123.033 19.5375 123.201 19.7655 123.429 19.9335C123.657 20.1015 123.933 20.1855 124.257 20.1855C124.497 20.1855 124.695 20.1495 124.851 20.0775C125.019 19.9935 125.157 19.9035 125.265 19.8075C125.373 19.6995 125.457 19.6095 125.517 19.5375C125.625 19.4175 125.709 19.3455 125.769 19.3215C125.841 19.2855 125.949 19.2675 126.093 19.2675H128.325C128.445 19.2675 128.541 19.3035 128.613 19.3755C128.697 19.4355 128.733 19.5255 128.721 19.6455C128.709 19.8495 128.607 20.0955 128.415 20.3835C128.223 20.6715 127.941 20.9595 127.569 21.2475C127.209 21.5235 126.753 21.7515 126.201 21.9315C125.649 22.1115 125.007 22.2015 124.275 22.2015ZM122.745 16.3875H125.787V16.3515C125.787 15.9675 125.727 15.6315 125.607 15.3435C125.499 15.0555 125.325 14.8335 125.085 14.6775C124.857 14.5215 124.581 14.4435 124.257 14.4435C123.933 14.4435 123.657 14.5215 123.429 14.6775C123.213 14.8335 123.045 15.0555 122.925 15.3435C122.805 15.6315 122.745 15.9675 122.745 16.3515V16.3875ZM134.494 22.2015C133.714 22.2015 133.048 22.1175 132.496 21.9495C131.956 21.7695 131.512 21.5535 131.164 21.3015C130.828 21.0495 130.576 20.7915 130.408 20.5275C130.24 20.2515 130.15 20.0175 130.138 19.8255C130.126 19.6935 130.168 19.5855 130.264 19.5015C130.36 19.4055 130.462 19.3575 130.57 19.3575H132.622C132.658 19.3575 132.688 19.3635 132.712 19.3755C132.736 19.3875 132.772 19.4115 132.82 19.4475C132.976 19.5315 133.132 19.6395 133.288 19.7715C133.444 19.8915 133.624 19.9995 133.828 20.0955C134.032 20.1915 134.278 20.2395 134.566 20.2395C134.902 20.2395 135.184 20.1735 135.412 20.0415C135.64 19.9095 135.754 19.7115 135.754 19.4475C135.754 19.2555 135.7 19.0995 135.592 18.9795C135.484 18.8475 135.262 18.7215 134.926 18.6015C134.602 18.4815 134.11 18.3615 133.45 18.2415C132.826 18.0975 132.28 17.9115 131.812 17.6835C131.344 17.4435 130.984 17.1375 130.732 16.7655C130.48 16.3815 130.354 15.9195 130.354 15.3795C130.354 14.8995 130.51 14.4375 130.822 13.9935C131.134 13.5495 131.59 13.1895 132.19 12.9135C132.79 12.6255 133.528 12.4815 134.404 12.4815C135.1 12.4815 135.7 12.5655 136.204 12.7335C136.72 12.8895 137.152 13.0935 137.5 13.3455C137.86 13.5975 138.13 13.8555 138.31 14.1195C138.49 14.3835 138.586 14.6235 138.598 14.8395C138.61 14.9595 138.574 15.0675 138.49 15.1635C138.406 15.2475 138.31 15.2895 138.202 15.2895H136.33C136.282 15.2895 136.234 15.2835 136.186 15.2715C136.138 15.2475 136.096 15.2235 136.06 15.1995C135.916 15.1275 135.772 15.0315 135.628 14.9115C135.484 14.7915 135.316 14.6835 135.124 14.5875C134.932 14.4915 134.692 14.4435 134.404 14.4435C134.08 14.4435 133.828 14.5155 133.648 14.6595C133.468 14.8035 133.378 14.9895 133.378 15.2175C133.378 15.3735 133.426 15.5175 133.522 15.6495C133.63 15.7815 133.84 15.9015 134.152 16.0095C134.476 16.1175 134.974 16.2375 135.646 16.3695C136.474 16.5015 137.134 16.7175 137.626 17.0175C138.118 17.3055 138.466 17.6475 138.67 18.0435C138.874 18.4275 138.976 18.8355 138.976 19.2675C138.976 19.8435 138.802 20.3535 138.454 20.7975C138.118 21.2415 137.614 21.5895 136.942 21.8415C136.27 22.0815 135.454 22.2015 134.494 22.2015Z" fill="black"/>
</g>
<defs>
<filter id="filter0_bddd_5528_2611" x="-9.15137" y="-11.2085" width="168.127" height="56.6499" filterUnits="userSpaceOnUse" color-interpolation-filters="sRGB">
<feFlood flood-opacity="0" result="BackgroundImageFix"/>
<feGaussianBlur in="BackgroundImageFix" stdDeviation="10"/>
<feComposite in2="SourceAlpha" operator="in" result="effect1_backgroundBlur_5528_2611"/>
<feColorMatrix in="SourceAlpha" type="matrix" values="0 0 0 0 0 0 0 0 0 0 0 0 0 0 0 0 0 0 127 0" result="hardAlpha"/>
<feOffset dy="10"/>
<feGaussianBlur stdDeviation="5"/>
<feComposite in2="hardAlpha" operator="out"/>
<feColorMatrix type="matrix" values="0 0 0 0 0 0 0 0 0 0 0 0 0 0 0 0 0 0 0.1 0"/>
<feBlend mode="normal" in2="effect1_backgroundBlur_5528_2611" result="effect2_dropShadow_5528_2611"/>
<feColorMatrix in="SourceAlpha" type="matrix" values="0 0 0 0 0 0 0 0 0 0 0 0 0 0 0 0 0 0 127 0" result="hardAlpha"/>
<feOffset dy="4"/>
<feGaussianBlur stdDeviation="2"/>
<feComposite in2="hardAlpha" operator="out"/>
<feColorMatrix type="matrix" values="0 0 0 0 0 0 0 0 0 0 0 0 0 0 0 0 0 0 0.05 0"/>
<feBlend mode="normal" in2="effect2_dropShadow_5528_2611" result="effect3_dropShadow_5528_2611"/>
<feColorMatrix in="SourceAlpha" type="matrix" values="0 0 0 0 0 0 0 0 0 0 0 0 0 0 0 0 0 0 127 0" result="hardAlpha"/>
<feOffset dy="1"/>
<feComposite in2="hardAlpha" operator="out"/>
<feColorMatrix type="matrix" values="0 0 0 0 0 0 0 0 0 0 0 0 0 0 0 0 0 0 0.05 0"/>
<feBlend mode="normal" in2="effect3_dropShadow_5528_2611" result="effect4_dropShadow_5528_2611"/>
<feBlend mode="normal" in="SourceGraphic" in2="effect4_dropShadow_5528_2611" result="shape"/>
</filter>
<radialGradient id="paint0_angular_5528_2611" cx="0" cy="0" r="1" gradientUnits="userSpaceOnUse" gradientTransform="translate(75.3438 15) scale(56.3438 15)">
<stop offset="0.269613" stop-color="#FF9D3F"/>
<stop offset="0.504104" stop-color="#F46772"/>
<stop offset="0.612837" stop-color="#AF33E4"/>
<stop offset="0.743238" stop-color="#2F70E4"/>
<stop offset="0.986924" stop-color="#56D6FF"/>
</radialGradient>
</defs>
</svg>
