<svg width="149" height="75" viewBox="0 0 149 75" fill="none" xmlns="http://www.w3.org/2000/svg">
<path d="M148.496 73.9956C148.496 54.3707 140.7 35.5497 126.823 21.6728C112.946 7.79595 94.1249 1.4991e-06 74.5 1.74661e-08C54.8752 -1.46417e-06 36.0541 7.79594 22.1772 21.6728C8.30037 35.5497 0.504428 54.3707 0.504425 73.9956H19.0033C19.0033 59.2769 24.8503 45.1611 35.2579 34.7535C45.6656 24.3458 59.7814 18.4989 74.5 18.4989C89.2187 18.4989 103.334 24.3458 113.742 34.7535C124.15 45.1611 129.997 59.2769 129.997 73.9956H148.496Z" fill="#059669"/>
<path d="M38.6626 9.25745C27.0681 15.6759 17.4101 25.0904 10.6978 36.5173C3.98544 47.9443 0.465163 60.9642 0.504755 74.2166L19.0036 74.1614C18.9739 64.222 21.6141 54.4571 26.6483 45.8869C31.6826 37.3167 38.926 30.2558 47.6219 25.442L38.6626 9.25745Z" fill="#FF7878"/>
<path d="M111.498 9.91353C100.277 3.43525 87.552 0.0167799 74.5955 6.16173e-05C61.6389 -0.0166567 48.9051 3.36896 37.6677 9.81826L46.8758 25.8626C55.3038 21.0256 64.8542 18.4864 74.5716 18.4989C84.289 18.5115 93.8328 21.0753 102.248 25.934L111.498 9.91353Z" fill="#92E708"/>
</svg>
