<svg width="35" height="35" viewBox="0 0 35 35" fill="none" xmlns="http://www.w3.org/2000/svg">
<path d="M27.7083 32.0834H7.29163C4.87079 32.0834 2.91663 30.1292 2.91663 27.7084V7.29175C2.91663 4.87091 4.87079 2.91675 7.29163 2.91675H27.7083C30.1291 2.91675 32.0833 4.87091 32.0833 7.29175V27.7084C32.0833 30.1292 30.1291 32.0834 27.7083 32.0834Z" fill="#E0F0FD"/>
<path d="M17.5002 17.4998C20.3191 17.4998 22.6043 15.2146 22.6043 12.3957C22.6043 9.57672 20.3191 7.2915 17.5002 7.2915C14.6812 7.2915 12.396 9.57672 12.396 12.3957C12.396 15.2146 14.6812 17.4998 17.5002 17.4998Z" stroke="#EC5863" stroke-width="3.5" stroke-miterlimit="10" stroke-linecap="round" stroke-linejoin="round"/>
<path d="M29.6188 31.6458C28.4084 26.0604 23.4355 21.875 17.5001 21.875C11.5647 21.875 6.59176 26.0604 5.38135 31.6458C5.9501 31.9229 6.60635 32.0833 7.29176 32.0833H27.7084C28.3938 32.0833 29.0501 31.9229 29.6188 31.6458Z" stroke="#EC5863" stroke-width="3.5" stroke-miterlimit="10" stroke-linecap="round" stroke-linejoin="round"/>
<path d="M27.7082 32.0832H7.2915C4.87067 32.0832 2.9165 30.129 2.9165 27.7082V7.2915C2.9165 4.87067 4.87067 2.9165 7.2915 2.9165H27.7082C30.129 2.9165 32.0832 4.87067 32.0832 7.2915V27.7082C32.0832 30.129 30.129 32.0832 27.7082 32.0832Z" stroke="#EC5863" stroke-opacity="0.5" stroke-width="3.5" stroke-linecap="round" stroke-linejoin="round"/>
</svg>
