<svg width="17" height="16" viewBox="0 0 17 16" fill="none" xmlns="http://www.w3.org/2000/svg">
<path d="M2.6697 10.5999C1.93079 11.8797 1.56144 12.5202 1.61663 13.0453C1.66477 13.5034 1.90516 13.9191 2.27774 14.1898C2.70475 14.5 3.4432 14.5 4.92002 14.5H12.8036C14.2804 14.5 15.0188 14.5 15.4458 14.1898C15.8184 13.9191 16.0589 13.5034 16.107 13.0453C16.1622 12.5202 15.793 11.8797 15.054 10.5999L11.1136 3.77488C10.3747 2.49505 10.0051 1.85524 9.52277 1.64049C9.10205 1.45317 8.62133 1.45317 8.20061 1.64049C7.71846 1.85515 7.34907 2.49496 6.61077 3.77373L2.6697 10.5999Z" stroke="white" stroke-width="1.5" stroke-linecap="round" stroke-linejoin="round"/>
<path d="M8.34178 10.4959C8.27679 10.4959 8.22154 10.4764 8.17604 10.4374C8.13054 10.3919 8.10779 10.3334 8.10779 10.2619V5.79645C8.10779 5.73145 8.13054 5.6762 8.17604 5.6307C8.22154 5.5852 8.27679 5.56245 8.34178 5.56245H9.13153C9.20303 5.56245 9.25828 5.5852 9.29728 5.6307C9.34278 5.6762 9.36553 5.73145 9.36553 5.79645V10.2619C9.36553 10.3334 9.34278 10.3919 9.29728 10.4374C9.25828 10.4764 9.20303 10.4959 9.13153 10.4959H8.34178ZM8.28329 12.3874C8.21179 12.3874 8.15329 12.3647 8.10779 12.3192C8.06879 12.2737 8.04929 12.2184 8.04929 12.1534V11.2467C8.04929 11.1752 8.06879 11.1167 8.10779 11.0712C8.15329 11.0257 8.21179 11.0029 8.28329 11.0029H9.19003C9.26153 11.0029 9.32003 11.0257 9.36553 11.0712C9.41103 11.1167 9.43378 11.1752 9.43378 11.2467V12.1534C9.43378 12.2184 9.41103 12.2737 9.36553 12.3192C9.32003 12.3647 9.26153 12.3874 9.19003 12.3874H8.28329Z" fill="white"/>
</svg>
