<svg width="28" height="37" viewBox="0 0 28 37" fill="none" xmlns="http://www.w3.org/2000/svg">
<path d="M10.5001 29H17.5001C18.0426 29.7175 18.3751 30.645 18.3751 31.625C18.3751 34.04 16.4151 35.9999 14.0001 35.9999C11.5851 35.9999 9.62512 34.04 9.62512 31.625C9.62512 30.645 9.95762 29.7175 10.5001 29Z" fill="#FCEBF8" stroke="#EC5863" stroke-width="2" stroke-miterlimit="10" stroke-linecap="round" stroke-linejoin="round"/>
<path d="M11.2248 6.62174C12.1091 6.37939 13.0397 6.24996 14.0002 6.24996C14.9607 6.24996 15.8913 6.37939 16.7756 6.62174C17.2416 6.02909 17.5002 5.29901 17.5002 4.49997C17.5002 2.57499 15.9252 1 14.0002 1C12.0752 1 10.5002 2.57499 10.5002 4.49997C10.5002 5.29901 10.7589 6.02909 11.2248 6.62174Z" fill="#FCEBF8" stroke="#EC5863" stroke-width="2" stroke-miterlimit="10" stroke-linecap="round" stroke-linejoin="round"/>
<path d="M3.49997 21.5271C3.49997 21.8376 3.42768 22.1438 3.28883 22.4216L1.44721 26.1048C0.782313 27.4346 1.7493 28.9992 3.23607 28.9992H24.7637C26.2505 28.9992 27.2175 27.4346 26.5526 26.1048L24.7109 22.4216C24.5721 22.1438 24.4998 21.8376 24.4998 21.5271V16.7493C24.4998 10.9569 19.7923 6.24939 13.9999 6.24939C8.20743 6.24939 3.49997 10.9569 3.49997 16.7493V21.5271Z" fill="#FCEBF8" stroke="#EC5863" stroke-width="2" stroke-miterlimit="10" stroke-linecap="round" stroke-linejoin="round"/>
</svg>
