<svg width="36" height="45" viewBox="0 0 36 45" fill="none" xmlns="http://www.w3.org/2000/svg">
<path d="M0 38.6484C0 42.8612 2.10632 45 6.28628 45H28.77C32.95 45 35.0563 42.8612 35.0563 38.6484V6.35161C35.0563 2.13897 32.95 0 28.77 0H6.28628C2.10632 0 0 2.13897 0 6.35161V38.6484ZM2.89006 38.5832V6.41692C2.89006 4.13098 4.09835 2.89006 6.44957 2.89006H28.6067C30.9579 2.89006 32.1662 4.13098 32.1662 6.41692V38.5832C32.1662 40.8692 30.9579 42.1101 28.6067 42.1101H6.44957C4.09835 42.1101 2.89006 40.8692 2.89006 38.5832Z" fill="#287EFF"/>
<path d="M9.27428 28.982H25.8472C26.5003 28.982 26.9902 28.4759 26.9902 27.8391C26.9902 27.2023 26.5003 26.7124 25.8472 26.7124H9.27428C8.60482 26.7124 8.11499 27.2023 8.11499 27.8391C8.11499 28.4759 8.60482 28.982 9.27428 28.982ZM9.27428 35.3825H17.1934C17.8465 35.3825 18.3363 34.8929 18.3363 34.2723C18.3363 33.6356 17.8465 33.1293 17.1934 33.1293H9.27428C8.60482 33.1293 8.11499 33.6356 8.11499 34.2723C8.11499 34.8929 8.60482 35.3825 9.27428 35.3825Z" fill="#287EFF"/>
<path d="M17.0791 18.6795C17.8465 18.6795 18.3363 18.1896 18.3363 17.5528C18.3363 17.4385 18.3363 17.3406 18.3363 17.2263C18.3363 16.2629 18.8425 15.6914 20.0834 14.8424C21.8142 13.6994 22.9082 12.6218 22.9082 10.6624C22.9082 7.93561 20.4753 6.33545 17.5689 6.33545C14.9728 6.33545 12.6705 7.70702 12.246 9.65004C12.197 9.87863 12.1807 10.0909 12.1807 10.3522C12.1807 11.0706 12.7358 11.4625 13.2746 11.4625C13.8298 11.4625 14.1727 11.2012 14.4339 10.793L14.6625 10.4338C15.0871 9.30718 16.0831 8.5071 17.4546 8.5071C19.1854 8.5071 20.2304 9.42148 20.2304 10.7767C20.2304 11.9033 19.5609 12.4911 18.0098 13.5851C16.6872 14.4995 15.8381 15.4465 15.8381 17.112C15.8381 17.2263 15.8381 17.3242 15.8381 17.4549C15.8381 18.2549 16.2953 18.6795 17.0791 18.6795ZM17.0627 23.6921C17.9934 23.6921 18.8262 22.9247 18.8262 21.9777C18.8262 20.998 18.0261 20.2306 17.0627 20.2306C16.0667 20.2306 15.2667 21.0144 15.2667 21.9777C15.2667 22.9084 16.0831 23.6921 17.0627 23.6921Z" fill="#287EFF"/>
</svg>
