<svg width="41" height="36" viewBox="0 0 41 36" fill="none" xmlns="http://www.w3.org/2000/svg">
<g id="Chart">
<path id="Vector" d="M39.9207 12.7946C39.9207 14.5322 38.5191 15.9486 36.7814 15.9486C36.0819 15.9486 35.4369 15.719 34.9181 15.3286L25.7003 20.9518C25.7383 21.1421 25.7572 21.3393 25.7572 21.541C25.7572 23.2785 24.3554 24.6803 22.6179 24.6803C20.8803 24.6803 19.4785 23.2785 19.4785 21.541C19.4785 21.0801 19.5771 20.643 19.7568 20.2506L15.7847 16.7866C15.2324 17.2838 14.5003 17.5839 13.6963 17.5839C12.7857 17.5839 11.9633 17.199 11.3893 16.5802L2.58447 21.6909V19.4153L10.5641 14.8019C10.5492 14.685 10.5423 14.5656 10.5423 14.4446C10.5423 12.707 11.9587 11.3053 13.6963 11.3053C15.4339 11.3053 16.8356 12.707 16.8356 14.4446C16.8356 14.6806 16.8097 14.9105 16.7586 15.1306L21.0174 18.8419C21.4841 18.561 22.0319 18.4016 22.6179 18.4016C23.4356 18.4016 24.179 18.7121 24.7344 19.2246L33.7748 13.6998C33.6881 13.4133 33.642 13.1092 33.642 12.7946C33.642 11.057 35.0439 9.65527 36.7814 9.65527C38.5191 9.65527 39.9207 11.057 39.9207 12.7946Z" fill="#EC5863"/>
<path id="Vector_2" d="M0 34.0545C0 34.8721 0.540258 35.4124 1.35795 35.4124H39.0155C39.7162 35.4124 40.3148 34.8577 40.3148 34.1274C40.3148 33.3975 39.7162 32.8425 39.0155 32.8425H3.06633C2.70129 32.8425 2.58448 32.7258 2.58448 32.3607V1.88719C2.58448 1.20091 2.02962 0.587646 1.29954 0.587646C0.569463 0.587646 0 1.20091 0 1.88719V34.0545Z" fill="#EC5863"/>
</g>
</svg>
