<svg width="24" height="23" viewBox="0 0 24 23" fill="none" xmlns="http://www.w3.org/2000/svg">
<path d="M15.3214 22.9903H21.2498C22.7369 22.9903 23.5001 22.2662 23.5001 20.7108V14.8507C23.5001 13.2952 22.7369 12.5615 21.2498 12.5615H15.3214C13.8246 12.5615 13.0713 13.2952 13.0713 14.8507V20.7108C13.0713 22.2662 13.8246 22.9903 15.3214 22.9903Z" fill="#64748B" fill-opacity="0.75"/>
<path d="M2.75011 22.9903H8.67864C10.1657 22.9903 10.9288 22.2662 10.9288 20.7108V14.8507C10.9288 13.2952 10.1657 12.5615 8.67864 12.5615H2.75011C1.26308 12.5615 0.5 13.2952 0.5 14.8507V20.7108C0.5 22.2662 1.26308 22.9903 2.75011 22.9903Z" fill="#64748B" fill-opacity="0.75"/>
<path d="M15.3214 10.419H21.2498C22.7369 10.419 23.5001 9.69503 23.5001 8.13951V2.27945C23.5001 0.723948 22.7369 0 21.2498 0H15.3214C13.8246 0 13.0713 0.723948 13.0713 2.27945V8.13951C13.0713 9.69503 13.8246 10.419 15.3214 10.419Z" fill="#64748B" fill-opacity="0.75"/>
<path d="M2.75011 10.419H8.67864C10.1657 10.419 10.9288 9.69503 10.9288 8.13951V2.27945C10.9288 0.723948 10.1657 0 8.67864 0H2.75011C1.26308 0 0.5 0.723948 0.5 2.27945V8.13951C0.5 9.69503 1.26308 10.419 2.75011 10.419Z" fill="#64748B" fill-opacity="0.75"/>
</svg>
