<svg width="76" height="75" viewBox="0 0 76 75" fill="none" xmlns="http://www.w3.org/2000/svg">
<path d="M53.625 10.4375C58.3383 13.1589 62.2592 17.0641 64.9994 21.7666C67.7397 26.469 69.2043 31.8055 69.2482 37.2479C69.2922 42.6903 67.914 48.0499 65.2501 52.7959C62.5861 57.542 58.7289 61.51 54.0601 64.3073C49.3914 67.1045 44.073 68.6338 38.6316 68.744C33.1901 68.8541 27.8142 67.5412 23.0361 64.9351C18.258 62.3291 14.2433 58.5204 11.3896 53.886C8.53582 49.2516 6.9419 43.9522 6.76563 38.5125L6.75 37.5L6.76563 36.4875C6.94064 31.0906 8.51109 25.8311 11.3239 21.2219C14.1367 16.6126 18.0958 12.8108 22.8153 10.1871C27.5348 7.56348 32.8536 6.20749 38.2531 6.25137C43.6527 6.29525 48.9488 7.73749 53.625 10.4375ZM38 41.25C36.1294 41.2499 34.2776 41.6229 32.553 42.3473C30.8284 43.0717 29.2656 44.1329 27.9563 45.4688C27.6621 45.7603 27.4289 46.1074 27.2701 46.4899C27.1113 46.8724 27.0301 47.2826 27.0313 47.6967C27.0324 48.1109 27.1159 48.5207 27.2768 48.9023C27.4377 49.2839 27.6728 49.6297 27.9685 49.9196C28.2643 50.2095 28.6147 50.4378 28.9994 50.5911C29.3841 50.7444 29.7954 50.8197 30.2095 50.8127C30.6236 50.8056 31.0321 50.7163 31.4114 50.55C31.7907 50.3836 32.1331 50.1436 32.4187 49.8438C33.1462 49.1011 34.0145 48.511 34.9729 48.1082C35.9313 47.7054 36.9604 47.4979 38 47.4979C39.0396 47.4979 40.0687 47.7054 41.0271 48.1082C41.9855 48.511 42.8538 49.1011 43.5812 49.8438C44.1644 50.4218 44.9516 50.7471 45.7726 50.7494C46.5937 50.7516 47.3827 50.4307 47.969 49.8559C48.5553 49.281 48.8918 48.4986 48.9058 47.6776C48.9198 46.8567 48.6101 46.0632 48.0438 45.4688C46.7343 44.1329 45.1716 43.0717 43.447 42.3473C41.7224 41.6229 39.8706 41.2499 38 41.25ZM28.6562 28.125L28.2594 28.1469C27.4998 28.2372 26.7998 28.603 26.2919 29.1749C25.784 29.7468 25.5035 30.4851 25.5035 31.25C25.5035 32.0149 25.784 32.7532 26.2919 33.3251C26.7998 33.897 27.4998 34.2628 28.2594 34.3531L28.625 34.375L29.0219 34.3531C29.7814 34.2628 30.4814 33.897 30.9893 33.3251C31.4972 32.7532 31.7778 32.0149 31.7778 31.25C31.7778 30.4851 31.4972 29.7468 30.9893 29.1749C30.4814 28.603 29.7814 28.2372 29.0219 28.1469L28.6562 28.125ZM47.4062 28.125L47.0094 28.1469C46.2498 28.2372 45.5498 28.603 45.0419 29.1749C44.534 29.7468 44.2535 30.4851 44.2535 31.25C44.2535 32.0149 44.534 32.7532 45.0419 33.3251C45.5498 33.897 46.2498 34.2628 47.0094 34.3531L47.375 34.375L47.7719 34.3531C48.5314 34.2628 49.2314 33.897 49.7393 33.3251C50.2472 32.7532 50.5278 32.0149 50.5278 31.25C50.5278 30.4851 50.2472 29.7468 49.7393 29.1749C49.2314 28.603 48.5314 28.2372 47.7719 28.1469L47.4062 28.125Z" fill="#E63C49"/>
</svg>
