<svg width="21" height="21" viewBox="0 0 21 21" fill="none" xmlns="http://www.w3.org/2000/svg">
<path fill-rule="evenodd" clip-rule="evenodd" d="M0.5 4.5C0.5 2.29086 2.29086 0.5 4.5 0.5C6.70914 0.5 8.5 2.29086 8.5 4.5C8.5 6.70914 6.70914 8.5 4.5 8.5C2.29086 8.5 0.5 6.70914 0.5 4.5ZM12.5 4.5C12.5 2.29086 14.2909 0.5 16.5 0.5C18.7091 0.5 20.5 2.29086 20.5 4.5C20.5 6.70914 18.7091 8.5 16.5 8.5C14.2909 8.5 12.5 6.70914 12.5 4.5ZM0.5 16.5C0.5 14.2909 2.29086 12.5 4.5 12.5C6.70914 12.5 8.5 14.2909 8.5 16.5C8.5 18.7091 6.70914 20.5 4.5 20.5C2.29086 20.5 0.5 18.7091 0.5 16.5ZM12.5 16.5C12.5 14.2909 14.2909 12.5 16.5 12.5C18.7091 12.5 20.5 14.2909 20.5 16.5C20.5 18.7091 18.7091 20.5 16.5 20.5C14.2909 20.5 12.5 18.7091 12.5 16.5Z" fill="white"/>
</svg>
