<svg width="14" height="14" viewBox="0 0 14 14" fill="none" xmlns="http://www.w3.org/2000/svg">
<path d="M10.2656 2.53387L6.76216 0.64882C6.39011 0.450393 5.94985 0.450393 5.5778 0.64882L2.08052 2.53387C1.82629 2.67649 1.66507 2.94933 1.66507 3.24697C1.66507 3.55081 1.82009 3.82364 2.08052 3.96006L5.584 5.84509C5.77003 5.9443 5.97466 5.99391 6.17308 5.99391C6.37151 5.99391 6.58234 5.9443 6.76216 5.84509L10.2656 3.96006C10.5199 3.82364 10.6811 3.55081 10.6811 3.24697C10.6811 2.94933 10.5199 2.67649 10.2656 2.53387Z" fill="#0C5ABC"/>
<path d="M5.00733 6.50238L1.7519 4.87779C1.49767 4.74757 1.21243 4.76617 0.970596 4.90879C0.734965 5.05761 0.592346 5.31184 0.592346 5.59086V8.66647C0.592346 9.19974 0.889986 9.67721 1.36745 9.91904L4.62288 11.5437C4.7345 11.5995 4.85851 11.6305 4.98253 11.6305C5.12515 11.6305 5.27397 11.5871 5.40419 11.5127C5.63982 11.3638 5.78244 11.1096 5.78244 10.8306V7.75495C5.77624 7.22168 5.4786 6.74422 5.00733 6.50238Z" fill="#0C5ABC"/>
<path d="M11.7538 5.59086V7.11626C11.4562 7.02945 11.14 6.99225 10.8237 6.99225C9.9804 6.99225 9.15569 7.28369 8.5046 7.80456C7.61168 8.50525 7.10322 9.56559 7.10322 10.7127C7.10322 11.0166 7.14042 11.3204 7.22103 11.6119C7.12802 11.5995 7.03501 11.5623 6.9482 11.5064C6.71257 11.3638 6.56995 11.1096 6.56995 10.8306V7.75495C6.56995 7.22168 6.86759 6.74422 7.33885 6.50238L10.5943 4.87779C10.8485 4.74757 11.1338 4.76617 11.3756 4.90879C11.6112 5.05761 11.7538 5.31184 11.7538 5.59086Z" fill="#0C5ABC"/>
<path d="M12.7956 8.7409C12.2437 8.18903 11.512 7.90999 10.7865 7.92239C10.0858 7.92859 9.38512 8.20763 8.85185 8.7409C8.4798 9.10675 8.23797 9.56561 8.12015 10.0431C8.05194 10.3035 8.02714 10.5701 8.04574 10.8368V10.8678C8.04574 10.9112 8.05194 10.9484 8.05815 10.998C8.05815 10.998 8.05815 10.998 8.06435 11.0042V11.0228C8.12015 11.6305 8.38059 12.2196 8.85185 12.6846C9.57115 13.4039 10.5819 13.6458 11.4934 13.4163C11.7662 13.3481 12.0329 13.2365 12.2809 13.0877C12.4669 12.9823 12.6406 12.8458 12.7956 12.6846C13.2606 12.2196 13.5273 11.6305 13.5831 11.0166C13.5893 11.0166 13.5893 11.0042 13.5893 10.998C13.6017 10.9546 13.6017 10.905 13.6017 10.8616C13.6017 10.8554 13.6079 10.843 13.6079 10.8306C13.6451 10.0803 13.3723 9.31138 12.7956 8.7409ZM11.8965 11.7731C11.7166 11.9529 11.4252 11.9529 11.2392 11.7731L10.8299 11.3639L10.4083 11.7855C10.2222 11.9715 9.93079 11.9715 9.75097 11.7855C9.56495 11.6057 9.56495 11.3142 9.75097 11.1282L10.1726 10.7066L9.76337 10.2973C9.58355 10.1113 9.58355 9.81985 9.76337 9.64002C9.9494 9.454 10.2408 9.454 10.4269 9.64002L10.8299 10.0493L11.2206 9.65242C11.4066 9.4726 11.698 9.4726 11.8841 9.65242C12.0639 9.83845 12.0639 10.1299 11.8841 10.3159L11.4872 10.7066L11.8965 11.1096C12.0825 11.2956 12.0825 11.5871 11.8965 11.7731Z" fill="#0C5ABC"/>
</svg>
