<svg width="28" height="23" viewBox="0 0 28 23" fill="none" xmlns="http://www.w3.org/2000/svg">
<path d="M26.1753 5.02953L16.5785 0.635052C15.5743 0.182012 14.789 -0.0143004 14.0037 0.000807659C13.2109 -0.0143004 12.4256 0.182012 11.4214 0.635052L1.82454 5.02953C1.25069 5.28624 0.971313 5.75439 0.971313 6.22252C0.971313 6.69067 1.25069 7.13615 1.82454 7.40042L6.12085 9.35604L12.1236 6.4868C12.0405 6.3962 12.0028 6.30558 12.0028 6.21498C12.0028 5.64868 12.9693 5.18055 14.0339 5.18055C15.091 5.18055 16.0499 5.64868 16.0499 6.21498C16.0499 6.80393 15.091 7.27206 14.0339 7.27206C13.6866 7.27206 13.3619 7.22677 13.0674 7.13615L7.28365 9.90725L11.4214 11.8024C12.4256 12.2631 13.2109 12.4517 14.0037 12.4443C14.789 12.4517 15.5743 12.2631 16.5785 11.8024L26.1753 7.40042C26.7492 7.13615 27.0286 6.69067 27.0286 6.22252C27.0286 5.75439 26.7492 5.28624 26.1753 5.02953ZM7.25345 11.2136V17.0879C8.85419 18.062 11.1571 18.6961 14.0037 18.6961C19.6818 18.6961 23.2457 16.1969 23.2457 13.524V10.0658L17.0843 12.8897C15.9669 13.4032 14.9702 13.6599 14.0037 13.6448C13.0297 13.6599 12.033 13.4032 10.9155 12.8897L7.25345 11.2136ZM4.75419 10.0734V13.524C4.75419 14.347 5.24497 15.3663 6.1586 16.2346V10.7152L4.75419 10.0734ZM6.1586 19.187H7.25345V17.0879C6.83817 16.8312 6.46818 16.5442 6.1586 16.2346V19.187ZM5.39599 19.2398V21.8221C5.39599 22.5471 5.84903 23 6.56633 23H6.83061C7.55547 23 8.00851 22.5471 8.00851 21.8221V19.2398C8.00851 18.5225 7.55547 18.0696 6.83061 18.0696H6.56633C5.84903 18.0696 5.39599 18.5225 5.39599 19.2398Z" fill="#64748B" fill-opacity="0.75"/>
</svg>
