<svg width="25" height="23" viewBox="0 0 25 23" fill="none" xmlns="http://www.w3.org/2000/svg">
<path d="M17.2068 0.730774H2.13155C1.23049 0.730774 0.5 1.46001 0.5 2.35953V20.6398C0.5 21.5393 1.23049 22.2686 2.13155 22.2686H11.8421C11.083 21.5939 10.6044 20.6112 10.6044 19.5193C10.6044 19.0202 10.7041 18.534 10.9 18.0732C10.9358 17.9907 10.9742 17.9081 11.0153 17.8282C11.0771 17.7086 11.1468 17.5896 11.2216 17.4766L11.2236 17.474L11.2256 17.4714L14.9398 11.9449C14.973 11.8948 15.0023 11.8428 15.0271 11.7902C15.0336 11.7772 15.0395 11.7636 15.0453 11.7506C15.057 11.7239 15.0675 11.6966 15.0766 11.67C15.1195 11.5471 15.141 11.4197 15.141 11.2904V8.66333C14.7478 8.3754 14.4926 7.91134 14.4926 7.38879C14.4926 6.86624 14.7491 6.40088 15.1423 6.11425H15.1443C15.3116 5.99141 15.5024 5.90107 15.7107 5.85232C15.8272 5.82373 15.9496 5.80943 16.0746 5.80943H18.839V2.35953C18.839 1.46001 18.1085 0.730774 17.2068 0.730774Z" fill="#90BAFF"/>
<path d="M17.2068 0.730774H2.13155C1.23049 0.730774 0.5 1.46001 0.5 2.35953V20.6398C0.5 21.5393 1.23049 22.2686 2.13155 22.2686H11.8421C11.083 21.5939 10.6044 20.6112 10.6044 19.5193C10.6044 19.0202 10.7041 18.534 10.9 18.0732C10.9358 17.9907 10.9742 17.9081 11.0153 17.8282C11.0771 17.7086 11.1468 17.5896 11.2216 17.4766L11.2236 17.474L11.2256 17.4714L14.9398 11.9449C14.973 11.8948 15.0023 11.8428 15.0271 11.7902C15.0336 11.7772 15.0395 11.7636 15.0453 11.7506C15.057 11.7239 15.0675 11.6966 15.0766 11.67C15.1195 11.5471 15.141 11.4197 15.141 11.2904V8.66333C14.7478 8.3754 14.4926 7.91134 14.4926 7.38879C14.4926 6.86624 14.7491 6.40088 15.1423 6.11425H15.1443C15.3116 5.99141 15.5024 5.90107 15.7107 5.85232C15.8272 5.82373 15.9496 5.80943 16.0746 5.80943H18.839V2.35953C18.839 1.46001 18.1085 0.730774 17.2068 0.730774Z" fill="black" fill-opacity="0.2"/>
<path d="M8.86028 18.4995H4.22473C3.77811 18.4995 3.41547 18.1375 3.41547 17.6917C3.41547 17.2458 3.77811 16.8838 4.22473 16.8838H8.86028C9.3069 16.8838 9.66954 17.2458 9.66954 17.6917C9.66954 18.1375 9.3069 18.4995 8.86028 18.4995Z" fill="white"/>
<path d="M8.86028 14.1917H4.22473C3.77811 14.1917 3.41547 13.8297 3.41547 13.3839C3.41547 12.938 3.77811 12.576 4.22473 12.576H8.86028C9.3069 12.576 9.66954 12.938 9.66954 13.3839C9.66954 13.8297 9.3069 14.1917 8.86028 14.1917Z" fill="white"/>
<path d="M15.141 8.80827V10.4221C15.1319 10.4227 15.1235 10.4227 15.1144 10.4227H4.22473C3.77811 10.4227 3.41547 10.0607 3.41547 9.61485C3.41547 9.16899 3.77811 8.80762 4.22473 8.80762H15.1144C15.1235 8.80762 15.1319 8.80762 15.141 8.80827Z" fill="white"/>
<path d="M15.923 5.30767C15.923 5.5176 15.8429 5.70868 15.7107 5.85232C15.5024 5.90106 15.3116 5.99141 15.1443 6.11424H15.1423C15.1332 6.11489 15.1235 6.11489 15.1144 6.11489H4.22473C3.77811 6.11489 3.41547 5.75353 3.41547 5.30767C3.41547 4.8618 3.77811 4.49979 4.22473 4.49979H15.1144C15.561 4.49979 15.923 4.8618 15.923 5.30767Z" fill="white"/>
<path d="M24.5 19.5193C24.5 21.035 23.2636 22.2692 21.7454 22.2692H14.2927C14.2692 22.2692 14.2451 22.2692 14.2217 22.2686C12.736 22.2309 11.5387 21.0116 11.5387 19.5193C11.5387 19.1469 11.6142 18.7803 11.7601 18.4385C11.7861 18.3767 11.8147 18.3156 11.846 18.2552C11.8929 18.1648 11.9443 18.0765 12.0009 17.9907L15.7165 12.4622C15.7751 12.3745 15.8266 12.2835 15.8715 12.1899C15.8826 12.1665 15.8936 12.1425 15.9034 12.1191C15.9242 12.0716 15.9431 12.0229 15.96 11.9741C16.0356 11.7551 16.0746 11.5244 16.0746 11.2904V8.03613C15.7172 8.03613 15.4268 7.74626 15.4268 7.38879C15.4268 7.03132 15.7172 6.7421 16.0746 6.7421H19.9634C20.3208 6.7421 20.6112 7.03197 20.6112 7.38879C20.6112 7.74561 20.3208 8.03613 19.9634 8.03613V11.2904C19.9634 11.7064 20.0871 12.1126 20.3221 12.4635L24.0351 17.9874C24.3398 18.4482 24.5 18.9773 24.5 19.5193Z" fill="#EC5863"/>
</svg>
