<svg width="33" height="32" viewBox="0 0 33 32" fill="none" xmlns="http://www.w3.org/2000/svg">
<path fill-rule="evenodd" clip-rule="evenodd" d="M7.41164 22.6705C7.03961 22.6705 6.66749 22.5892 6.34457 22.4202C5.84615 22.1699 5.49507 21.7695 5.36182 21.2939L0.59505 5.29446C0.41947 4.81885 0.489701 4.31829 0.784544 3.88032C1.05835 3.47358 1.50061 3.16066 2.03423 3.00431C2.04127 3.00431 2.05527 2.99804 2.06231 2.99804L14.4881 0.0571748H14.4952C15.5833 -0.186796 16.6784 0.370019 17.0435 1.34612C17.0435 1.3524 17.0505 1.36495 17.0505 1.37122L21.8243 17.3894V17.3957C22.0981 18.3656 21.4733 19.3417 20.3781 19.6671C20.3711 19.6671 20.3571 19.6733 20.35 19.6733L7.92422 22.6142H7.91718C7.75567 22.6518 7.58713 22.6705 7.41164 22.6705Z" fill="#5898FF"/>
<path fill-rule="evenodd" clip-rule="evenodd" d="M20.3779 26.1745C20.2024 26.1745 20.0199 26.1557 19.8374 26.1182C19.8304 26.1182 19.8233 26.1182 19.8163 26.1119L8.54382 23.3728L20.5046 20.542H20.5374L20.6885 20.4972C22.1997 20.0481 23.1284 18.6863 22.8059 17.2976V17.2753L19.1172 4.89795L25.7553 6.5083C26.8364 6.75235 27.5104 7.79725 27.2296 8.79218V8.79845L22.3856 24.8104C22.1541 25.6427 21.3327 26.1745 20.3779 26.1745Z" fill="#EC5863"/>
<path fill-rule="evenodd" clip-rule="evenodd" d="M17.282 32C16.7555 32 16.2219 31.8185 15.8148 31.4493L7.39221 23.9999L19.4468 26.929C19.5561 26.9705 19.6539 26.986 19.7246 26.9914C19.9395 27.0294 20.1588 27.0495 20.3779 27.0495C21.7787 27.0495 22.9682 26.2457 23.3334 25.0382L27.0469 12.7634L31.8839 17.1268C32.7053 17.8588 32.7053 19.0102 31.8839 19.7485L18.7562 31.4493C18.342 31.8123 17.8085 32 17.2819 32L17.282 32Z" fill="#77D9A5"/>
</svg>
