<svg width="46" height="21" viewBox="0 0 46 21" fill="none" xmlns="http://www.w3.org/2000/svg">
<mask id="path-1-outside-1_6726_3443" maskUnits="userSpaceOnUse" x="0.5" y="3" width="44" height="15" fill="black">
<rect fill="white" x="0.5" y="3" width="44" height="15"/>
<path d="M6.385 16C6.205 16 6.06 15.95 5.95 15.85C5.85 15.75 5.785 15.645 5.755 15.535L2.8 5.935C2.79 5.895 2.785 5.86 2.785 5.83C2.785 5.74 2.815 5.665 2.875 5.605C2.945 5.535 3.025 5.5 3.115 5.5H5.44C5.62 5.5 5.76 5.55 5.86 5.65C5.96 5.75 6.025 5.85 6.055 5.95L7.825 12.205L9.595 5.95C9.625 5.85 9.69 5.75 9.79 5.65C9.89 5.55 10.03 5.5 10.21 5.5H12.535C12.625 5.5 12.7 5.535 12.76 5.605C12.82 5.665 12.85 5.74 12.85 5.83C12.85 5.86 12.845 5.895 12.835 5.935L9.895 15.535C9.865 15.645 9.795 15.75 9.685 15.85C9.585 15.95 9.44 16 9.25 16H6.385ZM15.4362 16.15C14.8862 16.15 14.3912 16.045 13.9512 15.835C13.5212 15.625 13.1812 15.345 12.9312 14.995C12.6912 14.635 12.5712 14.235 12.5712 13.795C12.5712 13.075 12.8612 12.51 13.4412 12.1C14.0312 11.68 14.8162 11.39 15.7962 11.23L17.5212 10.96V10.855C17.5212 10.545 17.4712 10.315 17.3712 10.165C17.2812 10.005 17.0862 9.925 16.7862 9.925C16.5762 9.925 16.4062 9.965 16.2762 10.045C16.1462 10.125 16.0262 10.24 15.9162 10.39C15.8162 10.5 15.6862 10.555 15.5262 10.555H13.4112C13.3012 10.555 13.2162 10.525 13.1562 10.465C13.0962 10.405 13.0712 10.325 13.0812 10.225C13.0912 10.045 13.1662 9.835 13.3062 9.595C13.4462 9.345 13.6612 9.105 13.9512 8.875C14.2512 8.635 14.6362 8.44 15.1062 8.29C15.5762 8.13 16.1412 8.05 16.8012 8.05C17.4712 8.05 18.0462 8.125 18.5262 8.275C19.0062 8.425 19.4012 8.635 19.7112 8.905C20.0212 9.175 20.2512 9.505 20.4012 9.895C20.5512 10.275 20.6262 10.7 20.6262 11.17V15.61C20.6262 15.72 20.5862 15.815 20.5062 15.895C20.4362 15.965 20.3462 16 20.2362 16H18.0462C17.9462 16 17.8562 15.965 17.7762 15.895C17.6962 15.815 17.6562 15.72 17.6562 15.61V15.13C17.5262 15.33 17.3512 15.505 17.1312 15.655C16.9212 15.805 16.6712 15.925 16.3812 16.015C16.1012 16.105 15.7862 16.15 15.4362 16.15ZM16.3062 14.185C16.5562 14.185 16.7712 14.135 16.9512 14.035C17.1412 13.925 17.2912 13.76 17.4012 13.54C17.5112 13.32 17.5662 13.045 17.5662 12.715V12.61L16.4862 12.82C16.1162 12.89 15.8562 12.995 15.7062 13.135C15.5562 13.265 15.4812 13.41 15.4812 13.57C15.4812 13.69 15.5162 13.795 15.5862 13.885C15.6562 13.975 15.7512 14.05 15.8712 14.11C16.0012 14.16 16.1462 14.185 16.3062 14.185ZM24.9679 16.15C24.4279 16.15 23.9329 16.025 23.4829 15.775C23.0429 15.525 22.6929 15.15 22.4329 14.65C22.1729 14.15 22.0429 13.52 22.0429 12.76V8.59C22.0429 8.48 22.0779 8.39 22.1479 8.32C22.2279 8.24 22.3229 8.2 22.4329 8.2H24.8029C24.9129 8.2 25.0029 8.24 25.0729 8.32C25.1529 8.39 25.1929 8.48 25.1929 8.59V12.655C25.1929 13.425 25.5379 13.81 26.2279 13.81C26.5579 13.81 26.8129 13.71 26.9929 13.51C27.1829 13.31 27.2779 13.025 27.2779 12.655V8.59C27.2779 8.48 27.3129 8.39 27.3829 8.32C27.4629 8.24 27.5579 8.2 27.6679 8.2H30.0379C30.1379 8.2 30.2279 8.24 30.3079 8.32C30.3879 8.39 30.4279 8.48 30.4279 8.59V15.61C30.4279 15.72 30.3879 15.815 30.3079 15.895C30.2279 15.965 30.1379 16 30.0379 16H27.8479C27.7379 16 27.6429 15.965 27.5629 15.895C27.4929 15.815 27.4579 15.72 27.4579 15.61V15.07C27.2079 15.44 26.8679 15.715 26.4379 15.895C26.0079 16.065 25.5179 16.15 24.9679 16.15ZM32.3663 16C32.2563 16 32.1613 15.965 32.0813 15.895C32.0113 15.815 31.9763 15.72 31.9763 15.61V5.74C31.9763 5.63 32.0113 5.54 32.0813 5.47C32.1613 5.39 32.2563 5.35 32.3663 5.35H34.6013C34.7013 5.35 34.7913 5.39 34.8713 5.47C34.9513 5.54 34.9913 5.63 34.9913 5.74V15.61C34.9913 15.72 34.9513 15.815 34.8713 15.895C34.7913 15.965 34.7013 16 34.6013 16H32.3663ZM40.9566 16C40.2766 16 39.6766 15.9 39.1566 15.7C38.6466 15.5 38.2466 15.175 37.9566 14.725C37.6766 14.265 37.5366 13.66 37.5366 12.91V10.495H36.3516C36.2416 10.495 36.1466 10.46 36.0666 10.39C35.9966 10.31 35.9616 10.215 35.9616 10.105V8.59C35.9616 8.48 35.9966 8.39 36.0666 8.32C36.1466 8.24 36.2416 8.2 36.3516 8.2H37.5366V5.74C37.5366 5.63 37.5716 5.54 37.6416 5.47C37.7216 5.39 37.8166 5.35 37.9266 5.35H40.1016C40.2116 5.35 40.3016 5.39 40.3716 5.47C40.4516 5.54 40.4916 5.63 40.4916 5.74V8.2H42.3816C42.4916 8.2 42.5816 8.24 42.6516 8.32C42.7316 8.39 42.7716 8.48 42.7716 8.59V10.105C42.7716 10.215 42.7316 10.31 42.6516 10.39C42.5816 10.46 42.4916 10.495 42.3816 10.495H40.4916V12.655C40.4916 12.945 40.5516 13.175 40.6716 13.345C40.7916 13.505 40.9816 13.585 41.2416 13.585H42.5016C42.6116 13.585 42.7016 13.625 42.7716 13.705C42.8516 13.775 42.8916 13.865 42.8916 13.975V15.61C42.8916 15.72 42.8516 15.815 42.7716 15.895C42.7016 15.965 42.6116 16 42.5016 16H40.9566Z"/>
</mask>
<path d="M5.95 15.85L4.88934 16.9107L4.91458 16.9359L4.94099 16.9599L5.95 15.85ZM5.755 15.535L7.20215 15.1403L7.19576 15.1169L7.18862 15.0937L5.755 15.535ZM2.8 5.935L1.34479 6.2988L1.35454 6.33783L1.36638 6.37629L2.8 5.935ZM2.875 5.605L3.93566 6.66566L3.93566 6.66566L2.875 5.605ZM5.86 5.65L6.92066 4.58934L6.92066 4.58934L5.86 5.65ZM6.055 5.95L7.49833 5.54158L7.49512 5.53025L7.49174 5.51898L6.055 5.95ZM7.825 12.205L6.38167 12.6134L7.825 17.714L9.26833 12.6134L7.825 12.205ZM9.595 5.95L8.15826 5.51898L8.15488 5.53025L8.15167 5.54158L9.595 5.95ZM9.79 5.65L8.72934 4.58934L8.72934 4.58934L9.79 5.65ZM12.76 5.605L11.6211 6.58118L11.6586 6.62493L11.6993 6.66567L12.76 5.605ZM12.835 5.935L14.2692 6.37424L14.2807 6.3368L14.2902 6.29882L12.835 5.935ZM9.895 15.535L8.46075 15.0958L8.45396 15.1179L8.44786 15.1403L9.895 15.535ZM9.685 15.85L8.67599 14.7401L8.64958 14.7641L8.62434 14.7893L9.685 15.85ZM6.385 14.5C6.4332 14.5 6.52079 14.5067 6.63024 14.5444C6.74394 14.5836 6.85856 14.6488 6.95901 14.7401L4.94099 16.9599C5.38276 17.3615 5.91461 17.5 6.385 17.5V14.5ZM7.01066 14.7893C7.05134 14.83 7.14879 14.9447 7.20215 15.1403L4.30785 15.9297C4.42121 16.3453 4.64866 16.67 4.88934 16.9107L7.01066 14.7893ZM7.18862 15.0937L4.23362 5.49371L1.36638 6.37629L4.32138 15.9763L7.18862 15.0937ZM4.25521 5.5712C4.26473 5.60925 4.285 5.70133 4.285 5.83H1.285C1.285 6.01866 1.31527 6.18075 1.34479 6.2988L4.25521 5.5712ZM4.285 5.83C4.285 5.95408 4.26374 6.10452 4.20021 6.26334C4.13599 6.4239 4.04192 6.5594 3.93566 6.66566L1.81434 4.54434C1.45465 4.90403 1.285 5.36896 1.285 5.83H4.285ZM3.93566 6.66566C3.85595 6.74537 3.74144 6.83367 3.58873 6.90048C3.43327 6.9685 3.27043 7 3.115 7V4C2.58552 4 2.13475 4.22393 1.81434 4.54434L3.93566 6.66566ZM3.115 7H5.44V4H3.115V7ZM5.44 7C5.39319 7 5.29748 6.99368 5.1755 6.95011C5.04731 6.90433 4.91442 6.82574 4.79934 6.71066L6.92066 4.58934C6.46791 4.13658 5.90389 4 5.44 4V7ZM4.79934 6.71066C4.78331 6.69463 4.68038 6.5881 4.61826 6.38102L7.49174 5.51898C7.36962 5.1119 7.13669 4.80537 6.92066 4.58934L4.79934 6.71066ZM4.61167 6.35842L6.38167 12.6134L9.26833 11.7966L7.49833 5.54158L4.61167 6.35842ZM9.26833 12.6134L11.0383 6.35842L8.15167 5.54158L6.38167 11.7966L9.26833 12.6134ZM11.0317 6.38102C10.9696 6.5881 10.8667 6.69463 10.8507 6.71066L8.72934 4.58934C8.51331 4.80537 8.28038 5.1119 8.15826 5.51898L11.0317 6.38102ZM10.8507 6.71066C10.7356 6.82574 10.6027 6.90433 10.4745 6.95011C10.3525 6.99368 10.2568 7 10.21 7V4C9.74611 4 9.18209 4.13659 8.72934 4.58934L10.8507 6.71066ZM10.21 7H12.535V4H10.21V7ZM12.535 7C12.3802 7 12.2024 6.96859 12.0244 6.88552C11.8474 6.8029 11.7142 6.68977 11.6211 6.58118L13.8989 4.62882C13.5619 4.23566 13.075 4 12.535 4V7ZM11.6993 6.66567C11.5931 6.5594 11.499 6.42391 11.4348 6.26334C11.3713 6.10452 11.35 5.95408 11.35 5.83H14.35C14.35 5.36895 14.1804 4.90403 13.8207 4.54433L11.6993 6.66567ZM11.35 5.83C11.35 5.70133 11.3703 5.60924 11.3798 5.57118L14.2902 6.29882C14.3197 6.18076 14.35 6.01867 14.35 5.83H11.35ZM11.4008 5.49576L8.46075 15.0958L11.3292 15.9742L14.2692 6.37424L11.4008 5.49576ZM8.44786 15.1403C8.51256 14.9031 8.63795 14.7747 8.67599 14.7401L10.694 16.9599C10.952 16.7253 11.2174 16.3869 11.3421 15.9297L8.44786 15.1403ZM8.62434 14.7893C8.89162 14.5221 9.18297 14.5 9.25 14.5V17.5C9.69703 17.5 10.2784 17.3779 10.7457 16.9107L8.62434 14.7893ZM9.25 14.5H6.385V17.5H9.25V14.5ZM13.9512 15.835L13.2929 17.1829L13.3051 17.1887L13.9512 15.835ZM12.9312 14.995L11.6831 15.8271L11.6966 15.8472L11.7106 15.8669L12.9312 14.995ZM13.4412 12.1L14.3071 13.3249L14.3111 13.322L13.4412 12.1ZM15.7962 11.23L15.5642 9.74801L15.5545 9.7496L15.7962 11.23ZM17.5212 10.96L17.7532 12.442L19.0212 12.2435V10.96H17.5212ZM17.3712 10.165L16.0638 10.9004L16.0917 10.9498L16.1231 10.9971L17.3712 10.165ZM16.2762 10.045L17.0624 11.3225L17.0624 11.3225L16.2762 10.045ZM15.9162 10.39L17.0261 11.399L17.0792 11.3406L17.1258 11.277L15.9162 10.39ZM13.1562 10.465L14.2169 9.40434L14.2169 9.40434L13.1562 10.465ZM13.0812 10.225L14.5738 10.3743L14.5771 10.3413L14.5789 10.3082L13.0812 10.225ZM13.3062 9.595L14.6019 10.3508L14.6085 10.3394L14.615 10.3279L13.3062 9.595ZM13.9512 8.875L14.8833 10.0503L14.8883 10.0463L13.9512 8.875ZM15.1062 8.29L15.5623 9.71899L15.576 9.71461L15.5896 9.70997L15.1062 8.29ZM18.5262 8.275L18.9736 6.84328L18.9736 6.84328L18.5262 8.275ZM19.7112 8.905L20.6964 7.77388L20.6964 7.77388L19.7112 8.905ZM20.4012 9.895L19.0011 10.4335L19.006 10.4457L20.4012 9.895ZM20.5062 15.895L19.4456 14.8343L19.4455 14.8343L20.5062 15.895ZM17.7762 15.895L16.7156 16.9557L16.7509 16.991L16.7885 17.0239L17.7762 15.895ZM17.6562 15.13H19.1562V10.07L16.3985 14.3125L17.6562 15.13ZM17.1312 15.655L16.2862 14.4157L16.2727 14.4249L16.2594 14.4344L17.1312 15.655ZM16.3812 16.015L15.9366 14.5824L15.9294 14.5846L15.9222 14.587L16.3812 16.015ZM16.9512 14.035L17.6797 15.3462L17.6913 15.3398L17.7028 15.3331L16.9512 14.035ZM17.5662 12.61H19.0662V10.7902L17.2799 11.1376L17.5662 12.61ZM16.4862 12.82L16.7651 14.2939L16.7725 14.2924L16.4862 12.82ZM15.7062 13.135L16.6886 14.2685L16.7095 14.2504L16.7297 14.2316L15.7062 13.135ZM15.8712 14.11L15.2004 15.4516L15.2652 15.484L15.3327 15.51L15.8712 14.11ZM15.4362 14.65C15.081 14.65 14.8111 14.5833 14.5973 14.4813L13.3051 17.1887C13.9713 17.5067 14.6914 17.65 15.4362 17.65V14.65ZM14.6095 14.4871C14.3779 14.374 14.2411 14.2481 14.1518 14.1231L11.7106 15.8669C12.1213 16.4419 12.6645 16.876 13.293 17.1829L14.6095 14.4871ZM14.1793 14.1629C14.1065 14.0538 14.0712 13.9442 14.0712 13.795H11.0712C11.0712 14.5258 11.2759 15.2162 11.6831 15.8271L14.1793 14.1629ZM14.0712 13.795C14.0712 13.5541 14.1312 13.4492 14.3071 13.3249L12.5754 10.8751C11.5912 11.5708 11.0712 12.5959 11.0712 13.795H14.0712ZM14.3111 13.322C14.6582 13.0749 15.2049 12.8464 16.0379 12.7104L15.5545 9.7496C14.4276 9.93359 13.4043 10.2851 12.5713 10.878L14.3111 13.322ZM16.0282 12.712L17.7532 12.442L17.2893 9.47804L15.5643 9.74804L16.0282 12.712ZM19.0212 10.96V10.855H16.0212V10.96H19.0212ZM19.0212 10.855C19.0212 10.4378 18.9639 9.84986 18.6193 9.33295L16.1231 10.9971C16.0427 10.8764 16.0212 10.7837 16.0179 10.7686C16.0143 10.752 16.0212 10.7755 16.0212 10.855H19.0212ZM18.6786 9.42961C18.1835 8.54946 17.2664 8.425 16.7862 8.425V11.425C16.8172 11.425 16.7305 11.4312 16.5881 11.3728C16.4218 11.3045 16.2084 11.1574 16.0638 10.9004L18.6786 9.42961ZM16.7862 8.425C16.3989 8.425 15.9294 8.49716 15.4901 8.76751L17.0624 11.3225C16.883 11.4328 16.7535 11.425 16.7862 11.425V8.425ZM15.4901 8.76751C15.1632 8.96865 14.9068 9.22991 14.7066 9.50295L17.1258 11.277C17.1456 11.2501 17.1292 11.2813 17.0624 11.3225L15.4901 8.76751ZM14.8063 9.38099C14.8945 9.284 15.0136 9.19392 15.1593 9.1323C15.3023 9.07179 15.4321 9.055 15.5262 9.055V12.055C16.0726 12.055 16.6184 11.8475 17.0261 11.399L14.8063 9.38099ZM15.5262 9.055H13.4112V12.055H15.5262V9.055ZM13.4112 9.055C13.576 9.055 13.9191 9.10659 14.2169 9.40434L12.0955 11.5257C12.5133 11.9434 13.0264 12.055 13.4112 12.055V9.055ZM14.2169 9.40434C14.3561 9.54356 14.4634 9.71822 14.5242 9.91259C14.5827 10.0997 14.5849 10.2625 14.5738 10.3743L11.5887 10.0757C11.5431 10.5317 11.6575 11.0876 12.0955 11.5257L14.2169 9.40434ZM14.5789 10.3082C14.5765 10.3506 14.571 10.3829 14.5665 10.4038C14.562 10.4246 14.558 10.4359 14.5576 10.437C14.5572 10.4381 14.5596 10.4313 14.5669 10.416C14.5741 10.4009 14.5853 10.3792 14.6019 10.3508L12.0105 8.83919C11.8097 9.18356 11.6119 9.63077 11.5835 10.1418L14.5789 10.3082ZM14.615 10.3279C14.636 10.2903 14.7038 10.1926 14.8833 10.0502L13.0191 7.69975C12.6186 8.01739 12.2564 8.39967 11.9975 8.86209L14.615 10.3279ZM14.8883 10.0463C15.0108 9.94829 15.2197 9.82833 15.5623 9.71899L14.6502 6.86101C14.0528 7.05167 13.4917 7.32171 13.0142 7.7037L14.8883 10.0463ZM15.5896 9.70997C15.8622 9.61717 16.2549 9.55 16.8012 9.55V6.55C16.0276 6.55 15.2902 6.64283 14.6228 6.87003L15.5896 9.70997ZM16.8012 9.55C17.3666 9.55 17.7826 9.61416 18.0788 9.70672L18.9736 6.84328C18.3098 6.63584 17.5758 6.55 16.8012 6.55V9.55ZM18.0788 9.70672C18.4038 9.80829 18.6034 9.92931 18.726 10.0361L20.6964 7.77388C20.199 7.34069 19.6086 7.04171 18.9736 6.84328L18.0788 9.70672ZM18.726 10.0361C18.8483 10.1426 18.9375 10.268 19.0012 10.4335L21.8012 9.35653C21.5649 8.742 21.1941 8.20735 20.6964 7.77388L18.726 10.0361ZM19.006 10.4457C19.0772 10.6261 19.1262 10.8605 19.1262 11.17H22.1262C22.1262 10.5395 22.0253 9.92394 21.7964 9.34425L19.006 10.4457ZM19.1262 11.17V15.61H22.1262V11.17H19.1262ZM19.1262 15.61C19.1262 15.4787 19.1511 15.3306 19.2138 15.1817C19.2761 15.0336 19.3618 14.9181 19.4456 14.8343L21.5669 16.9557C21.9192 16.6033 22.1262 16.1303 22.1262 15.61H19.1262ZM19.4455 14.8343C19.5538 14.7261 19.6887 14.6356 19.8425 14.5757C19.9933 14.5171 20.1309 14.5 20.2362 14.5V17.5C20.6956 17.5 21.1831 17.3395 21.5669 16.9557L19.4455 14.8343ZM20.2362 14.5H18.0462V17.5H20.2362V14.5ZM18.0462 14.5C18.1755 14.5 18.3129 14.5234 18.4474 14.5757C18.5805 14.6275 18.6859 14.6978 18.764 14.7661L16.7885 17.0239C17.1232 17.3167 17.5587 17.5 18.0462 17.5V14.5ZM18.8369 14.8343C18.9206 14.9181 19.0063 15.0336 19.0687 15.1817C19.1314 15.3306 19.1562 15.4787 19.1562 15.61H16.1562C16.1562 16.1303 16.3632 16.6033 16.7156 16.9557L18.8369 14.8343ZM19.1562 15.61V15.13H16.1562V15.61H19.1562ZM16.3985 14.3125C16.3887 14.3276 16.3612 14.3646 16.2862 14.4157L17.9762 16.8943C18.3413 16.6454 18.6637 16.3324 18.9139 15.9475L16.3985 14.3125ZM16.2594 14.4344C16.2002 14.4766 16.1001 14.5317 15.9366 14.5824L16.8258 17.4476C17.2423 17.3183 17.6422 17.1334 18.0031 16.8756L16.2594 14.4344ZM15.9222 14.587C15.8156 14.6212 15.6591 14.65 15.4362 14.65V17.65C15.9133 17.65 16.3868 17.5888 16.8402 17.443L15.9222 14.587ZM16.3062 15.685C16.7569 15.685 17.2338 15.594 17.6797 15.3462L16.2227 12.7238C16.2632 12.7013 16.2965 12.6908 16.3152 12.6865C16.3326 12.6824 16.3316 12.685 16.3062 12.685V15.685ZM17.7028 15.3331C18.1764 15.0589 18.518 14.6604 18.7429 14.2108L16.0596 12.8692C16.0595 12.8693 16.0621 12.8642 16.0681 12.8552C16.0742 12.8462 16.0834 12.8339 16.0963 12.8197C16.1235 12.7898 16.1589 12.7604 16.1997 12.7369L17.7028 15.3331ZM18.7429 14.2108C18.9863 13.7239 19.0662 13.202 19.0662 12.715H16.0662C16.0662 12.798 16.0592 12.8491 16.0541 12.8746C16.0492 12.8993 16.0473 12.8937 16.0596 12.8692L18.7429 14.2108ZM19.0662 12.715V12.61H16.0662V12.715H19.0662ZM17.2799 11.1376L16.1999 11.3476L16.7725 14.2924L17.8525 14.0824L17.2799 11.1376ZM16.2074 11.3461C15.758 11.4312 15.1507 11.6017 14.6827 12.0384L16.7297 14.2316C16.6781 14.2797 16.6343 14.3089 16.6088 14.3242C16.5833 14.3394 16.5702 14.3442 16.5754 14.3421C16.5803 14.3401 16.5978 14.3335 16.6308 14.3243C16.6636 14.3152 16.7078 14.3047 16.765 14.2939L16.2074 11.3461ZM14.7238 12.0015C14.3308 12.3421 13.9812 12.8731 13.9812 13.57H16.9812C16.9812 13.7348 16.9401 13.8944 16.8698 14.0304C16.8032 14.1591 16.7272 14.2351 16.6886 14.2685L14.7238 12.0015ZM13.9812 13.57C13.9812 14.0048 14.1162 14.4382 14.4022 14.8059L16.7702 12.9641C16.8364 13.0492 16.8926 13.1507 16.9305 13.2644C16.9681 13.3772 16.9812 13.4823 16.9812 13.57H13.9812ZM14.4022 14.8059C14.6319 15.1013 14.9152 15.309 15.2004 15.4516L16.542 12.7684C16.5872 12.791 16.6805 12.8487 16.7702 12.9641L14.4022 14.8059ZM15.3327 15.51C15.6581 15.6352 15.9892 15.685 16.3062 15.685V12.685C16.3033 12.685 16.3443 12.6848 16.4097 12.71L15.3327 15.51ZM23.4829 15.775L22.7419 17.0792L22.7481 17.0827L22.7544 17.0862L23.4829 15.775ZM22.4329 14.65L23.7637 13.958L23.7637 13.958L22.4329 14.65ZM22.1479 8.32L21.0872 7.25934L21.0872 7.25934L22.1479 8.32ZM25.0729 8.32L23.944 9.30776L24.0099 9.38301L24.0851 9.44886L25.0729 8.32ZM26.9929 13.51L25.9054 12.4769L25.8915 12.4915L25.8779 12.5066L26.9929 13.51ZM27.3829 8.32L26.3222 7.25934L26.3222 7.25934L27.3829 8.32ZM30.3079 8.32L29.2472 9.38066L29.2825 9.41597L29.3201 9.44886L30.3079 8.32ZM30.3079 15.895L31.2956 17.0239L31.3332 16.991L31.3686 16.9557L30.3079 15.895ZM27.5629 15.895L26.434 16.8828L26.4999 16.958L26.5751 17.0239L27.5629 15.895ZM27.4579 15.07H28.9579V10.1707L26.215 14.2302L27.4579 15.07ZM26.4379 15.895L26.9894 17.2899L27.0033 17.2844L27.0171 17.2787L26.4379 15.895ZM24.9679 14.65C24.6699 14.65 24.4275 14.5838 24.2114 14.4638L22.7544 17.0862C23.4383 17.4662 24.1859 17.65 24.9679 17.65V14.65ZM24.2239 14.4708C24.0634 14.3796 23.9059 14.2315 23.7637 13.958L21.1021 15.342C21.4798 16.0685 22.0223 16.6704 22.7419 17.0792L24.2239 14.4708ZM23.7637 13.958C23.6467 13.733 23.5429 13.3593 23.5429 12.76H20.5429C20.5429 13.6807 20.699 14.567 21.1021 15.342L23.7637 13.958ZM23.5429 12.76V8.59H20.5429V12.76H23.5429ZM23.5429 8.59C23.5429 8.69535 23.5258 8.83295 23.4671 8.98367C23.4073 9.13747 23.3168 9.27238 23.2086 9.38066L21.0872 7.25934C20.7034 7.64315 20.5429 8.13062 20.5429 8.59H23.5429ZM23.2086 9.38066C23.1248 9.46443 23.0093 9.55011 22.8612 9.61245C22.7123 9.67514 22.5642 9.7 22.4329 9.7V6.7C21.9125 6.7 21.4396 6.90701 21.0872 7.25934L23.2086 9.38066ZM22.4329 9.7H24.8029V6.7H22.4329V9.7ZM24.8029 9.7C24.6726 9.7 24.5118 9.67542 24.3437 9.60072C24.1743 9.52543 24.0408 9.41841 23.944 9.30776L26.2018 7.33224C25.8358 6.91401 25.3282 6.7 24.8029 6.7V9.7ZM24.0851 9.44886C23.9745 9.35204 23.8675 9.2186 23.7922 9.04921C23.7175 8.88113 23.6929 8.72026 23.6929 8.59H26.6929C26.6929 8.06464 26.4789 7.55709 26.0607 7.19114L24.0851 9.44886ZM23.6929 8.59V12.655H26.6929V8.59H23.6929ZM23.6929 12.655C23.6929 13.2331 23.8188 13.9468 24.3345 14.5223C24.8783 15.1291 25.6065 15.31 26.2279 15.31V12.31C26.1911 12.31 26.2242 12.3044 26.298 12.3319C26.3807 12.3627 26.4817 12.4231 26.5687 12.5202C26.7394 12.7107 26.6929 12.8469 26.6929 12.655H23.6929ZM26.2279 15.31C26.879 15.31 27.5805 15.0994 28.1078 14.5134L25.8779 12.5066C25.9468 12.43 26.0335 12.3721 26.119 12.3385C26.1977 12.3077 26.2429 12.31 26.2279 12.31V15.31ZM28.0804 14.5431C28.6151 13.9802 28.7779 13.2753 28.7779 12.655H25.7779C25.7779 12.7147 25.7699 12.713 25.7836 12.6719C25.7994 12.6246 25.8358 12.5501 25.9054 12.4769L28.0804 14.5431ZM28.7779 12.655V8.59H25.7779V12.655H28.7779ZM28.7779 8.59C28.7779 8.69535 28.7608 8.83295 28.7021 8.98367C28.6423 9.13747 28.5518 9.27238 28.4436 9.38066L26.3222 7.25934C25.9384 7.64315 25.7779 8.13062 25.7779 8.59H28.7779ZM28.4436 9.38066C28.3598 9.46443 28.2443 9.55011 28.0962 9.61245C27.9473 9.67514 27.7992 9.7 27.6679 9.7V6.7C27.1475 6.7 26.6746 6.90701 26.3222 7.25934L28.4436 9.38066ZM27.6679 9.7H30.0379V6.7H27.6679V9.7ZM30.0379 9.7C29.8813 9.7 29.721 9.66729 29.5712 9.60072C29.4249 9.53569 29.3183 9.45172 29.2472 9.38066L31.3686 7.25934C31.0475 6.93831 30.5893 6.7 30.0379 6.7V9.7ZM29.3201 9.44886C29.2095 9.35204 29.1025 9.21859 29.0272 9.0492C28.9525 8.88113 28.9279 8.72026 28.9279 8.59H31.9279C31.9279 8.06464 31.7139 7.5571 31.2957 7.19114L29.3201 9.44886ZM28.9279 8.59V15.61H31.9279V8.59H28.9279ZM28.9279 15.61C28.9279 15.4787 28.9527 15.3306 29.0154 15.1817C29.0778 15.0336 29.1635 14.9181 29.2472 14.8343L31.3686 16.9557C31.7209 16.6033 31.9279 16.1303 31.9279 15.61H28.9279ZM29.3201 14.7661C29.3982 14.6978 29.5036 14.6275 29.6367 14.5757C29.7712 14.5234 29.9086 14.5 30.0379 14.5V17.5C30.5254 17.5 30.9609 17.3167 31.2956 17.0239L29.3201 14.7661ZM30.0379 14.5H27.8479V17.5H30.0379V14.5ZM27.8479 14.5C27.9545 14.5 28.0804 14.5175 28.2127 14.5662C28.3458 14.6153 28.4596 14.6865 28.5506 14.7661L26.5751 17.0239C26.9388 17.3421 27.3884 17.5 27.8479 17.5V14.5ZM28.6918 14.9072C28.7714 14.9983 28.8426 15.1121 28.8917 15.2452C28.9404 15.3775 28.9579 15.5034 28.9579 15.61H25.9579C25.9579 16.0695 26.1158 16.5191 26.434 16.8828L28.6918 14.9072ZM28.9579 15.61V15.07H25.9579V15.61H28.9579ZM26.215 14.2302C26.136 14.3472 26.0317 14.4389 25.8587 14.5113L27.0171 17.2787C27.7041 16.9911 28.2798 16.5328 28.7008 15.9098L26.215 14.2302ZM25.8864 14.5001C25.6618 14.5888 25.3641 14.65 24.9679 14.65V17.65C25.6717 17.65 26.3539 17.5412 26.9894 17.2899L25.8864 14.5001ZM32.0813 15.895L30.9524 16.8828L31.0183 16.958L31.0935 17.0239L32.0813 15.895ZM32.0813 5.47L33.1419 6.53066L33.142 6.53066L32.0813 5.47ZM34.8713 5.47L33.8106 6.53066L33.8459 6.56598L33.8835 6.59887L34.8713 5.47ZM34.8713 15.895L35.859 17.0239L35.8966 16.991L35.9319 16.9557L34.8713 15.895ZM32.3663 14.5C32.4729 14.5 32.5988 14.5175 32.7311 14.5662C32.8642 14.6153 32.978 14.6865 33.069 14.7661L31.0935 17.0239C31.4572 17.3421 31.9068 17.5 32.3663 17.5V14.5ZM33.2102 14.9072C33.2898 14.9983 33.361 15.1121 33.4101 15.2452C33.4588 15.3775 33.4763 15.5034 33.4763 15.61H30.4763C30.4763 16.0695 30.6342 16.5191 30.9524 16.8828L33.2102 14.9072ZM33.4763 15.61V5.74H30.4763V15.61H33.4763ZM33.4763 5.74C33.4763 5.84535 33.4592 5.98295 33.4005 6.13367C33.3407 6.28747 33.2502 6.42238 33.1419 6.53066L31.0206 4.40934C30.6368 4.79314 30.4763 5.28062 30.4763 5.74H33.4763ZM33.142 6.53066C33.0582 6.61443 32.9427 6.70011 32.7946 6.76245C32.6457 6.82514 32.4976 6.85 32.3663 6.85V3.85C31.8459 3.85 31.373 4.05701 31.0206 4.40934L33.142 6.53066ZM32.3663 6.85H34.6013V3.85H32.3663V6.85ZM34.6013 6.85C34.4447 6.85 34.2844 6.81729 34.1346 6.75072C33.9883 6.68569 33.8817 6.60171 33.8106 6.53066L35.932 4.40934C35.6109 4.08831 35.1527 3.85 34.6013 3.85V6.85ZM33.8835 6.59887C33.7729 6.50205 33.6659 6.3686 33.5906 6.19921C33.5159 6.03113 33.4913 5.87026 33.4913 5.74H36.4913C36.4913 5.21464 36.2773 4.70709 35.859 4.34113L33.8835 6.59887ZM33.4913 5.74V15.61H36.4913V5.74H33.4913ZM33.4913 15.61C33.4913 15.4787 33.5161 15.3306 33.5788 15.1817C33.6412 15.0336 33.7269 14.9181 33.8106 14.8343L35.9319 16.9557C36.2843 16.6033 36.4913 16.1303 36.4913 15.61H33.4913ZM33.8835 14.7661C33.9616 14.6978 34.067 14.6275 34.2001 14.5757C34.3346 14.5234 34.472 14.5 34.6013 14.5V17.5C35.0888 17.5 35.5243 17.3167 35.859 17.0239L33.8835 14.7661ZM34.6013 14.5H32.3663V17.5H34.6013V14.5ZM39.1566 15.7L38.609 17.0965L38.6181 17.1L39.1566 15.7ZM37.9566 14.725L36.6753 15.5049L36.6853 15.5214L36.6957 15.5376L37.9566 14.725ZM37.5366 10.495H39.0366V8.995H37.5366V10.495ZM36.0666 10.39L34.9377 11.3778L35.0036 11.453L35.0788 11.5189L36.0666 10.39ZM36.0666 8.32L35.0059 7.25934L35.0059 7.25934L36.0666 8.32ZM37.5366 8.2V9.7H39.0366V8.2H37.5366ZM37.6416 5.47L38.7023 6.53066L38.7023 6.53066L37.6416 5.47ZM40.3716 5.47L39.2427 6.45776L39.3086 6.53302L39.3838 6.59887L40.3716 5.47ZM40.4916 8.2H38.9916V9.7H40.4916V8.2ZM42.6516 8.32L41.5227 9.30776L41.5886 9.38301L41.6638 9.44886L42.6516 8.32ZM42.6516 10.39L43.7123 11.4507L43.7123 11.4507L42.6516 10.39ZM40.4916 10.495V8.995H38.9916V10.495H40.4916ZM40.6716 13.345L39.4461 14.21L39.4586 14.2277L39.4716 14.245L40.6716 13.345ZM42.7716 13.705L41.6427 14.6928L41.7086 14.768L41.7838 14.8339L42.7716 13.705ZM42.7716 15.895L41.7109 14.8343L41.7109 14.8343L42.7716 15.895ZM40.9566 14.5C40.4213 14.5 40.01 14.4211 39.6951 14.3L38.6181 17.1C39.3432 17.3789 40.1319 17.5 40.9566 17.5V14.5ZM39.7042 14.3035C39.4801 14.2156 39.3327 14.0913 39.2175 13.9124L36.6957 15.5376C37.1605 16.2587 37.8131 16.7844 38.609 17.0965L39.7042 14.3035ZM39.2379 13.9451C39.1465 13.795 39.0366 13.4882 39.0366 12.91H36.0366C36.0366 13.8318 36.2067 14.735 36.6753 15.5049L39.2379 13.9451ZM39.0366 12.91V10.495H36.0366V12.91H39.0366ZM37.5366 8.995H36.3516V11.995H37.5366V8.995ZM36.3516 8.995C36.4582 8.995 36.5841 9.01248 36.7164 9.06124C36.8495 9.11028 36.9633 9.18146 37.0544 9.26113L35.0788 11.5189C35.4425 11.8371 35.8921 11.995 36.3516 11.995V8.995ZM37.1955 9.40224C37.2751 9.4933 37.3463 9.60707 37.3954 9.74019C37.4441 9.87254 37.4616 9.99838 37.4616 10.105H34.4616C34.4616 10.5645 34.6195 11.0141 34.9377 11.3778L37.1955 9.40224ZM37.4616 10.105V8.59H34.4616V10.105H37.4616ZM37.4616 8.59C37.4616 8.69535 37.4445 8.83295 37.3859 8.98367C37.326 9.13747 37.2355 9.27238 37.1273 9.38066L35.0059 7.25934C34.6221 7.64315 34.4616 8.13062 34.4616 8.59H37.4616ZM37.1273 9.38066C37.0435 9.46443 36.928 9.55011 36.7799 9.61245C36.631 9.67514 36.4829 9.7 36.3516 9.7V6.7C35.8313 6.7 35.3583 6.90701 35.0059 7.25934L37.1273 9.38066ZM36.3516 9.7H37.5366V6.7H36.3516V9.7ZM39.0366 8.2V5.74H36.0366V8.2H39.0366ZM39.0366 5.74C39.0366 5.84535 39.0195 5.98295 38.9609 6.13367C38.901 6.28747 38.8105 6.42238 38.7023 6.53066L36.5809 4.40934C36.1971 4.79314 36.0366 5.28062 36.0366 5.74H39.0366ZM38.7023 6.53066C38.6185 6.61443 38.503 6.70011 38.3549 6.76245C38.206 6.82514 38.0579 6.85 37.9266 6.85V3.85C37.4063 3.85 36.9333 4.05701 36.5809 4.40934L38.7023 6.53066ZM37.9266 6.85H40.1016V3.85H37.9266V6.85ZM40.1016 6.85C39.9713 6.85 39.8105 6.82542 39.6424 6.75072C39.473 6.67543 39.3396 6.56841 39.2427 6.45776L41.5005 4.48224C41.1345 4.06401 40.627 3.85 40.1016 3.85V6.85ZM39.3838 6.59887C39.2732 6.50205 39.1662 6.3686 39.0909 6.19921C39.0162 6.03113 38.9916 5.87026 38.9916 5.74H41.9916C41.9916 5.21464 41.7776 4.70709 41.3594 4.34113L39.3838 6.59887ZM38.9916 5.74V8.2H41.9916V5.74H38.9916ZM40.4916 9.7H42.3816V6.7H40.4916V9.7ZM42.3816 9.7C42.2513 9.7 42.0905 9.67542 41.9224 9.60072C41.753 9.52543 41.6196 9.41841 41.5227 9.30776L43.7805 7.33224C43.4145 6.91401 42.907 6.7 42.3816 6.7V9.7ZM41.6638 9.44886C41.5532 9.35204 41.4462 9.2186 41.3709 9.04921C41.2962 8.88113 41.2716 8.72026 41.2716 8.59H44.2716C44.2716 8.06464 44.0576 7.55709 43.6394 7.19114L41.6638 9.44886ZM41.2716 8.59V10.105H44.2716V8.59H41.2716ZM41.2716 10.105C41.2716 9.97368 41.2965 9.82556 41.3591 9.67666C41.4215 9.52861 41.5072 9.41311 41.5909 9.32934L43.7123 11.4507C44.0646 11.0983 44.2716 10.6253 44.2716 10.105H41.2716ZM41.5909 9.32934C41.6992 9.22106 41.8341 9.13055 41.9879 9.07074C42.1387 9.01213 42.2763 8.995 42.3816 8.995V11.995C42.841 11.995 43.3285 11.8345 43.7123 11.4507L41.5909 9.32934ZM42.3816 8.995H40.4916V11.995H42.3816V8.995ZM38.9916 10.495V12.655H41.9916V10.495H38.9916ZM38.9916 12.655C38.9916 13.1364 39.0896 13.7049 39.4461 14.21L41.8971 12.48C41.9547 12.5616 41.9789 12.6315 41.988 12.6664C41.9964 12.6986 41.9916 12.6991 41.9916 12.655H38.9916ZM39.4716 14.245C39.9565 14.8915 40.6645 15.085 41.2416 15.085V12.085C41.2612 12.085 41.3556 12.0876 41.4862 12.1425C41.6284 12.2024 41.767 12.3055 41.8716 12.445L39.4716 14.245ZM41.2416 15.085H42.5016V12.085H41.2416V15.085ZM42.5016 15.085C42.3713 15.085 42.2105 15.0604 42.0424 14.9857C41.873 14.9104 41.7396 14.8034 41.6427 14.6928L43.9005 12.7172C43.5345 12.299 43.027 12.085 42.5016 12.085V15.085ZM41.7838 14.8339C41.6732 14.737 41.5662 14.6036 41.4909 14.4342C41.4162 14.2661 41.3916 14.1053 41.3916 13.975H44.3916C44.3916 13.4496 44.1776 12.9421 43.7594 12.5761L41.7838 14.8339ZM41.3916 13.975V15.61H44.3916V13.975H41.3916ZM41.3916 15.61C41.3916 15.4787 41.4165 15.3306 41.4791 15.1817C41.5415 15.0336 41.6272 14.9181 41.7109 14.8343L43.8323 16.9557C44.1846 16.6033 44.3916 16.1303 44.3916 15.61H41.3916ZM41.7109 14.8343C41.8192 14.7261 41.9541 14.6356 42.1079 14.5757C42.2586 14.5171 42.3963 14.5 42.5016 14.5V17.5C42.961 17.5 43.4485 17.3395 43.8323 16.9557L41.7109 14.8343ZM42.5016 14.5H40.9566V17.5H42.5016V14.5Z" fill="#64748B" fill-opacity="0.75" mask="url(#path-1-outside-1_6726_3443)"/>
</svg>
