<svg width="64" height="63" viewBox="0 0 64 63" fill="none" xmlns="http://www.w3.org/2000/svg">
<path d="M32 0.25C31.3188 0.25 30.65 0.25625 29.9937 0.265625L28.0687 0.31875L27.1344 0.359375L25.325 0.465625L23.5969 0.609375C8.64375 2.05937 2.55937 8.14375 1.10938 23.0969L0.965625 24.825L0.859375 26.6344C0.84375 26.9406 0.828125 27.2531 0.81875 27.5687L0.765625 29.4937L0.753125 30.4875L0.75 31.5C0.75 32.1812 0.75625 32.85 0.765625 33.5063L0.81875 35.4313L0.859375 36.3656L0.965625 38.175L1.10938 39.9031C2.55937 54.8563 8.64375 60.9406 23.5969 62.3906L25.325 62.5344L27.1344 62.6406C27.4406 62.6562 27.7531 62.6719 28.0687 62.6813L29.9937 62.7344L32 62.75L34.0063 62.7344L35.9313 62.6813L36.8656 62.6406L38.675 62.5344L40.4031 62.3906C55.3563 60.9406 61.4406 54.8563 62.8906 39.9031L63.0344 38.175L63.1406 36.3656C63.1562 36.0594 63.1719 35.7469 63.1813 35.4313L63.2344 33.5063L63.25 31.5L63.2344 29.4937L63.1813 27.5687L63.1406 26.6344L63.0344 24.825L62.8906 23.0969C61.4406 8.14375 55.3563 2.05937 40.4031 0.609375L38.675 0.465625L36.8656 0.359375C36.5542 0.344173 36.2428 0.330631 35.9313 0.31875L34.0063 0.265625L33.0125 0.253125L32 0.25ZM32 12.75C34.3913 12.7499 36.6922 13.6635 38.4321 15.304C40.1719 16.9445 41.2191 19.1878 41.3594 21.575L41.375 22.125V25.25C42.9518 25.2495 44.4705 25.845 45.6267 26.9172C46.7829 27.9893 47.4911 29.4589 47.6094 31.0313L47.625 31.5V40.875C47.6255 42.4518 47.03 43.9705 45.9578 45.1267C44.8857 46.2829 43.4161 46.9911 41.8438 47.1094L41.375 47.125H22.625C21.0482 47.1255 19.5295 46.53 18.3733 45.4578C17.2171 44.3857 16.5089 42.9161 16.3906 41.3438L16.375 40.875V31.5C16.3745 29.9232 16.97 28.4045 18.0422 27.2483C19.1143 26.0921 20.5839 25.3839 22.1563 25.2656L22.625 25.25V22.125C22.625 19.6386 23.6127 17.254 25.3709 15.4959C27.129 13.7377 29.5136 12.75 32 12.75ZM41.375 31.5H22.625V40.875H41.375V31.5ZM32 19C31.2346 19.0001 30.4958 19.2811 29.9238 19.7897C29.3519 20.2984 28.9864 20.9992 28.8969 21.7594L28.875 22.125V25.25H35.125V22.125C35.125 21.2962 34.7958 20.5013 34.2097 19.9153C33.6237 19.3292 32.8288 19 32 19Z" fill="#E63C49"/>
</svg>
