<svg width="76" height="75" viewBox="0 0 76 75" fill="none" xmlns="http://www.w3.org/2000/svg">
<path d="M53.625 10.4375C58.3383 13.1589 62.2592 17.0641 64.9994 21.7666C67.7397 26.469 69.2043 31.8055 69.2482 37.2479C69.2922 42.6903 67.914 48.0499 65.2501 52.7959C62.5861 57.542 58.7289 61.51 54.0601 64.3073C49.3914 67.1045 44.073 68.6338 38.6316 68.744C33.1901 68.8541 27.8142 67.5412 23.0361 64.9351C18.258 62.3291 14.2433 58.5204 11.3896 53.886C8.53582 49.2516 6.9419 43.9522 6.76563 38.5125L6.75 37.5L6.76563 36.4875C6.94064 31.0906 8.51109 25.8311 11.3239 21.2219C14.1367 16.6126 18.0958 12.8108 22.8153 10.1871C27.5348 7.56348 32.8536 6.20749 38.2531 6.25137C43.6527 6.29525 48.9488 7.73749 53.625 10.4375ZM49.1562 42.1937C41.9091 41.6899 34.6887 43.495 28.5312 47.35C27.8284 47.7893 27.3289 48.4897 27.1425 49.2973C26.9562 50.1049 27.0982 50.9534 27.5375 51.6562C27.9768 52.3591 28.6772 52.8586 29.4848 53.045C30.2924 53.2313 31.1409 53.0893 31.8438 52.65C36.8817 49.4959 42.7893 48.019 48.7188 48.4312C49.5459 48.4893 50.3622 48.2163 50.9881 47.6725C51.614 47.1286 51.9982 46.3584 52.0562 45.5312C52.1143 44.7041 51.8413 43.8878 51.2975 43.2619C50.7536 42.636 49.9834 42.2518 49.1562 42.1937ZM28.6562 28.125L28.2594 28.1469C27.4998 28.2372 26.7998 28.603 26.2919 29.1749C25.784 29.7468 25.5035 30.4851 25.5035 31.25C25.5035 32.0149 25.784 32.7532 26.2919 33.3251C26.7998 33.897 27.4998 34.2628 28.2594 34.3531L28.625 34.375L29.0219 34.3531C29.7814 34.2628 30.4814 33.897 30.9893 33.3251C31.4972 32.7532 31.7778 32.0149 31.7778 31.25C31.7778 30.4851 31.4972 29.7468 30.9893 29.1749C30.4814 28.603 29.7814 28.2372 29.0219 28.1469L28.6562 28.125ZM47.4062 28.125L47.0094 28.1469C46.2498 28.2372 45.5498 28.603 45.0419 29.1749C44.534 29.7468 44.2535 30.4851 44.2535 31.25C44.2535 32.0149 44.534 32.7532 45.0419 33.3251C45.5498 33.897 46.2498 34.2628 47.0094 34.3531L47.375 34.375L47.7719 34.3531C48.5314 34.2628 49.2314 33.897 49.7393 33.3251C50.2472 32.7532 50.5278 32.0149 50.5278 31.25C50.5278 30.4851 50.2472 29.7468 49.7393 29.1749C49.2314 28.603 48.5314 28.2372 47.7719 28.1469L47.4062 28.125Z" fill="#E63C49"/>
</svg>
