<svg width="32" height="42" viewBox="0 0 32 42" fill="none" xmlns="http://www.w3.org/2000/svg">
<path id="Question Bank" d="M8.46577 26.9172C7.85467 26.9172 7.40755 26.4552 7.40755 25.8739C7.40755 25.2926 7.85467 24.8454 8.46577 24.8454H23.5938C24.19 24.8454 24.6372 25.2926 24.6372 25.8739C24.6372 26.4552 24.19 26.9172 23.5938 26.9172H8.46577ZM8.46577 32.7596C7.85467 32.7596 7.40755 32.3128 7.40755 31.7462C7.40755 31.165 7.85467 30.7029 8.46577 30.7029H15.6945C16.2906 30.7029 16.7378 31.165 16.7378 31.7462C16.7378 32.3128 16.2906 32.7596 15.6945 32.7596H8.46577ZM15.5901 17.5124C14.8747 17.5124 14.4574 17.1249 14.4574 16.3946C14.4574 16.2754 14.4574 16.1859 14.4574 16.0816C14.4574 14.5613 15.2324 13.6969 16.4397 12.8622C17.8556 11.8636 18.4667 11.3271 18.4667 10.2987C18.4667 9.06159 17.5128 8.22693 15.9329 8.22693C14.6809 8.22693 13.7718 8.95726 13.3843 9.98566L13.1756 10.3135C12.9371 10.6862 12.6241 10.9246 12.1174 10.9246C11.6255 10.9246 11.1188 10.5669 11.1188 9.91115C11.1188 9.67266 11.1337 9.47889 11.1784 9.27022C11.5659 7.4966 13.6674 6.24461 16.0373 6.24461C18.6903 6.24461 20.911 7.70527 20.911 10.1943C20.911 11.9829 19.9124 12.9666 18.3326 14.0099C17.1998 14.7849 16.7378 15.3066 16.7378 16.1859C16.7378 16.2903 16.7378 16.3797 16.7378 16.484C16.7378 17.0653 16.2906 17.5124 15.5901 17.5124ZM15.5752 22.0881C14.6809 22.0881 13.9357 21.3727 13.9357 20.5232C13.9357 19.6438 14.6661 18.9284 15.5752 18.9284C16.4546 18.9284 17.1849 19.6289 17.1849 20.5232C17.1849 21.3876 16.4248 22.0881 15.5752 22.0881ZM0 35.7407C0 39.5861 1.92268 41.5385 5.73823 41.5385H26.2618C30.0773 41.5385 32 39.5861 32 35.7407V6.25954C32 2.41416 30.0773 0.46167 26.2618 0.46167H5.73823C1.92268 0.46167 0 2.41416 0 6.25954V35.7407Z" fill="#EC5863"/>
</svg>
