<svg width="19" height="23" viewBox="0 0 19 23" fill="none" xmlns="http://www.w3.org/2000/svg">
<path d="M5.28135 14.8132C4.93918 14.8132 4.68882 14.5544 4.68882 14.229C4.68882 13.9035 4.93918 13.6531 5.28135 13.6531H13.752C14.0858 13.6531 14.3361 13.9035 14.3361 14.229C14.3361 14.5544 14.0858 14.8132 13.752 14.8132H5.28135ZM5.28135 18.0845C4.93918 18.0845 4.68882 17.8343 4.68882 17.5171C4.68882 17.1916 4.93918 16.9329 5.28135 16.9329H9.32888C9.66269 16.9329 9.91307 17.1916 9.91307 17.5171C9.91307 17.8343 9.66269 18.0845 9.32888 18.0845H5.28135ZM9.27046 9.54718C8.86989 9.54718 8.63621 9.3302 8.63621 8.92127C8.63621 8.85451 8.63621 8.80444 8.63621 8.74602C8.63621 7.89478 9.07017 7.41075 9.74615 6.9434C10.539 6.38425 10.8811 6.08382 10.8811 5.50799C10.8811 4.81532 10.347 4.34798 9.46242 4.34798C8.76139 4.34798 8.25232 4.75691 8.03535 5.33273L7.91851 5.51633C7.78497 5.72497 7.60972 5.8585 7.32598 5.8585C7.05057 5.8585 6.76684 5.65821 6.76684 5.29101C6.76684 5.15748 6.77518 5.04898 6.80022 4.93215C7.01719 3.93905 8.1939 3.23802 9.52083 3.23802C11.0063 3.23802 12.2498 4.05588 12.2498 5.44957C12.2498 6.45103 11.6906 7.00182 10.806 7.586C10.1718 8.01997 9.91307 8.31205 9.91307 8.80444C9.91307 8.86285 9.91307 8.91293 9.91307 8.97135C9.91307 9.29682 9.66269 9.54718 9.27046 9.54718ZM9.26212 12.1092C8.76139 12.1092 8.34412 11.7087 8.34412 11.233C8.34412 10.7406 8.75305 10.34 9.26212 10.34C9.75449 10.34 10.1634 10.7322 10.1634 11.233C10.1634 11.717 9.73781 12.1092 9.26212 12.1092ZM0.541138 19.7536C0.541138 21.9068 1.6177 23 3.75413 23H15.2458C17.3822 23 18.4588 21.9068 18.4588 19.7536V3.24638C18.4588 1.09325 17.3822 0 15.2458 0H3.75413C1.6177 0 0.541138 1.09325 0.541138 3.24638V19.7536Z" fill="#64748B" fill-opacity="0.75"/>
</svg>
