<svg width="37" height="45" viewBox="0 0 37 45" fill="none" xmlns="http://www.w3.org/2000/svg">
<path d="M0.971924 38.6484C0.971924 42.8612 3.07824 45 7.25821 45H29.7419C33.9219 45 36.0282 42.8612 36.0282 38.6484V6.35161C36.0282 2.13897 33.9219 0 29.7419 0H7.25821C3.07824 0 0.971924 2.13897 0.971924 6.35161V38.6484ZM3.86199 38.5832V6.41692C3.86199 4.13098 5.07027 2.89006 7.42149 2.89006H29.5786C31.9299 2.89006 33.1381 4.13098 33.1381 6.41692V38.5832C33.1381 40.8692 31.9299 42.1101 29.5786 42.1101H7.42149C5.07027 42.1101 3.86199 40.8692 3.86199 38.5832Z" fill="#EC5863"/>
<path d="M10.2462 28.9823H26.8191C27.4723 28.9823 27.9621 28.4761 27.9621 27.8393C27.9621 27.2025 27.4723 26.7126 26.8191 26.7126H10.2462C9.57674 26.7126 9.08691 27.2025 9.08691 27.8393C9.08691 28.4761 9.57674 28.9823 10.2462 28.9823ZM10.2462 35.3827H18.1653C18.8184 35.3827 19.3083 34.8932 19.3083 34.2725C19.3083 33.6358 18.8184 33.1296 18.1653 33.1296H10.2462C9.57674 33.1296 9.08691 33.6358 9.08691 34.2725C9.08691 34.8932 9.57674 35.3827 10.2462 35.3827Z" fill="#EC5863"/>
<path d="M18.051 18.6792C18.8184 18.6792 19.3083 18.1894 19.3083 17.5526C19.3083 17.4383 19.3083 17.3403 19.3083 17.226C19.3083 16.2626 19.8144 15.6912 21.0553 14.8421C22.7861 13.6992 23.8801 12.6215 23.8801 10.6621C23.8801 7.93537 21.4472 6.33521 18.5408 6.33521C15.9447 6.33521 13.6424 7.70677 13.2179 9.64979C13.1689 9.87839 13.1526 10.0907 13.1526 10.3519C13.1526 11.0703 13.7077 11.4622 14.2466 11.4622C14.8017 11.4622 15.1446 11.201 15.4059 10.7928L15.6345 10.4336C16.059 9.30693 17.055 8.50685 18.4265 8.50685C20.1573 8.50685 21.2023 9.42123 21.2023 10.7764C21.2023 11.9031 20.5329 12.4909 18.9817 13.5849C17.6591 14.4992 16.8101 15.4462 16.8101 17.1117C16.8101 17.226 16.8101 17.324 16.8101 17.4546C16.8101 18.2547 17.2673 18.6792 18.051 18.6792ZM18.0347 23.6919C18.9654 23.6919 19.7981 22.9245 19.7981 21.9775C19.7981 20.9978 18.998 20.2304 18.0347 20.2304C17.0387 20.2304 16.2386 21.0141 16.2386 21.9775C16.2386 22.9082 17.055 23.6919 18.0347 23.6919Z" fill="#EC5863"/>
</svg>
