<svg width="28" height="36" viewBox="0 0 28 36" fill="none" xmlns="http://www.w3.org/2000/svg">
<path d="M0 30.5599C0 33.8365 1.63825 35.5 4.88933 35.5H22.3767C25.6278 35.5 27.266 33.8365 27.266 30.5599V5.44014C27.266 2.16364 25.6278 0.5 22.3767 0.5H4.88933C1.63825 0.5 0 2.16364 0 5.44014V30.5599ZM2.24783 30.5092V5.49094C2.24783 3.71298 3.1876 2.74783 5.01633 2.74783H22.2497C24.0784 2.74783 25.0182 3.71298 25.0182 5.49094V30.5092C25.0182 32.2871 24.0784 33.2523 22.2497 33.2523H5.01633C3.1876 33.2523 2.24783 32.2871 2.24783 30.5092Z" fill="#EC5863"/>
<path d="M7.21344 23.0418H20.1035C20.6115 23.0418 20.9925 22.6481 20.9925 22.1528C20.9925 21.6575 20.6115 21.2765 20.1035 21.2765H7.21344C6.69274 21.2765 6.31177 21.6575 6.31177 22.1528C6.31177 22.6481 6.69274 23.0418 7.21344 23.0418ZM7.21344 28.0199H13.3727C13.8807 28.0199 14.2617 27.6391 14.2617 27.1564C14.2617 26.6612 13.8807 26.2674 13.3727 26.2674H7.21344C6.69274 26.2674 6.31177 26.6612 6.31177 27.1564C6.31177 27.6391 6.69274 28.0199 7.21344 28.0199Z" fill="#EC5863"/>
<path d="M13.2837 15.0283C13.8806 15.0283 14.2616 14.6473 14.2616 14.1521C14.2616 14.0632 14.2616 13.987 14.2616 13.8981C14.2616 13.1488 14.6553 12.7043 15.6205 12.0439C16.9666 11.1549 17.8175 10.3168 17.8175 8.79283C17.8175 6.672 15.9253 5.42743 13.6647 5.42743C11.6455 5.42743 9.85485 6.4942 9.52467 8.00544C9.48657 8.18324 9.47388 8.34834 9.47388 8.55155C9.47388 9.11032 9.90565 9.41511 10.3248 9.41511C10.7565 9.41511 11.0232 9.21191 11.2264 8.89442L11.4042 8.61503C11.7344 7.73877 12.5091 7.11649 13.5758 7.11649C14.922 7.11649 15.7348 7.82767 15.7348 8.88173C15.7348 9.75799 15.2141 10.2152 14.0076 11.066C12.9789 11.7772 12.3186 12.5138 12.3186 13.8092C12.3186 13.8981 12.3186 13.9743 12.3186 14.0759C12.3186 14.6981 12.6742 15.0283 13.2837 15.0283ZM13.271 18.9271C13.9949 18.9271 14.6426 18.3302 14.6426 17.5936C14.6426 16.8317 14.0203 16.2348 13.271 16.2348C12.4964 16.2348 11.8741 16.8444 11.8741 17.5936C11.8741 18.3175 12.5091 18.9271 13.271 18.9271Z" fill="#EC5863"/>
</svg>
