<svg width="12" height="14" viewBox="0 0 12 14" fill="none" xmlns="http://www.w3.org/2000/svg">
<path d="M1 3.05812V10.6402C1 11.7282 1 12.2721 1.16316 12.605C1.46559 13.222 2.12836 13.5766 2.8095 13.486C3.17699 13.4371 3.62961 13.1353 4.53486 12.5318L4.53703 12.5304C4.89584 12.2912 5.07527 12.1715 5.26297 12.1052C5.6077 11.9834 5.98384 11.9834 6.32857 12.1052C6.51664 12.1717 6.69677 12.2918 7.05703 12.5319C7.96228 13.1354 8.41541 13.4369 8.78291 13.4858C9.46404 13.5765 10.1268 13.222 10.4292 12.605C10.5924 12.2721 10.5924 11.728 10.5924 10.6402V3.05549C10.5924 2.16187 10.5924 1.71439 10.4183 1.37274C10.265 1.07192 10.0198 0.827526 9.71897 0.674251C9.37698 0.5 8.92992 0.5 8.03455 0.5H3.55812C2.66275 0.5 2.21473 0.5 1.87274 0.674251C1.57192 0.827526 1.32753 1.07192 1.17425 1.37274C1 1.71473 1 2.16275 1 3.05812Z" fill="white" stroke="#F96D28" stroke-linecap="round" stroke-linejoin="round"/>
</svg>
