<svg width="24" height="23" viewBox="0 0 24 23" fill="none" xmlns="http://www.w3.org/2000/svg">
<path d="M10.9627 23H13.0372C13.6288 23 14.0488 22.6571 14.1774 22.0656L14.7432 19.6739C15.1375 19.5366 15.5318 19.3823 15.8833 19.2196L17.975 20.514C18.4722 20.8311 19.0209 20.7796 19.4238 20.3683L20.881 18.9195C21.2925 18.508 21.3526 17.9508 21.0183 17.445L19.7323 15.3705C19.8952 15.0018 20.0495 14.6247 20.1696 14.2475L22.5783 13.6817C23.17 13.5531 23.4957 13.133 23.4957 12.5415V10.4927C23.4957 9.90979 23.17 9.49832 22.5783 9.36115L20.1866 8.78679C20.0495 8.37532 19.8866 7.99812 19.7495 7.66379L21.0353 5.55497C21.3612 5.05777 21.3183 4.5177 20.8982 4.10622L19.4238 2.6489C19.0037 2.26313 18.5065 2.19456 18.0007 2.4946L15.8833 3.80619C15.5404 3.63473 15.1547 3.48899 14.7432 3.35184L14.1774 0.934402C14.0488 0.342898 13.6288 0 13.0372 0H10.9627C10.3712 0 9.95115 0.342898 9.82257 0.934402L9.25678 3.33469C8.86244 3.47186 8.46811 3.61759 8.10806 3.79762L5.99923 2.4946C5.49346 2.19456 4.98768 2.25456 4.57621 2.6489L3.10173 4.10622C2.68168 4.5177 2.63882 5.05777 2.96458 5.55497L4.25045 7.66379C4.11328 7.99812 3.95041 8.37532 3.81326 8.78679L1.42153 9.36115C0.8386 9.49832 0.504272 9.90979 0.504272 10.4927V12.5415C0.504272 13.133 0.8386 13.5531 1.42153 13.6817L3.83039 14.2475C3.95041 14.6247 4.10471 15.0018 4.26758 15.3705L2.98172 17.445C2.64739 17.9508 2.7074 18.508 3.11888 18.9195L4.57621 20.3683C4.97911 20.7796 5.52775 20.8311 6.02495 20.514L8.11664 19.2196C8.47669 19.3823 8.86244 19.5366 9.25678 19.6739L9.82257 22.0656C9.95115 22.6571 10.3712 23 10.9627 23ZM12.0085 15.4305C9.8397 15.4305 8.0652 13.6474 8.0652 11.4871C8.0652 9.33543 9.84829 7.56093 12.0085 7.56093C14.1688 7.56093 15.9433 9.33543 15.9433 11.4871C15.9433 13.6474 14.1688 15.4305 12.0085 15.4305Z" fill="#64748B" fill-opacity="0.75"/>
</svg>
