<svg width="21" height="23" viewBox="0 0 21 23" fill="none" xmlns="http://www.w3.org/2000/svg">
<path d="M3.83886 23H17.4305C19.4864 23 20.6534 21.8239 20.6534 19.5347V7.45118C20.6534 5.17095 19.4774 3.99491 17.1612 3.99491H3.83886C1.52271 3.99491 0.34668 5.16197 0.34668 7.45118V19.5347C0.34668 21.8329 1.52271 23 3.83886 23ZM6.07421 4.44378L7.66321 4.45277C7.66321 2.74706 8.83924 1.50819 10.5 1.50819C12.1609 1.50819 13.3369 2.74706 13.3369 4.45277L14.9259 4.44378C14.9259 1.95705 13.0047 0 10.5 0C7.99538 0 6.07421 1.95705 6.07421 4.44378Z" fill="#64748B" fill-opacity="0.75"/>
</svg>
