<svg width="15" height="15" viewBox="0 0 15 15" fill="none" xmlns="http://www.w3.org/2000/svg">
<path d="M7.04925 3.17672C7.15057 3.17672 7.20122 3.12564 7.22022 3.04904C7.44182 2.00204 7.42283 1.91522 8.86648 1.72115C8.96145 1.71093 9.01843 1.66497 9.01843 1.58835C9.01843 1.51175 8.96145 1.46067 8.86648 1.45046C7.42283 1.25638 7.44182 1.16956 7.22022 0.122575C7.20122 0.0459653 7.15057 0 7.04925 0C6.94795 0 6.89729 0.0459653 6.87829 0.122575C6.65669 1.16956 6.67567 1.25638 5.23203 1.45046C5.13706 1.46067 5.08008 1.51175 5.08008 1.58835C5.08008 1.66497 5.13706 1.71093 5.23203 1.72115C6.67567 1.91522 6.65669 2.00204 6.87829 3.04904C6.89729 3.12564 6.94795 3.17672 7.04925 3.17672Z" fill="#EC5863"/>
<path d="M3.06458 7.67641C3.19122 7.67641 3.28619 7.60491 3.30519 7.50276C3.60911 5.73565 3.65977 5.75098 5.91388 5.40369C6.03418 5.38325 6.12916 5.31686 6.12916 5.20961C6.12916 5.10235 6.03418 5.03085 5.91388 5.01553C3.65977 4.73974 3.60278 4.70399 3.30519 2.92155C3.28619 2.8143 3.19122 2.7428 3.06458 2.7428C2.93794 2.7428 2.84296 2.8143 2.82397 2.92666C2.53905 4.68866 2.45673 4.66823 0.215281 5.01553C0.0949767 5.03595 0 5.10235 0 5.20961C0 5.32196 0.0949767 5.38325 0.240608 5.40369C2.4694 5.70501 2.53905 5.73055 2.82397 7.49255C2.84296 7.60491 2.93794 7.67641 3.06458 7.67641Z" fill="#EC5863"/>
<path d="M8.60579 15C8.80207 15 8.9477 14.8928 8.97304 14.7294C9.53022 11.0164 10.1254 10.5261 14.6526 10.1431C14.8616 10.1277 15.0009 10.0103 15.0009 9.85196C15.0009 9.69363 14.8616 9.57105 14.6526 9.55573C10.1254 9.17269 9.53022 8.68239 8.97304 4.96942C8.9477 4.81109 8.80207 4.69873 8.60579 4.69873C8.40951 4.69873 8.2702 4.81109 8.23855 4.96942C7.68135 8.68239 7.08617 9.17269 2.55895 9.55573C2.34999 9.57105 2.21069 9.69363 2.21069 9.85196C2.21069 10.0103 2.34999 10.1277 2.55895 10.1431C7.0735 10.613 7.64335 11.0215 8.23855 14.7294C8.2702 14.8928 8.40951 15 8.60579 15Z" fill="#EC5863"/>
</svg>
