<svg width="126" height="26" viewBox="0 0 126 26" fill="none" xmlns="http://www.w3.org/2000/svg">
<path d="M3.659 10C3.56367 10 3.48133 9.96967 3.412 9.909C3.35133 9.83967 3.321 9.75733 3.321 9.662V3.318H1.085C0.989667 3.318 0.907333 3.28767 0.838 3.227C0.777333 3.15767 0.747 3.07533 0.747 2.98V1.238C0.747 1.14267 0.777333 1.06467 0.838 1.004C0.907333 0.934666 0.989667 0.899999 1.085 0.899999H8.391C8.48633 0.899999 8.56433 0.934666 8.625 1.004C8.69433 1.06467 8.729 1.14267 8.729 1.238V2.98C8.729 3.07533 8.69433 3.15767 8.625 3.227C8.56433 3.28767 8.48633 3.318 8.391 3.318H6.155V9.662C6.155 9.75733 6.12033 9.83967 6.051 9.909C5.99033 9.96967 5.91233 10 5.817 10H3.659ZM9.80404 10C9.70871 10 9.62637 9.96967 9.55704 9.909C9.49637 9.83967 9.46604 9.75733 9.46604 9.662V1.108C9.46604 1.01267 9.49637 0.934666 9.55704 0.874C9.62637 0.804666 9.70871 0.77 9.80404 0.77H11.91C11.9967 0.77 12.0747 0.804666 12.144 0.874C12.2134 0.934666 12.248 1.01267 12.248 1.108V3.955C12.4734 3.695 12.755 3.49133 13.093 3.344C13.4397 3.188 13.8297 3.11 14.263 3.11C14.731 3.11 15.16 3.21833 15.55 3.435C15.9487 3.65167 16.265 3.97667 16.499 4.41C16.7417 4.84333 16.863 5.38933 16.863 6.048V9.662C16.863 9.75733 16.8284 9.83967 16.759 9.909C16.6897 9.96967 16.6117 10 16.525 10H14.406C14.3107 10 14.2284 9.96967 14.159 9.909C14.0984 9.83967 14.068 9.75733 14.068 9.662V6.139C14.068 5.81833 13.99 5.57133 13.834 5.398C13.678 5.22467 13.457 5.138 13.171 5.138C12.885 5.138 12.6597 5.22467 12.495 5.398C12.3304 5.57133 12.248 5.81833 12.248 6.139V9.662C12.248 9.75733 12.2134 9.83967 12.144 9.909C12.0747 9.96967 11.9967 10 11.91 10H9.80404ZM21.4519 10.13C20.3686 10.13 19.5063 9.85267 18.8649 9.298C18.2323 8.73467 17.9073 7.87667 17.8899 6.724C17.8899 6.68933 17.8899 6.646 17.8899 6.594C17.8899 6.53333 17.8899 6.49 17.8899 6.464C17.9159 5.74467 18.0719 5.138 18.3579 4.644C18.6526 4.14133 19.0599 3.76 19.5799 3.5C20.1086 3.24 20.7283 3.11 21.4389 3.11C22.2363 3.11 22.8949 3.27033 23.4149 3.591C23.9436 3.903 24.3379 4.32333 24.5979 4.852C24.8579 5.372 24.9879 5.957 24.9879 6.607V6.971C24.9879 7.05767 24.9533 7.13567 24.8839 7.205C24.8146 7.27433 24.7323 7.309 24.6369 7.309H20.6329C20.6329 7.309 20.6329 7.31767 20.6329 7.335C20.6329 7.35233 20.6329 7.36967 20.6329 7.387C20.6329 7.595 20.6589 7.78133 20.7109 7.946C20.7716 8.102 20.8626 8.22767 20.9839 8.323C21.1053 8.40967 21.2526 8.453 21.4259 8.453C21.5386 8.453 21.6339 8.43567 21.7119 8.401C21.7899 8.36633 21.8549 8.323 21.9069 8.271C21.9676 8.21033 22.0196 8.154 22.0629 8.102C22.1409 8.024 22.2059 7.97633 22.2579 7.959C22.3099 7.933 22.3879 7.92 22.4919 7.92H24.5329C24.6109 7.92 24.6759 7.946 24.7279 7.998C24.7886 8.05 24.8146 8.115 24.8059 8.193C24.7973 8.349 24.7236 8.53967 24.5849 8.765C24.4463 8.98167 24.2383 9.194 23.9609 9.402C23.6923 9.61 23.3456 9.78333 22.9209 9.922C22.4963 10.0607 22.0066 10.13 21.4519 10.13ZM20.6329 5.853H22.2449V5.827C22.2449 5.593 22.2146 5.39367 22.1539 5.229C22.0933 5.06433 22.0023 4.943 21.8809 4.865C21.7596 4.77833 21.6123 4.735 21.4389 4.735C21.2656 4.735 21.1183 4.77833 20.9969 4.865C20.8756 4.943 20.7846 5.06433 20.7239 5.229C20.6633 5.39367 20.6329 5.593 20.6329 5.827V5.853ZM95.8051 10C95.7185 10 95.6405 9.96967 95.5711 9.909C95.5018 9.83967 95.4671 9.75733 95.4671 9.662V1.238C95.4671 1.14267 95.5018 1.06467 95.5711 1.004C95.6405 0.934666 95.7185 0.899999 95.8051 0.899999H99.6011C100.355 0.899999 101.009 1.01267 101.564 1.238C102.127 1.46333 102.565 1.80567 102.877 2.265C103.189 2.72433 103.345 3.30067 103.345 3.994C103.345 4.68733 103.189 5.25933 102.877 5.71C102.565 6.152 102.127 6.477 101.564 6.685C101.009 6.893 100.355 6.997 99.6011 6.997H98.3661V9.662C98.3661 9.75733 98.3315 9.83967 98.2621 9.909C98.2015 9.96967 98.1235 10 98.0281 10H95.8051ZM98.3141 4.904H99.5361C99.7875 4.904 99.9998 4.83033 100.173 4.683C100.355 4.527 100.446 4.28867 100.446 3.968C100.446 3.72533 100.377 3.50433 100.238 3.305C100.099 3.10567 99.8655 3.006 99.5361 3.006H98.3141V4.904ZM104.663 10C104.568 10 104.486 9.96967 104.416 9.909C104.356 9.83967 104.325 9.75733 104.325 9.662V3.578C104.325 3.48267 104.356 3.40467 104.416 3.344C104.486 3.27467 104.568 3.24 104.663 3.24H106.548C106.644 3.24 106.722 3.27467 106.782 3.344C106.852 3.40467 106.886 3.48267 106.886 3.578V4.059C107.146 3.80767 107.441 3.60833 107.77 3.461C108.108 3.31367 108.477 3.24 108.875 3.24H109.46C109.556 3.24 109.638 3.27467 109.707 3.344C109.777 3.40467 109.811 3.48267 109.811 3.578V5.255C109.811 5.35033 109.777 5.43267 109.707 5.502C109.638 5.57133 109.556 5.606 109.46 5.606H108.004C107.692 5.606 107.454 5.68833 107.289 5.853C107.125 6.009 107.042 6.243 107.042 6.555V9.662C107.042 9.75733 107.008 9.83967 106.938 9.909C106.878 9.96967 106.8 10 106.704 10H104.663ZM113.937 10.13C112.854 10.13 111.992 9.85267 111.35 9.298C110.718 8.73467 110.393 7.87667 110.375 6.724C110.375 6.68933 110.375 6.646 110.375 6.594C110.375 6.53333 110.375 6.49 110.375 6.464C110.401 5.74467 110.557 5.138 110.843 4.644C111.138 4.14133 111.545 3.76 112.065 3.5C112.594 3.24 113.214 3.11 113.924 3.11C114.722 3.11 115.38 3.27033 115.9 3.591C116.429 3.903 116.823 4.32333 117.083 4.852C117.343 5.372 117.473 5.957 117.473 6.607V6.971C117.473 7.05767 117.439 7.13567 117.369 7.205C117.3 7.27433 117.218 7.309 117.122 7.309H113.118C113.118 7.309 113.118 7.31767 113.118 7.335C113.118 7.35233 113.118 7.36967 113.118 7.387C113.118 7.595 113.144 7.78133 113.196 7.946C113.257 8.102 113.348 8.22767 113.469 8.323C113.591 8.40967 113.738 8.453 113.911 8.453C114.024 8.453 114.119 8.43567 114.197 8.401C114.275 8.36633 114.34 8.323 114.392 8.271C114.453 8.21033 114.505 8.154 114.548 8.102C114.626 8.024 114.691 7.97633 114.743 7.959C114.795 7.933 114.873 7.92 114.977 7.92H117.018C117.096 7.92 117.161 7.946 117.213 7.998C117.274 8.05 117.3 8.115 117.291 8.193C117.283 8.349 117.209 8.53967 117.07 8.765C116.932 8.98167 116.724 9.194 116.446 9.402C116.178 9.61 115.831 9.78333 115.406 9.922C114.982 10.0607 114.492 10.13 113.937 10.13ZM113.118 5.853H114.73V5.827C114.73 5.593 114.7 5.39367 114.639 5.229C114.579 5.06433 114.488 4.943 114.366 4.865C114.245 4.77833 114.098 4.735 113.924 4.735C113.751 4.735 113.604 4.77833 113.482 4.865C113.361 4.943 113.27 5.06433 113.209 5.229C113.149 5.39367 113.118 5.593 113.118 5.827V5.853ZM118.882 12.47C118.787 12.47 118.704 12.4353 118.635 12.366C118.574 12.3053 118.544 12.2273 118.544 12.132V3.578C118.544 3.48267 118.574 3.40467 118.635 3.344C118.704 3.27467 118.787 3.24 118.882 3.24H120.715C120.81 3.24 120.888 3.27467 120.949 3.344C121.018 3.40467 121.053 3.48267 121.053 3.578V4.007C121.261 3.747 121.525 3.53467 121.846 3.37C122.167 3.19667 122.561 3.11 123.029 3.11C123.436 3.11 123.8 3.17067 124.121 3.292C124.45 3.41333 124.736 3.59967 124.979 3.851C125.222 4.09367 125.412 4.40567 125.551 4.787C125.69 5.16833 125.772 5.61467 125.798 6.126C125.807 6.308 125.811 6.47267 125.811 6.62C125.811 6.76733 125.807 6.93633 125.798 7.127C125.781 7.61233 125.703 8.04133 125.564 8.414C125.425 8.78667 125.235 9.103 124.992 9.363C124.749 9.61433 124.463 9.805 124.134 9.935C123.805 10.065 123.436 10.13 123.029 10.13C122.63 10.13 122.279 10.065 121.976 9.935C121.673 9.79633 121.421 9.584 121.222 9.298V12.132C121.222 12.2273 121.187 12.3053 121.118 12.366C121.049 12.4353 120.971 12.47 120.884 12.47H118.882ZM122.145 8.102C122.37 8.102 122.544 8.05867 122.665 7.972C122.795 7.87667 122.886 7.751 122.938 7.595C122.999 7.43033 123.038 7.244 123.055 7.036C123.081 6.75867 123.081 6.48133 123.055 6.204C123.038 5.996 122.999 5.814 122.938 5.658C122.886 5.49333 122.795 5.36767 122.665 5.281C122.544 5.18567 122.37 5.138 122.145 5.138C121.92 5.138 121.738 5.18567 121.599 5.281C121.469 5.37633 121.374 5.502 121.313 5.658C121.261 5.814 121.231 5.98733 121.222 6.178C121.213 6.36 121.209 6.52467 121.209 6.672C121.209 6.81067 121.213 6.971 121.222 7.153C121.231 7.335 121.265 7.49533 121.326 7.634C121.395 7.77267 121.495 7.88533 121.625 7.972C121.755 8.05867 121.928 8.102 122.145 8.102ZM4.907 25.13C3.997 25.13 3.23867 25.0043 2.632 24.753C2.034 24.493 1.58333 24.1593 1.28 23.752C0.985333 23.336 0.829333 22.8983 0.812 22.439C0.812 22.361 0.838 22.296 0.89 22.244C0.942 22.192 1.007 22.166 1.085 22.166H3.152C3.27333 22.166 3.36867 22.1877 3.438 22.231C3.50733 22.2657 3.581 22.3177 3.659 22.387C3.737 22.4823 3.828 22.5733 3.932 22.66C4.036 22.738 4.17033 22.803 4.335 22.855C4.49967 22.8983 4.69033 22.92 4.907 22.92C5.30567 22.92 5.61333 22.868 5.83 22.764C6.04667 22.6513 6.155 22.4997 6.155 22.309C6.155 22.1617 6.09433 22.0403 5.973 21.945C5.86033 21.8497 5.66533 21.763 5.388 21.685C5.11067 21.607 4.73367 21.5247 4.257 21.438C3.58967 21.3253 3.01333 21.1607 2.528 20.944C2.04267 20.7187 1.67 20.4197 1.41 20.047C1.15867 19.6657 1.033 19.1977 1.033 18.643C1.033 18.0797 1.189 17.5813 1.501 17.148C1.82167 16.7147 2.26367 16.3767 2.827 16.134C3.399 15.8913 4.062 15.77 4.816 15.77C5.44 15.77 5.99033 15.8523 6.467 16.017C6.95233 16.1817 7.35967 16.3983 7.689 16.667C8.01833 16.927 8.26967 17.2087 8.443 17.512C8.61633 17.8153 8.70733 18.1057 8.716 18.383C8.716 18.461 8.68567 18.5303 8.625 18.591C8.573 18.643 8.51233 18.669 8.443 18.669H6.272C6.168 18.669 6.077 18.6517 5.999 18.617C5.92967 18.5823 5.86467 18.526 5.804 18.448C5.76067 18.3267 5.65233 18.2183 5.479 18.123C5.30567 18.0277 5.08467 17.98 4.816 17.98C4.52133 17.98 4.296 18.032 4.14 18.136C3.984 18.2313 3.906 18.3743 3.906 18.565C3.906 18.695 3.95367 18.8077 4.049 18.903C4.14433 18.9983 4.31333 19.085 4.556 19.163C4.79867 19.2323 5.13667 19.3103 5.57 19.397C6.39333 19.5183 7.05633 19.6917 7.559 19.917C8.07033 20.1423 8.443 20.437 8.677 20.801C8.911 21.165 9.028 21.62 9.028 22.166C9.028 22.7813 8.85033 23.31 8.495 23.752C8.13967 24.194 7.65 24.5363 7.026 24.779C6.41067 25.013 5.70433 25.13 4.907 25.13ZM13.3269 25.13C12.2436 25.13 11.3813 24.8527 10.7399 24.298C10.1073 23.7347 9.78227 22.8767 9.76494 21.724C9.76494 21.6893 9.76494 21.646 9.76494 21.594C9.76494 21.5333 9.76494 21.49 9.76494 21.464C9.79094 20.7447 9.94694 20.138 10.2329 19.644C10.5276 19.1413 10.9349 18.76 11.4549 18.5C11.9836 18.24 12.6033 18.11 13.3139 18.11C14.1113 18.11 14.7699 18.2703 15.2899 18.591C15.8186 18.903 16.2129 19.3233 16.4729 19.852C16.7329 20.372 16.8629 20.957 16.8629 21.607V21.971C16.8629 22.0577 16.8283 22.1357 16.7589 22.205C16.6896 22.2743 16.6073 22.309 16.5119 22.309H12.5079C12.5079 22.309 12.5079 22.3177 12.5079 22.335C12.5079 22.3523 12.5079 22.3697 12.5079 22.387C12.5079 22.595 12.5339 22.7813 12.5859 22.946C12.6466 23.102 12.7376 23.2277 12.8589 23.323C12.9803 23.4097 13.1276 23.453 13.3009 23.453C13.4136 23.453 13.5089 23.4357 13.5869 23.401C13.6649 23.3663 13.7299 23.323 13.7819 23.271C13.8426 23.2103 13.8946 23.154 13.9379 23.102C14.0159 23.024 14.0809 22.9763 14.1329 22.959C14.1849 22.933 14.2629 22.92 14.3669 22.92H16.4079C16.4859 22.92 16.5509 22.946 16.6029 22.998C16.6636 23.05 16.6896 23.115 16.6809 23.193C16.6723 23.349 16.5986 23.5397 16.4599 23.765C16.3213 23.9817 16.1133 24.194 15.8359 24.402C15.5673 24.61 15.2206 24.7833 14.7959 24.922C14.3713 25.0607 13.8816 25.13 13.3269 25.13ZM12.5079 20.853H14.1199V20.827C14.1199 20.593 14.0896 20.3937 14.0289 20.229C13.9683 20.0643 13.8773 19.943 13.7559 19.865C13.6346 19.7783 13.4873 19.735 13.3139 19.735C13.1406 19.735 12.9933 19.7783 12.8719 19.865C12.7506 19.943 12.6596 20.0643 12.5989 20.229C12.5383 20.3937 12.5079 20.593 12.5079 20.827V20.853ZM18.2718 25C18.1765 25 18.0941 24.9697 18.0248 24.909C17.9641 24.8397 17.9338 24.7573 17.9338 24.662V18.578C17.9338 18.4827 17.9641 18.4047 18.0248 18.344C18.0941 18.2747 18.1765 18.24 18.2718 18.24H20.1568C20.2521 18.24 20.3301 18.2747 20.3908 18.344C20.4601 18.4047 20.4948 18.4827 20.4948 18.578V19.059C20.7548 18.8077 21.0495 18.6083 21.3788 18.461C21.7168 18.3137 22.0851 18.24 22.4838 18.24H23.0688C23.1641 18.24 23.2465 18.2747 23.3158 18.344C23.3851 18.4047 23.4198 18.4827 23.4198 18.578V20.255C23.4198 20.3503 23.3851 20.4327 23.3158 20.502C23.2465 20.5713 23.1641 20.606 23.0688 20.606H21.6128C21.3008 20.606 21.0625 20.6883 20.8978 20.853C20.7331 21.009 20.6508 21.243 20.6508 21.555V24.662C20.6508 24.7573 20.6161 24.8397 20.5468 24.909C20.4861 24.9697 20.4081 25 20.3128 25H18.2718ZM24.5941 25C24.4987 25 24.4164 24.9697 24.3471 24.909C24.2864 24.8397 24.2561 24.7573 24.2561 24.662V18.578C24.2561 18.4827 24.2864 18.4047 24.3471 18.344C24.4164 18.2747 24.4987 18.24 24.5941 18.24H26.5181C26.6134 18.24 26.6957 18.2747 26.7651 18.344C26.8344 18.4047 26.8691 18.4827 26.8691 18.578V24.662C26.8691 24.7573 26.8344 24.8397 26.7651 24.909C26.6957 24.9697 26.6134 25 26.5181 25H24.5941ZM24.6201 17.395C24.5247 17.395 24.4424 17.3647 24.3731 17.304C24.3124 17.2347 24.2821 17.1523 24.2821 17.057V15.692C24.2821 15.5967 24.3124 15.5143 24.3731 15.445C24.4424 15.3757 24.5247 15.341 24.6201 15.341H26.4921C26.5874 15.341 26.6697 15.3757 26.7391 15.445C26.8084 15.5143 26.8431 15.5967 26.8431 15.692V17.057C26.8431 17.1523 26.8084 17.2347 26.7391 17.304C26.6697 17.3647 26.5874 17.395 26.4921 17.395H24.6201ZM31.5193 25.13C30.436 25.13 29.5737 24.8527 28.9323 24.298C28.2997 23.7347 27.9747 22.8767 27.9573 21.724C27.9573 21.6893 27.9573 21.646 27.9573 21.594C27.9573 21.5333 27.9573 21.49 27.9573 21.464C27.9833 20.7447 28.1393 20.138 28.4253 19.644C28.72 19.1413 29.1273 18.76 29.6473 18.5C30.176 18.24 30.7957 18.11 31.5063 18.11C32.3037 18.11 32.9623 18.2703 33.4823 18.591C34.011 18.903 34.4053 19.3233 34.6653 19.852C34.9253 20.372 35.0553 20.957 35.0553 21.607V21.971C35.0553 22.0577 35.0207 22.1357 34.9513 22.205C34.882 22.2743 34.7997 22.309 34.7043 22.309H30.7003C30.7003 22.309 30.7003 22.3177 30.7003 22.335C30.7003 22.3523 30.7003 22.3697 30.7003 22.387C30.7003 22.595 30.7263 22.7813 30.7783 22.946C30.839 23.102 30.93 23.2277 31.0513 23.323C31.1727 23.4097 31.32 23.453 31.4933 23.453C31.606 23.453 31.7013 23.4357 31.7793 23.401C31.8573 23.3663 31.9223 23.323 31.9743 23.271C32.035 23.2103 32.087 23.154 32.1303 23.102C32.2083 23.024 32.2733 22.9763 32.3253 22.959C32.3773 22.933 32.4553 22.92 32.5593 22.92H34.6003C34.6783 22.92 34.7433 22.946 34.7953 22.998C34.856 23.05 34.882 23.115 34.8733 23.193C34.8647 23.349 34.791 23.5397 34.6523 23.765C34.5137 23.9817 34.3057 24.194 34.0283 24.402C33.7597 24.61 33.413 24.7833 32.9883 24.922C32.5637 25.0607 32.074 25.13 31.5193 25.13ZM30.7003 20.853H32.3123V20.827C32.3123 20.593 32.282 20.3937 32.2213 20.229C32.1607 20.0643 32.0697 19.943 31.9483 19.865C31.827 19.7783 31.6797 19.735 31.5063 19.735C31.333 19.735 31.1857 19.7783 31.0643 19.865C30.943 19.943 30.852 20.0643 30.7913 20.229C30.7307 20.3937 30.7003 20.593 30.7003 20.827V20.853ZM39.1032 25.13C38.5139 25.13 38.0112 25.0693 37.5952 24.948C37.1792 24.818 36.8369 24.6577 36.5682 24.467C36.3082 24.2763 36.1175 24.0813 35.9962 23.882C35.8749 23.674 35.8099 23.492 35.8012 23.336C35.7925 23.2407 35.8185 23.1627 35.8792 23.102C35.9485 23.0327 36.0222 22.998 36.1002 22.998H37.9852C37.9939 22.998 38.0069 23.0023 38.0242 23.011C38.0415 23.011 38.0589 23.0197 38.0762 23.037C38.1889 23.0717 38.2929 23.128 38.3882 23.206C38.4922 23.284 38.6049 23.3533 38.7262 23.414C38.8562 23.4747 39.0079 23.505 39.1812 23.505C39.3285 23.505 39.4585 23.4747 39.5712 23.414C39.6925 23.3447 39.7532 23.2493 39.7532 23.128C39.7532 23.024 39.7185 22.933 39.6492 22.855C39.5885 22.777 39.4542 22.7033 39.2462 22.634C39.0382 22.556 38.7045 22.4737 38.2452 22.387C37.8205 22.3003 37.4305 22.1747 37.0752 22.01C36.7285 21.8367 36.4512 21.607 36.2432 21.321C36.0439 21.035 35.9442 20.684 35.9442 20.268C35.9442 19.9127 36.0612 19.5703 36.2952 19.241C36.5292 18.9117 36.8759 18.643 37.3352 18.435C37.8032 18.2183 38.3752 18.11 39.0512 18.11C39.5625 18.11 40.0132 18.1707 40.4032 18.292C40.8019 18.4133 41.1355 18.565 41.4042 18.747C41.6815 18.929 41.8895 19.124 42.0282 19.332C42.1755 19.54 42.2535 19.7263 42.2622 19.891C42.2709 19.9863 42.2449 20.0687 42.1842 20.138C42.1235 20.1987 42.0542 20.229 41.9762 20.229H40.2732C40.2472 20.229 40.2169 20.229 40.1822 20.229C40.1562 20.2203 40.1345 20.2073 40.1172 20.19C39.9959 20.164 39.8832 20.1163 39.7792 20.047C39.6839 19.969 39.5799 19.8997 39.4672 19.839C39.3545 19.7697 39.2115 19.735 39.0382 19.735C38.8909 19.735 38.7695 19.7697 38.6742 19.839C38.5875 19.9083 38.5442 19.9993 38.5442 20.112C38.5442 20.2073 38.5745 20.294 38.6352 20.372C38.6959 20.45 38.8345 20.5237 39.0512 20.593C39.2679 20.6623 39.6102 20.736 40.0782 20.814C40.6849 20.9093 41.1702 21.0697 41.5342 21.295C41.8982 21.5117 42.1582 21.7673 42.3142 22.062C42.4702 22.3567 42.5482 22.6513 42.5482 22.946C42.5482 23.388 42.4139 23.7737 42.1452 24.103C41.8852 24.4323 41.4952 24.688 40.9752 24.87C40.4639 25.0433 39.8399 25.13 39.1032 25.13ZM46.6709 19.358C46.4803 19.358 46.3849 19.2627 46.3849 19.072V16.186C46.3849 15.9953 46.4803 15.9 46.6709 15.9H47.2429C47.3383 15.9 47.4119 15.9303 47.4639 15.991C47.5246 16.0517 47.5766 16.1167 47.6199 16.186L48.2699 17.226L48.9199 16.186C48.9633 16.1167 49.0153 16.0517 49.0759 15.991C49.1366 15.9303 49.2103 15.9 49.2969 15.9H49.8689C50.0596 15.9 50.1549 15.9953 50.1549 16.186V19.072C50.1549 19.2627 50.0596 19.358 49.8689 19.358H49.2709C49.0803 19.358 48.9849 19.2627 48.9849 19.072V17.928L48.7639 18.266C48.7206 18.3353 48.6773 18.396 48.6339 18.448C48.5906 18.5 48.5213 18.526 48.4259 18.526H48.1139C48.0273 18.526 47.9579 18.5 47.9059 18.448C47.8626 18.396 47.8193 18.3353 47.7759 18.266L47.5549 17.928V19.072C47.5549 19.2627 47.4596 19.358 47.2689 19.358H46.6709ZM44.1489 19.358C43.9583 19.358 43.8629 19.2627 43.8629 19.072V17.057H43.1869C42.9963 17.057 42.9009 16.9617 42.9009 16.771V16.186C42.9009 15.9953 42.9963 15.9 43.1869 15.9H45.7219C45.9126 15.9 46.0079 15.9953 46.0079 16.186V16.771C46.0079 16.9617 45.9126 17.057 45.7219 17.057H45.0459V19.072C45.0459 19.2627 44.9506 19.358 44.7599 19.358H44.1489Z" fill="black"/>
<path d="M31.5867 10C31.4913 10 31.409 9.96967 31.3397 9.909C31.279 9.83967 31.2487 9.75733 31.2487 9.662V3.942L29.6237 5.19C29.537 5.25067 29.4503 5.27233 29.3637 5.255C29.2857 5.229 29.212 5.17267 29.1427 5.086L28.1937 3.851C28.1503 3.773 28.133 3.68633 28.1417 3.591C28.159 3.49567 28.211 3.422 28.2977 3.37L31.3657 0.991C31.409 0.956333 31.4523 0.934666 31.4957 0.926C31.539 0.908666 31.591 0.899999 31.6517 0.899999H33.6927C33.788 0.899999 33.8703 0.934666 33.9397 1.004C34.009 1.06467 34.0437 1.14267 34.0437 1.238V9.662C34.0437 9.75733 34.009 9.83967 33.9397 9.909C33.8703 9.96967 33.788 10 33.6927 10H31.5867ZM38.4421 10C38.3468 10 38.2645 9.96967 38.1951 9.909C38.1345 9.83967 38.1041 9.75733 38.1041 9.662V3.942L36.4791 5.19C36.3925 5.25067 36.3058 5.27233 36.2191 5.255C36.1411 5.229 36.0675 5.17267 35.9981 5.086L35.0491 3.851C35.0058 3.773 34.9885 3.68633 34.9971 3.591C35.0145 3.49567 35.0665 3.422 35.1531 3.37L38.2211 0.991C38.2645 0.956333 38.3078 0.934666 38.3511 0.926C38.3945 0.908666 38.4465 0.899999 38.5071 0.899999H40.5481C40.6435 0.899999 40.7258 0.934666 40.7951 1.004C40.8645 1.06467 40.8991 1.14267 40.8991 1.238V9.662C40.8991 9.75733 40.8645 9.83967 40.7951 9.909C40.7258 9.96967 40.6435 10 40.5481 10H38.4421ZM46.1816 10C45.5923 10 45.0723 9.91333 44.6216 9.74C44.1796 9.56667 43.8329 9.285 43.5816 8.895C43.3389 8.49633 43.2176 7.972 43.2176 7.322V5.229H42.1906C42.0953 5.229 42.0129 5.19867 41.9436 5.138C41.8829 5.06867 41.8526 4.98633 41.8526 4.891V3.578C41.8526 3.48267 41.8829 3.40467 41.9436 3.344C42.0129 3.27467 42.0953 3.24 42.1906 3.24H43.2176V1.108C43.2176 1.01267 43.2479 0.934666 43.3086 0.874C43.3779 0.804666 43.4603 0.77 43.5556 0.77H45.4406C45.5359 0.77 45.6139 0.804666 45.6746 0.874C45.7439 0.934666 45.7786 1.01267 45.7786 1.108V3.24H47.4166C47.5119 3.24 47.5899 3.27467 47.6506 3.344C47.7199 3.40467 47.7546 3.48267 47.7546 3.578V4.891C47.7546 4.98633 47.7199 5.06867 47.6506 5.138C47.5899 5.19867 47.5119 5.229 47.4166 5.229H45.7786V7.101C45.7786 7.35233 45.8306 7.55167 45.9346 7.699C46.0386 7.83767 46.2033 7.907 46.4286 7.907H47.5206C47.6159 7.907 47.6939 7.94167 47.7546 8.011C47.8239 8.07167 47.8586 8.14967 47.8586 8.245V9.662C47.8586 9.75733 47.8239 9.83967 47.7546 9.909C47.6939 9.96967 47.6159 10 47.5206 10H46.1816ZM49.1976 10C49.1023 10 49.0199 9.96967 48.9506 9.909C48.8899 9.83967 48.8596 9.75733 48.8596 9.662V1.108C48.8596 1.01267 48.8899 0.934666 48.9506 0.874C49.0199 0.804666 49.1023 0.77 49.1976 0.77H51.3036C51.3903 0.77 51.4683 0.804666 51.5376 0.874C51.6069 0.934666 51.6416 1.01267 51.6416 1.108V3.955C51.8669 3.695 52.1486 3.49133 52.4866 3.344C52.8333 3.188 53.2233 3.11 53.6566 3.11C54.1246 3.11 54.5536 3.21833 54.9436 3.435C55.3423 3.65167 55.6586 3.97667 55.8926 4.41C56.1353 4.84333 56.2566 5.38933 56.2566 6.048V9.662C56.2566 9.75733 56.2219 9.83967 56.1526 9.909C56.0833 9.96967 56.0053 10 55.9186 10H53.7996C53.7043 10 53.6219 9.96967 53.5526 9.909C53.4919 9.83967 53.4616 9.75733 53.4616 9.662V6.139C53.4616 5.81833 53.3836 5.57133 53.2276 5.398C53.0716 5.22467 52.8506 5.138 52.5646 5.138C52.2786 5.138 52.0533 5.22467 51.8886 5.398C51.7239 5.57133 51.6416 5.81833 51.6416 6.139V9.662C51.6416 9.75733 51.6069 9.83967 51.5376 9.909C51.4683 9.96967 51.3903 10 51.3036 10H49.1976ZM60.5883 10C60.5017 10 60.4237 9.96967 60.3543 9.909C60.285 9.84833 60.2503 9.766 60.2503 9.662V1.238C60.2503 1.14267 60.285 1.06467 60.3543 1.004C60.4237 0.934666 60.5017 0.899999 60.5883 0.899999H62.7073C62.8027 0.899999 62.8807 0.934666 62.9413 1.004C63.0107 1.06467 63.0453 1.14267 63.0453 1.238V4.176H65.6973V1.238C65.6973 1.14267 65.7277 1.06467 65.7883 1.004C65.8577 0.934666 65.94 0.899999 66.0353 0.899999H68.1543C68.2497 0.899999 68.3277 0.934666 68.3883 1.004C68.4577 1.06467 68.4923 1.14267 68.4923 1.238V9.662C68.4923 9.75733 68.4577 9.83967 68.3883 9.909C68.3277 9.96967 68.2497 10 68.1543 10H66.0353C65.94 10 65.8577 9.96967 65.7883 9.909C65.7277 9.83967 65.6973 9.75733 65.6973 9.662V6.646H63.0453V9.662C63.0453 9.75733 63.0107 9.83967 62.9413 9.909C62.8807 9.96967 62.8027 10 62.7073 10H60.5883ZM73.3776 10.13C72.6149 10.13 71.9693 10.0173 71.4406 9.792C70.9206 9.56667 70.5219 9.23733 70.2446 8.804C69.9673 8.362 69.8113 7.83333 69.7766 7.218C69.7679 7.036 69.7636 6.83667 69.7636 6.62C69.7636 6.40333 69.7679 6.204 69.7766 6.022C69.8113 5.398 69.9759 4.86933 70.2706 4.436C70.5653 4.00267 70.9726 3.67333 71.4926 3.448C72.0213 3.22267 72.6496 3.11 73.3776 3.11C74.1056 3.11 74.7296 3.22267 75.2496 3.448C75.7783 3.67333 76.1899 4.00267 76.4846 4.436C76.7793 4.86933 76.9439 5.398 76.9786 6.022C76.9959 6.204 77.0046 6.40333 77.0046 6.62C77.0046 6.83667 76.9959 7.036 76.9786 7.218C76.9439 7.83333 76.7879 8.362 76.5106 8.804C76.2333 9.23733 75.8303 9.56667 75.3016 9.792C74.7816 10.0173 74.1403 10.13 73.3776 10.13ZM73.3776 8.297C73.6983 8.297 73.9193 8.20167 74.0406 8.011C74.1619 7.82033 74.2313 7.53433 74.2486 7.153C74.2573 7.023 74.2616 6.84533 74.2616 6.62C74.2616 6.39467 74.2573 6.217 74.2486 6.087C74.2313 5.71433 74.1619 5.43267 74.0406 5.242C73.9193 5.04267 73.6983 4.943 73.3776 4.943C73.0656 4.943 72.8489 5.04267 72.7276 5.242C72.6063 5.43267 72.5326 5.71433 72.5066 6.087C72.4979 6.217 72.4936 6.39467 72.4936 6.62C72.4936 6.84533 72.4979 7.023 72.5066 7.153C72.5326 7.53433 72.6063 7.82033 72.7276 8.011C72.8489 8.20167 73.0656 8.297 73.3776 8.297ZM80.5923 10.13C80.1243 10.13 79.6953 10.0217 79.3053 9.805C78.924 9.58833 78.6206 9.26333 78.3953 8.83C78.17 8.39667 78.0573 7.85067 78.0573 7.192V3.578C78.0573 3.48267 78.0876 3.40467 78.1483 3.344C78.2176 3.27467 78.3 3.24 78.3953 3.24H80.4493C80.5446 3.24 80.6226 3.27467 80.6833 3.344C80.7526 3.40467 80.7873 3.48267 80.7873 3.578V7.101C80.7873 7.76833 81.0863 8.102 81.6843 8.102C81.9703 8.102 82.1913 8.01533 82.3473 7.842C82.512 7.66867 82.5943 7.42167 82.5943 7.101V3.578C82.5943 3.48267 82.6246 3.40467 82.6853 3.344C82.7546 3.27467 82.837 3.24 82.9323 3.24H84.9863C85.073 3.24 85.151 3.27467 85.2203 3.344C85.2896 3.40467 85.3243 3.48267 85.3243 3.578V9.662C85.3243 9.75733 85.2896 9.83967 85.2203 9.909C85.151 9.96967 85.073 10 84.9863 10H83.0883C82.993 10 82.9106 9.96967 82.8413 9.909C82.7806 9.83967 82.7503 9.75733 82.7503 9.662V9.194C82.5336 9.51467 82.239 9.753 81.8663 9.909C81.4936 10.0563 81.069 10.13 80.5923 10.13ZM87.0042 10C86.9089 10 86.8266 9.96967 86.7572 9.909C86.6966 9.83967 86.6662 9.75733 86.6662 9.662V3.578C86.6662 3.48267 86.6966 3.40467 86.7572 3.344C86.8266 3.27467 86.9089 3.24 87.0042 3.24H88.8892C88.9846 3.24 89.0626 3.27467 89.1232 3.344C89.1926 3.40467 89.2272 3.48267 89.2272 3.578V4.059C89.4872 3.80767 89.7819 3.60833 90.1112 3.461C90.4492 3.31367 90.8176 3.24 91.2162 3.24H91.8012C91.8966 3.24 91.9789 3.27467 92.0482 3.344C92.1176 3.40467 92.1522 3.48267 92.1522 3.578V5.255C92.1522 5.35033 92.1176 5.43267 92.0482 5.502C91.9789 5.57133 91.8966 5.606 91.8012 5.606H90.3452C90.0332 5.606 89.7949 5.68833 89.6302 5.853C89.4656 6.009 89.3832 6.243 89.3832 6.555V9.662C89.3832 9.75733 89.3486 9.83967 89.2792 9.909C89.2186 9.96967 89.1406 10 89.0452 10H87.0042Z" fill="#EC5863"/>
</svg>
