<svg width="41" height="12" viewBox="0 0 41 12" fill="none" xmlns="http://www.w3.org/2000/svg">
<mask id="path-1-outside-1_5086_16875" maskUnits="userSpaceOnUse" x="-1.5" y="-2" width="44" height="15" fill="black">
<rect fill="white" x="-1.5" y="-2" width="44" height="15"/>
<path d="M4.385 11C4.205 11 4.06 10.95 3.95 10.85C3.85 10.75 3.785 10.645 3.755 10.535L0.8 0.935C0.79 0.895 0.785 0.86 0.785 0.83C0.785 0.739999 0.815 0.665 0.875 0.605C0.945 0.534999 1.025 0.499999 1.115 0.499999H3.44C3.62 0.499999 3.76 0.549999 3.86 0.649999C3.96 0.75 4.025 0.85 4.055 0.95L5.825 7.205L7.595 0.95C7.625 0.85 7.69 0.75 7.79 0.649999C7.89 0.549999 8.03 0.499999 8.21 0.499999H10.535C10.625 0.499999 10.7 0.534999 10.76 0.605C10.82 0.665 10.85 0.739999 10.85 0.83C10.85 0.86 10.845 0.895 10.835 0.935L7.895 10.535C7.865 10.645 7.795 10.75 7.685 10.85C7.585 10.95 7.44 11 7.25 11H4.385ZM13.4362 11.15C12.8862 11.15 12.3912 11.045 11.9512 10.835C11.5212 10.625 11.1812 10.345 10.9312 9.995C10.6912 9.635 10.5712 9.235 10.5712 8.795C10.5712 8.075 10.8612 7.51 11.4412 7.1C12.0312 6.68 12.8162 6.39 13.7962 6.23L15.5212 5.96V5.855C15.5212 5.545 15.4712 5.315 15.3712 5.165C15.2812 5.005 15.0862 4.925 14.7862 4.925C14.5762 4.925 14.4062 4.965 14.2762 5.045C14.1462 5.125 14.0262 5.24 13.9162 5.39C13.8162 5.5 13.6862 5.555 13.5262 5.555H11.4112C11.3012 5.555 11.2162 5.525 11.1562 5.465C11.0962 5.405 11.0712 5.325 11.0812 5.225C11.0912 5.045 11.1662 4.835 11.3062 4.595C11.4462 4.345 11.6612 4.105 11.9512 3.875C12.2512 3.635 12.6362 3.44 13.1062 3.29C13.5762 3.13 14.1412 3.05 14.8012 3.05C15.4712 3.05 16.0462 3.125 16.5262 3.275C17.0062 3.425 17.4012 3.635 17.7112 3.905C18.0212 4.175 18.2512 4.505 18.4012 4.895C18.5512 5.275 18.6262 5.7 18.6262 6.17V10.61C18.6262 10.72 18.5862 10.815 18.5062 10.895C18.4362 10.965 18.3462 11 18.2362 11H16.0462C15.9462 11 15.8562 10.965 15.7762 10.895C15.6962 10.815 15.6562 10.72 15.6562 10.61V10.13C15.5262 10.33 15.3512 10.505 15.1312 10.655C14.9212 10.805 14.6712 10.925 14.3812 11.015C14.1012 11.105 13.7862 11.15 13.4362 11.15ZM14.3062 9.185C14.5562 9.185 14.7712 9.135 14.9512 9.035C15.1412 8.925 15.2912 8.76 15.4012 8.54C15.5112 8.32 15.5662 8.045 15.5662 7.715V7.61L14.4862 7.82C14.1162 7.89 13.8562 7.995 13.7062 8.135C13.5562 8.265 13.4812 8.41 13.4812 8.57C13.4812 8.69 13.5162 8.795 13.5862 8.885C13.6562 8.975 13.7512 9.05 13.8712 9.11C14.0012 9.16 14.1462 9.185 14.3062 9.185ZM22.9679 11.15C22.4279 11.15 21.9329 11.025 21.4829 10.775C21.0429 10.525 20.6929 10.15 20.4329 9.65C20.1729 9.15 20.0429 8.52 20.0429 7.76V3.59C20.0429 3.48 20.0779 3.39 20.1479 3.32C20.2279 3.24 20.3229 3.2 20.4329 3.2H22.8029C22.9129 3.2 23.0029 3.24 23.0729 3.32C23.1529 3.39 23.1929 3.48 23.1929 3.59V7.655C23.1929 8.425 23.5379 8.81 24.2279 8.81C24.5579 8.81 24.8129 8.71 24.9929 8.51C25.1829 8.31 25.2779 8.025 25.2779 7.655V3.59C25.2779 3.48 25.3129 3.39 25.3829 3.32C25.4629 3.24 25.5579 3.2 25.6679 3.2H28.0379C28.1379 3.2 28.2279 3.24 28.3079 3.32C28.3879 3.39 28.4279 3.48 28.4279 3.59V10.61C28.4279 10.72 28.3879 10.815 28.3079 10.895C28.2279 10.965 28.1379 11 28.0379 11H25.8479C25.7379 11 25.6429 10.965 25.5629 10.895C25.4929 10.815 25.4579 10.72 25.4579 10.61V10.07C25.2079 10.44 24.8679 10.715 24.4379 10.895C24.0079 11.065 23.5179 11.15 22.9679 11.15ZM30.3663 11C30.2563 11 30.1613 10.965 30.0813 10.895C30.0113 10.815 29.9763 10.72 29.9763 10.61V0.74C29.9763 0.629999 30.0113 0.539999 30.0813 0.47C30.1613 0.39 30.2563 0.349999 30.3663 0.349999H32.6013C32.7013 0.349999 32.7913 0.39 32.8713 0.47C32.9513 0.539999 32.9913 0.629999 32.9913 0.74V10.61C32.9913 10.72 32.9513 10.815 32.8713 10.895C32.7913 10.965 32.7013 11 32.6013 11H30.3663ZM38.9566 11C38.2766 11 37.6766 10.9 37.1566 10.7C36.6466 10.5 36.2466 10.175 35.9566 9.725C35.6766 9.265 35.5366 8.66 35.5366 7.91V5.495H34.3516C34.2416 5.495 34.1466 5.46 34.0666 5.39C33.9966 5.31 33.9616 5.215 33.9616 5.105V3.59C33.9616 3.48 33.9966 3.39 34.0666 3.32C34.1466 3.24 34.2416 3.2 34.3516 3.2H35.5366V0.74C35.5366 0.629999 35.5716 0.539999 35.6416 0.47C35.7216 0.39 35.8166 0.349999 35.9266 0.349999H38.1016C38.2116 0.349999 38.3016 0.39 38.3716 0.47C38.4516 0.539999 38.4916 0.629999 38.4916 0.74V3.2H40.3816C40.4916 3.2 40.5816 3.24 40.6516 3.32C40.7316 3.39 40.7716 3.48 40.7716 3.59V5.105C40.7716 5.215 40.7316 5.31 40.6516 5.39C40.5816 5.46 40.4916 5.495 40.3816 5.495H38.4916V7.655C38.4916 7.945 38.5516 8.175 38.6716 8.345C38.7916 8.505 38.9816 8.585 39.2416 8.585H40.5016C40.6116 8.585 40.7016 8.625 40.7716 8.705C40.8516 8.775 40.8916 8.865 40.8916 8.975V10.61C40.8916 10.72 40.8516 10.815 40.7716 10.895C40.7016 10.965 40.6116 11 40.5016 11H38.9566Z"/>
</mask>
<path d="M3.95 10.85L2.88934 11.9107L2.91458 11.9359L2.94099 11.9599L3.95 10.85ZM3.755 10.535L5.20215 10.1403L5.19576 10.1169L5.18862 10.0937L3.755 10.535ZM0.8 0.935L-0.655214 1.2988L-0.645456 1.33783L-0.63362 1.37629L0.8 0.935ZM0.875 0.605L1.93566 1.66566L1.93566 1.66566L0.875 0.605ZM3.86 0.649999L4.92066 -0.410659L4.92066 -0.410661L3.86 0.649999ZM4.055 0.95L5.49833 0.541576L5.49512 0.530251L5.49174 0.518977L4.055 0.95ZM5.825 7.205L4.38167 7.61342L5.825 12.714L7.26833 7.61342L5.825 7.205ZM7.595 0.95L6.15826 0.518979L6.15488 0.530252L6.15167 0.541576L7.595 0.95ZM7.79 0.649999L6.72934 -0.410661L6.72934 -0.41066L7.79 0.649999ZM10.76 0.605L9.62111 1.58118L9.65861 1.62493L9.69935 1.66567L10.76 0.605ZM10.835 0.935L12.2692 1.37424L12.2807 1.3368L12.2902 1.29882L10.835 0.935ZM7.895 10.535L6.46075 10.0958L6.45396 10.1179L6.44786 10.1403L7.895 10.535ZM7.685 10.85L6.67599 9.74009L6.64958 9.7641L6.62434 9.78934L7.685 10.85ZM4.385 9.5C4.4332 9.5 4.52079 9.5067 4.63024 9.54444C4.74394 9.58365 4.85856 9.64877 4.95901 9.74009L2.94099 11.9599C3.38276 12.3615 3.91461 12.5 4.385 12.5V9.5ZM5.01066 9.78934C5.05134 9.83002 5.14879 9.94468 5.20215 10.1403L2.30785 10.9297C2.42121 11.3453 2.64866 11.67 2.88934 11.9107L5.01066 9.78934ZM5.18862 10.0937L2.23362 0.493714L-0.63362 1.37629L2.32138 10.9763L5.18862 10.0937ZM2.25521 0.571197C2.26473 0.60925 2.285 0.701334 2.285 0.829999H-0.715C-0.715 1.01866 -0.684727 1.18075 -0.655214 1.2988L2.25521 0.571197ZM2.285 0.829999C2.285 0.954075 2.26374 1.10452 2.20021 1.26334C2.13599 1.4239 2.04192 1.5594 1.93566 1.66566L-0.185659 -0.455662C-0.545353 -0.0959682 -0.715 0.368958 -0.715 0.829999H2.285ZM1.93566 1.66566C1.85595 1.74537 1.74144 1.83367 1.58873 1.90048C1.43327 1.9685 1.27043 2 1.115 2V-1C0.58552 -1 0.134753 -0.776075 -0.185662 -0.455658L1.93566 1.66566ZM1.115 2H3.44V-1H1.115V2ZM3.44 2C3.39319 2 3.29748 1.99368 3.1755 1.95011C3.04731 1.90433 2.91442 1.82574 2.79934 1.71066L4.92066 -0.410661C4.46791 -0.863415 3.90389 -1 3.44 -1V2ZM2.79934 1.71066C2.78331 1.69463 2.68038 1.5881 2.61826 1.38102L5.49174 0.518977C5.36962 0.111903 5.13669 -0.194628 4.92066 -0.410659L2.79934 1.71066ZM2.61167 1.35842L4.38167 7.61342L7.26833 6.79658L5.49833 0.541576L2.61167 1.35842ZM7.26833 7.61342L9.03833 1.35842L6.15167 0.541576L4.38167 6.79658L7.26833 7.61342ZM9.03174 1.38102C8.96962 1.5881 8.86669 1.69463 8.85066 1.71066L6.72934 -0.41066C6.51331 -0.194629 6.28038 0.111904 6.15826 0.518979L9.03174 1.38102ZM8.85066 1.71066C8.73558 1.82574 8.60269 1.90433 8.4745 1.95011C8.35252 1.99368 8.25681 2 8.21 2V-1C7.74611 -1 7.18209 -0.863415 6.72934 -0.410661L8.85066 1.71066ZM8.21 2H10.535V-1H8.21V2ZM10.535 2C10.3802 2 10.2024 1.96859 10.0244 1.88552C9.84737 1.8029 9.71418 1.68977 9.62111 1.58118L11.8989 -0.371183C11.5619 -0.764335 11.075 -1 10.535 -1V2ZM9.69935 1.66567C9.59308 1.5594 9.49901 1.42391 9.43479 1.26334C9.37126 1.10452 9.35 0.954077 9.35 0.829999H12.35C12.35 0.368954 12.1804 -0.0959728 11.8207 -0.455666L9.69935 1.66567ZM9.35 0.829999C9.35 0.701327 9.37028 0.609236 9.37979 0.571181L12.2902 1.29882C12.3197 1.18076 12.35 1.01867 12.35 0.829999H9.35ZM9.40075 0.495761L6.46075 10.0958L9.32925 10.9742L12.2692 1.37424L9.40075 0.495761ZM6.44786 10.1403C6.51256 9.90306 6.63795 9.77467 6.67599 9.74009L8.69401 11.9599C8.95205 11.7253 9.21744 11.3869 9.34215 10.9297L6.44786 10.1403ZM6.62434 9.78934C6.89162 9.52206 7.18297 9.5 7.25 9.5V12.5C7.69703 12.5 8.27838 12.3779 8.74566 11.9107L6.62434 9.78934ZM7.25 9.5H4.385V12.5H7.25V9.5ZM11.9512 10.835L11.2929 12.1829L11.3051 12.1887L11.9512 10.835ZM10.9312 9.995L9.68314 10.8271L9.69655 10.8472L9.71061 10.8669L10.9312 9.995ZM11.4412 7.1L12.3071 8.32487L12.3111 8.322L11.4412 7.1ZM13.7962 6.23L13.5642 4.74801L13.5545 4.7496L13.7962 6.23ZM15.5212 5.96L15.7532 7.44196L17.0212 7.24348V5.96H15.5212ZM15.3712 5.165L14.0638 5.90039L14.0917 5.94984L14.1231 5.99705L15.3712 5.165ZM14.2762 5.045L15.0624 6.32249L15.0624 6.32249L14.2762 5.045ZM13.9162 5.39L15.0261 6.39901L15.0792 6.34065L15.1258 6.27705L13.9162 5.39ZM11.1562 5.465L12.2169 4.40434L11.1562 5.465ZM11.0812 5.225L12.5738 5.37426L12.5771 5.34129L12.5789 5.3082L11.0812 5.225ZM11.3062 4.595L12.6019 5.35081L12.6085 5.33941L12.615 5.3279L11.3062 4.595ZM11.9512 3.875L12.8833 5.05026L12.8883 5.0463L11.9512 3.875ZM13.1062 3.29L13.5623 4.71899L13.576 4.71461L13.5896 4.70997L13.1062 3.29ZM16.5262 3.275L16.9736 1.84328L16.9736 1.84328L16.5262 3.275ZM17.7112 3.905L18.6964 2.77388V2.77388L17.7112 3.905ZM18.4012 4.895L17.0011 5.43349L17.006 5.44575L18.4012 4.895ZM18.5062 10.895L17.4456 9.83434L17.4455 9.83434L18.5062 10.895ZM15.7762 10.895L14.7156 11.9557L14.7509 11.991L14.7885 12.0239L15.7762 10.895ZM15.6562 10.13H17.1562V5.06996L14.3985 9.31252L15.6562 10.13ZM15.1312 10.655L14.2862 9.41566L14.2727 9.42488L14.2594 9.4344L15.1312 10.655ZM14.3812 11.015L13.9366 9.5824L13.9294 9.58464L13.9222 9.58696L14.3812 11.015ZM14.9512 9.035L15.6797 10.3462L15.6913 10.3398L15.7028 10.3331L14.9512 9.035ZM15.5662 7.61H17.0662V5.79024L15.2799 6.13758L15.5662 7.61ZM14.4862 7.82L14.7651 9.29387L14.7725 9.29242L14.4862 7.82ZM13.7062 8.135L14.6886 9.26853L14.7095 9.25044L14.7297 9.23158L13.7062 8.135ZM13.8712 9.11L13.2004 10.4516L13.2652 10.484L13.3327 10.51L13.8712 9.11ZM13.4362 9.65C13.081 9.65 12.8111 9.5833 12.5973 9.48128L11.3051 12.1887C11.9713 12.5067 12.6914 12.65 13.4362 12.65V9.65ZM12.6095 9.48715C12.3779 9.37405 12.2411 9.24813 12.1518 9.12314L9.71061 10.8669C10.1213 11.4419 10.6645 11.876 11.293 12.1829L12.6095 9.48715ZM12.1793 9.16295C12.1065 9.05376 12.0712 8.9442 12.0712 8.795H9.07121C9.07121 9.5258 9.27593 10.2162 9.68314 10.8271L12.1793 9.16295ZM12.0712 8.795C12.0712 8.55408 12.1312 8.44918 12.3071 8.32487L10.5754 5.87513C9.59122 6.57082 9.07121 7.59592 9.07121 8.795H12.0712ZM12.3111 8.322C12.6582 8.07494 13.2049 7.84641 14.0379 7.7104L13.5545 4.7496C12.4276 4.93359 11.4043 5.28506 10.5713 5.878L12.3111 8.322ZM14.0282 7.71196L15.7532 7.44196L15.2893 4.47804L13.5643 4.74804L14.0282 7.71196ZM17.0212 5.96V5.855H14.0212V5.96H17.0212ZM17.0212 5.855C17.0212 5.43777 16.9639 4.84986 16.6193 4.33295L14.1231 5.99705C14.0427 5.87638 14.0212 5.78372 14.0179 5.76864C14.0143 5.75204 14.0212 5.77554 14.0212 5.855H17.0212ZM16.6786 4.42961C16.1835 3.54946 15.2664 3.425 14.7862 3.425V6.425C14.8172 6.425 14.7305 6.43118 14.5881 6.37275C14.4218 6.3045 14.2084 6.15743 14.0638 5.90039L16.6786 4.42961ZM14.7862 3.425C14.3989 3.425 13.9294 3.49716 13.4901 3.76751L15.0624 6.32249C14.883 6.43284 14.7535 6.425 14.7862 6.425V3.425ZM13.4901 3.76751C13.1632 3.96865 12.9068 4.22991 12.7066 4.50295L15.1258 6.27705C15.1456 6.25009 15.1292 6.28135 15.0624 6.32249L13.4901 3.76751ZM12.8063 4.38099C12.8945 4.284 13.0136 4.19392 13.1593 4.1323C13.3023 4.07179 13.4321 4.055 13.5262 4.055V7.055C14.0726 7.055 14.6184 6.84753 15.0261 6.39901L12.8063 4.38099ZM13.5262 4.055H11.4112V7.055H13.5262V4.055ZM11.4112 4.055C11.576 4.055 11.9191 4.10659 12.2169 4.40434L10.0955 6.52566C10.5133 6.94341 11.0264 7.055 11.4112 7.055V4.055ZM12.2169 4.40434C12.3561 4.54356 12.4634 4.71822 12.5242 4.91259C12.5827 5.0997 12.5849 5.2625 12.5738 5.37426L9.58866 5.07574C9.54306 5.53168 9.65751 6.08762 10.0955 6.52566L12.2169 4.40434ZM12.5789 5.3082C12.5765 5.35058 12.571 5.38293 12.5665 5.4038C12.562 5.4246 12.558 5.43592 12.5576 5.437C12.5572 5.43813 12.5596 5.43127 12.5669 5.41603C12.5741 5.40085 12.5853 5.37918 12.6019 5.35081L10.0105 3.83919C9.80966 4.18356 9.61191 4.63077 9.58352 5.14179L12.5789 5.3082ZM12.615 5.3279C12.636 5.29033 12.7038 5.19261 12.8833 5.05025L11.0191 2.69975C10.6186 3.01739 10.2564 3.39967 9.99745 3.86209L12.615 5.3279ZM12.8883 5.0463C13.0108 4.94829 13.2197 4.82833 13.5623 4.71899L12.6502 1.86101C12.0528 2.05167 11.4917 2.3217 11.0142 2.7037L12.8883 5.0463ZM13.5896 4.70997C13.8622 4.61717 14.2549 4.55 14.8012 4.55V1.55C14.0276 1.55 13.2902 1.64283 12.6228 1.87003L13.5896 4.70997ZM14.8012 4.55C15.3666 4.55 15.7826 4.61416 16.0788 4.70672L16.9736 1.84328C16.3098 1.63584 15.5758 1.55 14.8012 1.55V4.55ZM16.0788 4.70672C16.4038 4.80829 16.6034 4.92931 16.726 5.03612L18.6964 2.77388C18.199 2.34069 17.6086 2.04171 16.9736 1.84328L16.0788 4.70672ZM16.726 5.03612C16.8483 5.14264 16.9375 5.26799 17.0012 5.43347L19.8012 4.35653C19.5649 3.742 19.1941 3.20736 18.6964 2.77388L16.726 5.03612ZM17.006 5.44575C17.0772 5.62606 17.1262 5.86049 17.1262 6.17H20.1262C20.1262 5.53951 20.0253 4.92394 19.7964 4.34425L17.006 5.44575ZM17.1262 6.17V10.61H20.1262V6.17H17.1262ZM17.1262 10.61C17.1262 10.4787 17.1511 10.3306 17.2138 10.1817C17.2761 10.0336 17.3618 9.91811 17.4456 9.83434L19.5669 11.9557C19.9192 11.6033 20.1262 11.1303 20.1262 10.61H17.1262ZM17.4455 9.83434C17.5538 9.72606 17.6887 9.63556 17.8425 9.57574C17.9933 9.51713 18.1309 9.5 18.2362 9.5V12.5C18.6956 12.5 19.1831 12.3395 19.5669 11.9557L17.4455 9.83434ZM18.2362 9.5H16.0462V12.5H18.2362V9.5ZM16.0462 9.5C16.1755 9.5 16.3129 9.52344 16.4474 9.57574C16.5805 9.62751 16.6859 9.69783 16.764 9.76614L14.7885 12.0239C15.1232 12.3167 15.5587 12.5 16.0462 12.5V9.5ZM16.8369 9.83434C16.9206 9.91811 17.0063 10.0336 17.0687 10.1817C17.1314 10.3306 17.1562 10.4787 17.1562 10.61H14.1562C14.1562 11.1303 14.3632 11.6033 14.7156 11.9557L16.8369 9.83434ZM17.1562 10.61V10.13H14.1562V10.61H17.1562ZM14.3985 9.31252C14.3887 9.32763 14.3612 9.36455 14.2862 9.41566L15.9762 11.8943C16.3413 11.6454 16.6637 11.3324 16.9139 10.9475L14.3985 9.31252ZM14.2594 9.4344C14.2002 9.47664 14.1001 9.53167 13.9366 9.5824L14.8258 12.4476C15.2423 12.3183 15.6422 12.1334 16.0031 11.8756L14.2594 9.4344ZM13.9222 9.58696C13.8156 9.62122 13.6591 9.65 13.4362 9.65V12.65C13.9133 12.65 14.3868 12.5888 14.8402 12.443L13.9222 9.58696ZM14.3062 10.685C14.7569 10.685 15.2338 10.594 15.6797 10.3462L14.2227 7.72376C14.2632 7.70131 14.2965 7.69083 14.3152 7.68649C14.3326 7.68243 14.3316 7.685 14.3062 7.685V10.685ZM15.7028 10.3331C16.1764 10.0589 16.518 9.66045 16.7429 9.21082L14.0596 7.86918C14.0595 7.86927 14.0621 7.86415 14.0681 7.8552C14.0742 7.84617 14.0834 7.83389 14.0963 7.81974C14.1235 7.78981 14.1589 7.76044 14.1997 7.73686L15.7028 10.3331ZM16.7429 9.21082C16.9863 8.72388 17.0662 8.20197 17.0662 7.715H14.0662C14.0662 7.79803 14.0592 7.84913 14.0541 7.87458C14.0492 7.89926 14.0473 7.89374 14.0596 7.86918L16.7429 9.21082ZM17.0662 7.715V7.61H14.0662V7.715H17.0662ZM15.2799 6.13758L14.1999 6.34758L14.7725 9.29242L15.8525 9.08242L15.2799 6.13758ZM14.2074 6.34614C13.758 6.43116 13.1507 6.60169 12.6827 7.03842L14.7297 9.23158C14.6781 9.27974 14.6343 9.30895 14.6088 9.32419C14.5833 9.33942 14.5702 9.34422 14.5754 9.34211C14.5803 9.34012 14.5978 9.33352 14.6308 9.32434C14.6636 9.31523 14.7078 9.30469 14.765 9.29386L14.2074 6.34614ZM12.7238 7.00147C12.3308 7.34207 11.9812 7.87308 11.9812 8.57H14.9812C14.9812 8.73482 14.9401 8.89437 14.8698 9.03038C14.8032 9.15905 14.7272 9.23509 14.6886 9.26853L12.7238 7.00147ZM11.9812 8.57C11.9812 9.00478 12.1162 9.43816 12.4022 9.80591L14.7702 7.96409C14.8364 8.04922 14.8926 8.15072 14.9305 8.26441C14.9681 8.37721 14.9812 8.48233 14.9812 8.57H11.9812ZM12.4022 9.80591C12.6319 10.1013 12.9152 10.309 13.2004 10.4516L14.542 7.76836C14.5872 7.79096 14.6805 7.8487 14.7702 7.96409L12.4022 9.80591ZM13.3327 10.51C13.6581 10.6352 13.9892 10.685 14.3062 10.685V7.685C14.3033 7.685 14.3443 7.68483 14.4097 7.70998L13.3327 10.51ZM21.4829 10.775L20.7419 12.0792L20.7481 12.0827L20.7544 12.0862L21.4829 10.775ZM20.4329 9.65L21.7637 8.95797L20.4329 9.65ZM20.1479 3.32L19.0872 2.25934V2.25934L20.1479 3.32ZM23.0729 3.32L21.944 4.30776L22.0099 4.38301L22.0851 4.44886L23.0729 3.32ZM24.9929 8.51L23.9054 7.47688L23.8915 7.49153L23.8779 7.50655L24.9929 8.51ZM25.3829 3.32L24.3222 2.25934V2.25934L25.3829 3.32ZM28.3079 3.32L27.2472 4.38066L27.2825 4.41597L27.3201 4.44886L28.3079 3.32ZM28.3079 10.895L29.2956 12.0239L29.3332 11.991L29.3686 11.9557L28.3079 10.895ZM25.5629 10.895L24.434 11.8828L24.4999 11.958L24.5751 12.0239L25.5629 10.895ZM25.4579 10.07H26.9579V5.17075L24.215 9.23021L25.4579 10.07ZM24.4379 10.895L24.9894 12.2899L25.0033 12.2844L25.0171 12.2787L24.4379 10.895ZM22.9679 9.65C22.6699 9.65 22.4275 9.58382 22.2114 9.46376L20.7544 12.0862C21.4383 12.4662 22.1859 12.65 22.9679 12.65V9.65ZM22.2239 9.47082C22.0634 9.37965 21.9059 9.23149 21.7637 8.95797L19.1021 10.342C19.4798 11.0685 20.0223 11.6704 20.7419 12.0792L22.2239 9.47082ZM21.7637 8.95797C21.6467 8.73303 21.5429 8.35928 21.5429 7.76H18.5429C18.5429 8.68072 18.699 9.56697 19.1021 10.342L21.7637 8.95797ZM21.5429 7.76V3.59H18.5429V7.76H21.5429ZM21.5429 3.59C21.5429 3.69535 21.5258 3.83295 21.4671 3.98367C21.4073 4.13747 21.3168 4.27238 21.2086 4.38066L19.0872 2.25934C18.7034 2.64315 18.5429 3.13062 18.5429 3.59H21.5429ZM21.2086 4.38066C21.1248 4.46443 21.0093 4.55011 20.8612 4.61245C20.7123 4.67514 20.5642 4.7 20.4329 4.7V1.7C19.9125 1.7 19.4396 1.90701 19.0872 2.25934L21.2086 4.38066ZM20.4329 4.7H22.8029V1.7H20.4329V4.7ZM22.8029 4.7C22.6726 4.7 22.5118 4.67542 22.3437 4.60072C22.1743 4.52543 22.0408 4.41841 21.944 4.30776L24.2018 2.33224C23.8358 1.91401 23.3282 1.7 22.8029 1.7V4.7ZM22.0851 4.44886C21.9745 4.35204 21.8675 4.2186 21.7922 4.04921C21.7175 3.88113 21.6929 3.72026 21.6929 3.59H24.6929C24.6929 3.06464 24.4789 2.55709 24.0607 2.19114L22.0851 4.44886ZM21.6929 3.59V7.655H24.6929V3.59H21.6929ZM21.6929 7.655C21.6929 8.2331 21.8188 8.9468 22.3345 9.52229C22.8783 10.1291 23.6065 10.31 24.2279 10.31V7.31C24.1911 7.31 24.2242 7.30445 24.298 7.33193C24.3807 7.36266 24.4817 7.42309 24.5687 7.52021C24.7394 7.7107 24.6929 7.8469 24.6929 7.655H21.6929ZM24.2279 10.31C24.879 10.31 25.5805 10.0994 26.1078 9.51345L23.8779 7.50655C23.9468 7.43003 24.0335 7.37208 24.119 7.33854C24.1977 7.30768 24.2429 7.31 24.2279 7.31V10.31ZM26.0804 9.54313C26.6151 8.98025 26.7779 8.27529 26.7779 7.655H23.7779C23.7779 7.71467 23.7699 7.71305 23.7836 7.67191C23.7994 7.62463 23.8358 7.55008 23.9054 7.47688L26.0804 9.54313ZM26.7779 7.655V3.59H23.7779V7.655H26.7779ZM26.7779 3.59C26.7779 3.69535 26.7608 3.83295 26.7021 3.98367C26.6423 4.13747 26.5518 4.27238 26.4436 4.38066L24.3222 2.25934C23.9384 2.64315 23.7779 3.13062 23.7779 3.59H26.7779ZM26.4436 4.38066C26.3598 4.46443 26.2443 4.55011 26.0962 4.61245C25.9473 4.67514 25.7992 4.7 25.6679 4.7V1.7C25.1475 1.7 24.6746 1.90701 24.3222 2.25934L26.4436 4.38066ZM25.6679 4.7H28.0379V1.7H25.6679V4.7ZM28.0379 4.7C27.8813 4.7 27.721 4.66729 27.5712 4.60072C27.4249 4.5357 27.3183 4.45172 27.2472 4.38066L29.3686 2.25934C29.0475 1.93831 28.5893 1.7 28.0379 1.7V4.7ZM27.3201 4.44886C27.2095 4.35204 27.1025 4.21859 27.0272 4.0492C26.9525 3.88113 26.9279 3.72026 26.9279 3.59H29.9279C29.9279 3.06464 29.7139 2.5571 29.2957 2.19114L27.3201 4.44886ZM26.9279 3.59V10.61H29.9279V3.59H26.9279ZM26.9279 10.61C26.9279 10.4787 26.9527 10.3306 27.0154 10.1817C27.0778 10.0336 27.1635 9.91811 27.2472 9.83434L29.3686 11.9557C29.7209 11.6033 29.9279 11.1303 29.9279 10.61H26.9279ZM27.3201 9.76613C27.3982 9.69783 27.5036 9.62751 27.6367 9.57574C27.7712 9.52344 27.9086 9.5 28.0379 9.5V12.5C28.5254 12.5 28.9609 12.3167 29.2956 12.0239L27.3201 9.76613ZM28.0379 9.5H25.8479V12.5H28.0379V9.5ZM25.8479 9.5C25.9545 9.5 26.0804 9.51748 26.2127 9.56624C26.3458 9.61528 26.4596 9.68646 26.5506 9.76614L24.5751 12.0239C24.9388 12.3421 25.3884 12.5 25.8479 12.5V9.5ZM26.6918 9.90724C26.7714 9.9983 26.8426 10.1121 26.8917 10.2452C26.9404 10.3775 26.9579 10.5034 26.9579 10.61H23.9579C23.9579 11.0695 24.1158 11.5191 24.434 11.8828L26.6918 9.90724ZM26.9579 10.61V10.07H23.9579V10.61H26.9579ZM24.215 9.23021C24.136 9.34719 24.0317 9.43891 23.8587 9.51134L25.0171 12.2787C25.7041 11.9911 26.2798 11.5328 26.7008 10.9098L24.215 9.23021ZM23.8864 9.50006C23.6618 9.58884 23.3641 9.65 22.9679 9.65V12.65C23.6717 12.65 24.3539 12.5412 24.9894 12.2899L23.8864 9.50006ZM30.0813 10.895L28.9524 11.8828L29.0183 11.958L29.0935 12.0239L30.0813 10.895ZM30.0813 0.47L31.1419 1.53066L31.142 1.53066L30.0813 0.47ZM32.8713 0.47L31.8106 1.53066L31.8459 1.56598L31.8835 1.59887L32.8713 0.47ZM32.8713 10.895L33.859 12.0239L33.8966 11.991L33.9319 11.9557L32.8713 10.895ZM30.3663 9.5C30.4729 9.5 30.5987 9.51748 30.7311 9.56624C30.8642 9.61528 30.978 9.68646 31.069 9.76614L29.0935 12.0239C29.4572 12.3421 29.9068 12.5 30.3663 12.5V9.5ZM31.2102 9.90724C31.2898 9.9983 31.361 10.1121 31.4101 10.2452C31.4588 10.3775 31.4763 10.5034 31.4763 10.61H28.4763C28.4763 11.0695 28.6342 11.5191 28.9524 11.8828L31.2102 9.90724ZM31.4763 10.61V0.74H28.4763V10.61H31.4763ZM31.4763 0.74C31.4763 0.845345 31.4592 0.982951 31.4005 1.13367C31.3407 1.28747 31.2502 1.42238 31.1419 1.53066L29.0206 -0.590663C28.6368 -0.206856 28.4763 0.280624 28.4763 0.74H31.4763ZM31.142 1.53066C31.0582 1.61443 30.9427 1.70011 30.7946 1.76245C30.6457 1.82514 30.4976 1.85 30.3663 1.85V-1.15C29.8459 -1.15 29.373 -0.942988 29.0206 -0.590659L31.142 1.53066ZM30.3663 1.85H32.6013V-1.15H30.3663V1.85ZM32.6013 1.85C32.4447 1.85 32.2844 1.81729 32.1346 1.75072C31.9883 1.68569 31.8817 1.60171 31.8106 1.53066L33.9319 -0.590658C33.6109 -0.911692 33.1527 -1.15 32.6013 -1.15V1.85ZM31.8835 1.59887C31.7729 1.50205 31.6659 1.3686 31.5906 1.19921C31.5159 1.03113 31.4913 0.870261 31.4913 0.74H34.4913C34.4913 0.214642 34.2773 -0.29291 33.859 -0.658869L31.8835 1.59887ZM31.4913 0.74V10.61H34.4913V0.74H31.4913ZM31.4913 10.61C31.4913 10.4787 31.5161 10.3306 31.5788 10.1817C31.6412 10.0336 31.7269 9.91811 31.8106 9.83434L33.9319 11.9557C34.2843 11.6033 34.4913 11.1303 34.4913 10.61H31.4913ZM31.8835 9.76614C31.9616 9.69783 32.067 9.62752 32.2001 9.57574C32.3346 9.52344 32.472 9.5 32.6013 9.5V12.5C33.0888 12.5 33.5243 12.3167 33.859 12.0239L31.8835 9.76614ZM32.6013 9.5H30.3663V12.5H32.6013V9.5ZM37.1566 10.7L36.609 12.0965L36.6181 12.1L37.1566 10.7ZM35.9566 9.725L34.6753 10.5049L34.6853 10.5214L34.6957 10.5376L35.9566 9.725ZM35.5366 5.495H37.0366V3.995H35.5366V5.495ZM34.0666 5.39L32.9377 6.37776L33.0036 6.45301L33.0788 6.51886L34.0666 5.39ZM34.0666 3.32L33.0059 2.25934V2.25934L34.0666 3.32ZM35.5366 3.2V4.7H37.0366V3.2H35.5366ZM35.6416 0.47L36.7023 1.53066L36.7023 1.53066L35.6416 0.47ZM38.3716 0.47L37.2427 1.45776L37.3086 1.53302L37.3839 1.59887L38.3716 0.47ZM38.4916 3.2H36.9916V4.7H38.4916V3.2ZM40.6516 3.32L39.5227 4.30776L39.5886 4.38301L39.6638 4.44886L40.6516 3.32ZM40.6516 5.39L41.7123 6.45066L41.7123 6.45066L40.6516 5.39ZM38.4916 5.495V3.995H36.9916V5.495H38.4916ZM38.6716 8.345L37.4461 9.21002L37.4586 9.2277L37.4716 9.245L38.6716 8.345ZM40.7716 8.705L39.6427 9.69276L39.7086 9.76801L39.7838 9.83387L40.7716 8.705ZM40.7716 10.895L39.7109 9.83434V9.83434L40.7716 10.895ZM38.9566 9.5C38.4213 9.5 38.01 9.4211 37.6951 9.29998L36.6181 12.1C37.3432 12.3789 38.1319 12.5 38.9566 12.5V9.5ZM37.7042 9.30354C37.4801 9.21563 37.3327 9.09125 37.2175 8.91245L34.6957 10.5376C35.1605 11.2587 35.8131 11.7844 36.609 12.0965L37.7042 9.30354ZM37.2379 8.94508C37.1465 8.79496 37.0366 8.48822 37.0366 7.91H34.0366C34.0366 8.83178 34.2067 9.73504 34.6753 10.5049L37.2379 8.94508ZM37.0366 7.91V5.495H34.0366V7.91H37.0366ZM35.5366 3.995H34.3516V6.995H35.5366V3.995ZM34.3516 3.995C34.4582 3.995 34.5841 4.01248 34.7164 4.06124C34.8495 4.11028 34.9633 4.18146 35.0544 4.26114L33.0788 6.51886C33.4425 6.83708 33.8921 6.995 34.3516 6.995V3.995ZM35.1955 4.40224C35.2751 4.4933 35.3463 4.60707 35.3954 4.74019C35.4441 4.87254 35.4616 4.99838 35.4616 5.105H32.4616C32.4616 5.56449 32.6195 6.01408 32.9377 6.37776L35.1955 4.40224ZM35.4616 5.105V3.59H32.4616V5.105H35.4616ZM35.4616 3.59C35.4616 3.69535 35.4445 3.83295 35.3859 3.98367C35.326 4.13747 35.2355 4.27238 35.1273 4.38066L33.0059 2.25934C32.6221 2.64315 32.4616 3.13062 32.4616 3.59H35.4616ZM35.1273 4.38066C35.0435 4.46443 34.928 4.55011 34.7799 4.61245C34.631 4.67514 34.4829 4.7 34.3516 4.7V1.7C33.8313 1.7 33.3583 1.90701 33.0059 2.25934L35.1273 4.38066ZM34.3516 4.7H35.5366V1.7H34.3516V4.7ZM37.0366 3.2V0.74H34.0366V3.2H37.0366ZM37.0366 0.74C37.0366 0.845345 37.0195 0.98295 36.9609 1.13367C36.901 1.28747 36.8105 1.42238 36.7023 1.53066L34.5809 -0.590662C34.1971 -0.206855 34.0366 0.280625 34.0366 0.74H37.0366ZM36.7023 1.53066C36.6185 1.61443 36.503 1.70011 36.3549 1.76245C36.206 1.82514 36.0579 1.85 35.9266 1.85V-1.15C35.4063 -1.15 34.9333 -0.942988 34.5809 -0.59066L36.7023 1.53066ZM35.9266 1.85H38.1016V-1.15H35.9266V1.85ZM38.1016 1.85C37.9713 1.85 37.8105 1.82542 37.6424 1.75072C37.473 1.67543 37.3396 1.56841 37.2427 1.45776L39.5005 -0.517756C39.1345 -0.935994 38.627 -1.15 38.1016 -1.15V1.85ZM37.3839 1.59887C37.2732 1.50205 37.1662 1.3686 37.0909 1.19921C37.0162 1.03113 36.9916 0.870261 36.9916 0.74H39.9916C39.9916 0.214642 39.7776 -0.29291 39.3594 -0.658869L37.3839 1.59887ZM36.9916 0.74V3.2H39.9916V0.74H36.9916ZM38.4916 4.7H40.3816V1.7H38.4916V4.7ZM40.3816 4.7C40.2513 4.7 40.0905 4.67542 39.9224 4.60072C39.753 4.52543 39.6196 4.41841 39.5227 4.30776L41.7805 2.33224C41.4145 1.91401 40.907 1.7 40.3816 1.7V4.7ZM39.6638 4.44886C39.5532 4.35204 39.4462 4.2186 39.3709 4.04921C39.2962 3.88113 39.2716 3.72026 39.2716 3.59H42.2716C42.2716 3.06464 42.0576 2.55709 41.6394 2.19114L39.6638 4.44886ZM39.2716 3.59V5.105H42.2716V3.59H39.2716ZM39.2716 5.105C39.2716 4.97368 39.2965 4.82556 39.3591 4.67667C39.4215 4.52861 39.5072 4.41311 39.5909 4.32934L41.7123 6.45066C42.0646 6.09833 42.2716 5.62534 42.2716 5.105H39.2716ZM39.5909 4.32934C39.6992 4.22106 39.8341 4.13055 39.9879 4.07074C40.1386 4.01213 40.2763 3.995 40.3816 3.995V6.995C40.841 6.995 41.3285 6.83447 41.7123 6.45066L39.5909 4.32934ZM40.3816 3.995H38.4916V6.995H40.3816V3.995ZM36.9916 5.495V7.655H39.9916V5.495H36.9916ZM36.9916 7.655C36.9916 8.13641 37.0896 8.70494 37.4461 9.21002L39.8971 7.47998C39.9547 7.56159 39.9789 7.6315 39.988 7.66637C39.9964 7.69857 39.9916 7.69914 39.9916 7.655H36.9916ZM37.4716 9.245C37.9565 9.89154 38.6645 10.085 39.2416 10.085V7.085C39.2612 7.085 39.3556 7.08757 39.4862 7.14255C39.6284 7.20242 39.767 7.3055 39.8716 7.445L37.4716 9.245ZM39.2416 10.085H40.5016V7.085H39.2416V10.085ZM40.5016 10.085C40.3713 10.085 40.2105 10.0604 40.0424 9.98572C39.873 9.91043 39.7396 9.80341 39.6427 9.69276L41.9005 7.71724C41.5345 7.29901 41.027 7.085 40.5016 7.085V10.085ZM39.7838 9.83387C39.6732 9.73705 39.5662 9.6036 39.4909 9.43421C39.4162 9.26613 39.3916 9.10526 39.3916 8.975H42.3916C42.3916 8.44964 42.1776 7.94209 41.7594 7.57613L39.7838 9.83387ZM39.3916 8.975V10.61H42.3916V8.975H39.3916ZM39.3916 10.61C39.3916 10.4787 39.4165 10.3306 39.4791 10.1817C39.5415 10.0336 39.6272 9.91811 39.7109 9.83434L41.8323 11.9557C42.1846 11.6033 42.3916 11.1303 42.3916 10.61H39.3916ZM39.7109 9.83434C39.8192 9.72606 39.9541 9.63555 40.1079 9.57574C40.2586 9.51713 40.3963 9.5 40.5016 9.5V12.5C40.961 12.5 41.4485 12.3395 41.8323 11.9557L39.7109 9.83434ZM40.5016 9.5H38.9566V12.5H40.5016V9.5Z" fill="#64748B" fill-opacity="0.75" mask="url(#path-1-outside-1_5086_16875)"/>
</svg>
