<svg width="30" height="30" viewBox="0 0 30 30" fill="none" xmlns="http://www.w3.org/2000/svg">
<path id="Vector" d="M27.5 1.26484e-05H8.0172C7.68877 -0.00103662 7.36341 0.0632076 7.06004 0.189011C6.75666 0.314815 6.48132 0.499668 6.25001 0.732825L0.732825 6.25001C0.499668 6.48132 0.314815 6.75666 0.189011 7.06004C0.0632076 7.36341 -0.00103662 7.68877 1.26484e-05 8.0172V27.5C1.26484e-05 28.163 0.263405 28.7989 0.732245 29.2678C1.20109 29.7366 1.83697 30 2.50001 30H27.5C28.163 30 28.7989 29.7366 29.2678 29.2678C29.7366 28.7989 30 28.163 30 27.5V2.50001C30 1.83697 29.7366 1.20109 29.2678 0.732245C28.7989 0.263405 28.163 1.26484e-05 27.5 1.26484e-05ZM8.75001 2.50001H21.25V7.50001H8.75001V2.50001ZM27.5 27.5H2.50001V8.0172L6.25001 4.2672V7.50001C6.25001 8.16305 6.5134 8.79893 6.98224 9.26778C7.45108 9.73662 8.08697 10 8.75001 10H21.25C21.913 10 22.5489 9.73662 23.0178 9.26778C23.4866 8.79893 23.75 8.16305 23.75 7.50001V2.50001H27.5V27.5ZM15 12.5C13.7639 12.5 12.5555 12.8666 11.5277 13.5533C10.4999 14.2401 9.69881 15.2162 9.22576 16.3582C8.75271 17.5003 8.62894 18.7569 8.8701 19.9693C9.11126 21.1817 9.70651 22.2953 10.5806 23.1694C11.4547 24.0435 12.5683 24.6388 13.7807 24.8799C14.9931 25.1211 16.2497 24.9973 17.3918 24.5243C18.5338 24.0512 19.5099 23.2501 20.1967 22.2223C20.8834 21.1945 21.25 19.9861 21.25 18.75C21.25 17.0924 20.5915 15.5027 19.4194 14.3306C18.2473 13.1585 16.6576 12.5 15 12.5ZM15 22.5C14.2583 22.5 13.5333 22.2801 12.9166 21.868C12.2999 21.456 11.8193 20.8703 11.5355 20.1851C11.2516 19.4998 11.1774 18.7458 11.3221 18.0184C11.4668 17.291 11.8239 16.6228 12.3484 16.0984C12.8728 15.5739 13.541 15.2168 14.2684 15.0721C14.9958 14.9274 15.7498 15.0016 16.4351 15.2855C17.1203 15.5693 17.706 16.0499 18.118 16.6666C18.5301 17.2833 18.75 18.0083 18.75 18.75C18.75 19.7446 18.3549 20.6984 17.6517 21.4017C16.9484 22.1049 15.9946 22.5 15 22.5Z" fill="#FC951E"/>
</svg>
