<svg width="17" height="17" viewBox="0 0 17 17" fill="none" xmlns="http://www.w3.org/2000/svg">
<circle cx="8.50028" cy="8.49997" r="1.66666" stroke="black" stroke-width="1.5"/>
<path d="M6.83362 4.33332V2.48147V2C6.83362 1.44771 7.28133 1 7.83362 1H13.5003" stroke="#EC5863" stroke-width="1.5" stroke-linecap="round" stroke-linejoin="round"/>
<path d="M8.50053 12.6665L7.25056 15.9999" stroke="#EC5863" stroke-width="1.5" stroke-linecap="round"/>
<path d="M11.8334 12.6668L13.0834 16" stroke="#EC5863" stroke-width="1.5" stroke-linecap="round"/>
<path d="M1 5.16663L4.33332 6.119V10.8809L1 11.8333V5.16663Z" fill="#FCEBF8" stroke="#EC5863" stroke-width="1.5"/>
<path d="M4.33276 6.33337C4.33276 5.2288 5.22819 4.33337 6.33276 4.33337H13.9994C15.1039 4.33337 15.9994 5.2288 15.9994 6.33337V10.6667C15.9994 11.7712 15.1039 12.6667 13.9994 12.6667H6.33276C5.22819 12.6667 4.33276 11.7712 4.33276 10.6667V6.33337Z" fill="#FCEBF8" stroke="#EC5863" stroke-width="1.5"/>
</svg>
