<svg width="36" height="9" viewBox="0 0 36 9" fill="none" xmlns="http://www.w3.org/2000/svg">
<path d="M3.1668 8C3.05346 8 2.96346 7.97 2.8968 7.91C2.83013 7.85 2.78346 7.78 2.7568 7.7L0.716797 1.3C0.703464 1.26667 0.696797 1.23667 0.696797 1.21C0.696797 1.15667 0.716797 1.11 0.756797 1.07C0.803464 1.02333 0.856797 1 0.916797 1H2.1568C2.26346 1 2.3468 1.03 2.4068 1.09C2.4668 1.15 2.50346 1.20667 2.5168 1.26L3.9268 5.88L5.3468 1.26C5.3668 1.20667 5.40346 1.15 5.4568 1.09C5.5168 1.03 5.60013 1 5.7068 1H6.9468C7.0068 1 7.0568 1.02333 7.0968 1.07C7.14346 1.11 7.1668 1.15667 7.1668 1.21C7.1668 1.23667 7.16013 1.26667 7.1468 1.3L5.1068 7.7C5.08013 7.78 5.03346 7.85 4.9668 7.91C4.9068 7.97 4.8168 8 4.6968 8H3.1668ZM8.13297 8C8.05964 8 7.99964 7.97667 7.95297 7.93C7.9063 7.88333 7.88297 7.82333 7.88297 7.75V3.05C7.88297 2.97667 7.9063 2.91667 7.95297 2.87C7.99964 2.82333 8.05964 2.8 8.13297 2.8H9.31297C9.37964 2.8 9.4363 2.82333 9.48297 2.87C9.5363 2.91667 9.56297 2.97667 9.56297 3.05V7.75C9.56297 7.82333 9.5363 7.88333 9.48297 7.93C9.4363 7.97667 9.37964 8 9.31297 8H8.13297ZM8.12297 2.05C8.04964 2.05 7.98964 2.02667 7.94297 1.98C7.8963 1.93333 7.87297 1.87333 7.87297 1.8V0.909999C7.87297 0.836666 7.8963 0.776666 7.94297 0.729999C7.98964 0.676666 8.04964 0.65 8.12297 0.65H9.31297C9.3863 0.65 9.4463 0.676666 9.49297 0.729999C9.5463 0.776666 9.57297 0.836666 9.57297 0.909999V1.8C9.57297 1.87333 9.5463 1.93333 9.49297 1.98C9.4463 2.02667 9.3863 2.05 9.31297 2.05H8.12297ZM13.1345 8.1C12.3479 8.1 11.7212 7.88667 11.2545 7.46C10.7879 7.03333 10.5445 6.4 10.5245 5.56C10.5245 5.51333 10.5245 5.45333 10.5245 5.38C10.5245 5.30667 10.5245 5.25 10.5245 5.21C10.5445 4.68333 10.6612 4.23333 10.8745 3.86C11.0945 3.48 11.3945 3.19333 11.7745 3C12.1612 2.8 12.6112 2.7 13.1245 2.7C13.7112 2.7 14.1945 2.81667 14.5745 3.05C14.9612 3.28333 15.2512 3.6 15.4445 4C15.6379 4.4 15.7345 4.85667 15.7345 5.37V5.61C15.7345 5.68333 15.7079 5.74333 15.6545 5.79C15.6079 5.83667 15.5512 5.86 15.4845 5.86H12.2845C12.2845 5.86667 12.2845 5.87667 12.2845 5.89C12.2845 5.90333 12.2845 5.91667 12.2845 5.93C12.2912 6.12333 12.3245 6.3 12.3845 6.46C12.4445 6.62 12.5379 6.74667 12.6645 6.84C12.7912 6.93333 12.9445 6.98 13.1245 6.98C13.2579 6.98 13.3679 6.96 13.4545 6.92C13.5479 6.87333 13.6245 6.82333 13.6845 6.77C13.7445 6.71 13.7912 6.66 13.8245 6.62C13.8845 6.55333 13.9312 6.51333 13.9645 6.5C14.0045 6.48 14.0645 6.47 14.1445 6.47H15.3845C15.4512 6.47 15.5045 6.49 15.5445 6.53C15.5912 6.56333 15.6112 6.61333 15.6045 6.68C15.5979 6.79333 15.5412 6.93 15.4345 7.09C15.3279 7.25 15.1712 7.41 14.9645 7.57C14.7645 7.72333 14.5112 7.85 14.2045 7.95C13.8979 8.05 13.5412 8.1 13.1345 8.1ZM12.2845 4.87H13.9745V4.85C13.9745 4.63667 13.9412 4.45 13.8745 4.29C13.8145 4.13 13.7179 4.00667 13.5845 3.92C13.4579 3.83333 13.3045 3.79 13.1245 3.79C12.9445 3.79 12.7912 3.83333 12.6645 3.92C12.5445 4.00667 12.4512 4.13 12.3845 4.29C12.3179 4.45 12.2845 4.63667 12.2845 4.85V4.87ZM17.9658 8C17.8658 8 17.7924 7.97667 17.7458 7.93C17.6991 7.88333 17.6624 7.82333 17.6358 7.75L16.1958 3.12C16.1824 3.08667 16.1758 3.05333 16.1758 3.02C16.1758 2.96 16.1991 2.91 16.2458 2.87C16.2924 2.82333 16.3458 2.8 16.4058 2.8H17.4358C17.5224 2.8 17.5891 2.82333 17.6358 2.87C17.6891 2.91667 17.7224 2.96333 17.7358 3.01L18.5758 5.87L19.4758 3.02C19.4891 2.97333 19.5191 2.92667 19.5658 2.88C19.6191 2.82667 19.6924 2.8 19.7858 2.8H20.4458C20.5391 2.8 20.6091 2.82667 20.6558 2.88C20.7091 2.92667 20.7424 2.97333 20.7558 3.02L21.6558 5.87L22.4958 3.01C22.5091 2.96333 22.5391 2.91667 22.5858 2.87C22.6391 2.82333 22.7091 2.8 22.7958 2.8H23.8258C23.8858 2.8 23.9358 2.82333 23.9758 2.87C24.0224 2.91 24.0458 2.96 24.0458 3.02C24.0458 3.05333 24.0424 3.08667 24.0358 3.12L22.5958 7.75C22.5758 7.82333 22.5391 7.88333 22.4858 7.93C22.4391 7.97667 22.3658 8 22.2658 8H21.3658C21.2724 8 21.1991 7.97667 21.1458 7.93C21.0924 7.88333 21.0558 7.82333 21.0358 7.75L20.1158 5.01L19.1958 7.75C19.1758 7.82333 19.1391 7.88333 19.0858 7.93C19.0324 7.97667 18.9591 8 18.8658 8H17.9658ZM35.7549 6.2959C35.7549 6.50098 35.6865 6.6735 35.5498 6.81348C35.4131 6.95345 35.2487 7.02344 35.0566 7.02344C34.8678 7.02344 34.7083 6.95345 34.5781 6.81348C34.4512 6.6735 34.3877 6.5026 34.3877 6.30078V4.44043L34.4512 2.88281L33.6895 3.74219L29.3682 8.05371C29.2087 8.21322 29.0345 8.29297 28.8457 8.29297C28.7188 8.29297 28.6016 8.25879 28.4941 8.19043C28.3867 8.12207 28.2988 8.03418 28.2305 7.92676C28.1621 7.81608 28.1279 7.69889 28.1279 7.5752C28.1279 7.38965 28.2077 7.21549 28.3672 7.05273L32.6787 2.73145L33.5332 1.97461L31.9268 2.0332H30.1152C29.9167 2.0332 29.7474 1.9681 29.6074 1.83789C29.4674 1.70768 29.3975 1.5498 29.3975 1.36426C29.3975 1.17546 29.4658 1.0127 29.6025 0.875977C29.7425 0.739258 29.9167 0.670898 30.125 0.670898H35.0127C35.2373 0.670898 35.4163 0.739258 35.5498 0.875977C35.6865 1.0127 35.7549 1.1901 35.7549 1.4082V6.2959Z" fill="#EC5863"/>
</svg>
